<svg width="387" height="314" viewBox="0 0 387 314" fill="none" xmlns="http://www.w3.org/2000/svg">
<path d="M304.331 266.754V231.705L186.555 190.088C185.891 189.853 185.181 189.781 184.483 189.879L94.4766 202.468C92.3068 202.771 90.6924 204.621 90.6924 206.811V242.354C90.6924 249.076 99.4094 257.685 103.546 260.485C123.196 271.983 160.724 294.978 174.907 302.054C187.692 308.431 197.955 313.994 218.787 313.994C238.856 313.994 249.814 310.456 256.462 306.476C260.206 304.235 289.704 287.461 297.683 281.269C303.794 276.527 304.704 270.325 304.381 267.477C304.354 267.236 304.331 266.997 304.331 266.754Z" fill="#EDEFFF"/>
<path d="M304.331 266.758V236.576C304.331 234.736 303.184 233.091 301.457 232.455L186.58 190.116C185.9 189.865 185.17 189.787 184.452 189.887L94.4766 202.472C92.3068 202.775 90.6924 204.624 90.6924 206.815V242.358C90.6924 249.08 99.4094 257.688 103.546 260.489C123.196 271.987 160.724 294.982 174.907 302.058C187.692 308.435 197.955 313.997 218.787 313.997C238.856 313.997 249.814 310.46 256.462 306.48C260.206 304.239 289.704 287.464 297.683 281.273C303.794 276.531 304.704 270.329 304.381 267.481C304.354 267.24 304.331 267.001 304.331 266.758Z" fill="url(#paint0_linear_8146_133601)"/>
<path d="M221.572 169.868C195.613 154.404 163.422 153.783 136.886 168.233L103.181 186.587C86.64 195.595 86.2672 219.21 102.516 228.735L176.173 271.914C203.067 287.68 236.409 287.567 263.195 271.618L292.876 253.946C308.64 244.56 308.642 221.734 292.88 212.345L221.572 169.868Z" fill="#EDEFFF"/>
<path d="M221.969 179.094C196.113 163.822 164.142 163.228 137.735 177.527L117.468 188.502C106.942 194.201 106.715 209.226 117.064 215.241L175.386 249.14C202.247 264.752 235.46 264.573 262.151 248.673L282.096 236.792C290.519 231.773 290.496 219.567 282.054 214.581L221.969 179.094Z" fill="#3744C4"/>
<mask id="mask0_8146_133601" style="mask-type:alpha" maskUnits="userSpaceOnUse" x="109" y="167" width="180" height="94">
<path d="M221.985 179.086C196.128 163.815 164.157 163.22 137.751 177.519L117.484 188.494C106.958 194.194 106.731 209.218 117.08 215.233L175.402 249.132C202.262 264.744 235.476 264.565 262.167 248.665L282.112 236.784C290.535 231.766 290.512 219.559 282.07 214.573L221.985 179.086Z" fill="#D9D9DE"/>
</mask>
<g mask="url(#mask0_8146_133601)">
<path d="M213.729 200.288C192.995 188.042 167.358 187.565 146.182 199.032L117.484 214.572C106.958 220.272 106.731 235.296 117.08 241.311L175.402 275.21C202.262 290.822 235.476 290.644 262.167 274.743L282.112 262.862C290.535 257.844 290.512 245.638 282.07 240.651L213.729 200.288Z" fill="#CBD1E9"/>
<path d="M178.401 192.711L269.445 245.734L265.525 253.557L207.152 270.073L124.82 222.7L178.401 192.711Z" fill="#77AA5F"/>
<path d="M264.219 247.481L178.402 197.5L132.662 224.012" stroke="white" stroke-width="0.806996" stroke-linecap="round" stroke-linejoin="round"/>
<path d="M228.93 227.051L184.061 253.562" stroke="white" stroke-width="0.806996" stroke-linecap="round" stroke-linejoin="round"/>
<path d="M148.765 233.129L177.516 215.31L162.705 206.617" stroke="white" stroke-width="0.806996" stroke-linecap="round" stroke-linejoin="round"/>
<path d="M157.062 210.086L160.547 212.259L143.558 222.69L139.637 220.082" stroke="white" stroke-width="0.806996" stroke-linecap="round" stroke-linejoin="round"/>
<path d="M170.551 219.672C171.132 221.266 171.423 224.54 167.939 226.627C164.454 228.713 159.226 228.656 156.613 228.366" stroke="white" stroke-width="0.806996" stroke-linecap="round" stroke-linejoin="round"/>
<ellipse cx="12.6329" cy="7.3885" rx="12.6329" ry="7.3885" transform="matrix(-1 0 0 1 211.938 237.051)" stroke="white" stroke-width="0.806996" stroke-linecap="round" stroke-linejoin="round"/>
<path d="M151.828 212.706L149.65 211.402L141.809 215.749L143.987 217.488" stroke="white" stroke-width="0.806996" stroke-linecap="round" stroke-linejoin="round"/>
</g>
<path d="M220 2.46027C221.341 2.08836 222.775 2.27023 223.98 2.96506L369.664 86.9593C375.238 90.173 378.673 96.1176 378.673 102.552V221.739C378.673 224.967 375.173 226.98 372.383 225.357L225.328 139.818C219.861 136.638 216.464 130.821 216.381 124.497L214.839 7.1297C214.814 5.22875 216.074 3.54975 217.905 3.04149L220 2.46027Z" fill="#A3A9E2"/>
<path d="M213.93 7.27688C213.93 4.04877 217.429 2.03575 220.22 3.65887L367.139 89.1191C372.679 92.3417 376.087 98.2674 376.087 104.677V223.91C376.087 227.138 372.587 229.151 369.797 227.528L222.878 142.068C217.338 138.845 213.93 132.92 213.93 126.51V7.27688Z" fill="#EDEFFF"/>
<path d="M213.93 7.27689C213.93 4.04878 217.429 2.03575 220.22 3.65886L367.139 89.1191C372.679 92.3417 376.087 98.2674 376.087 104.677V111.69L307.731 72.4357L213.93 17.5667V7.27689Z" fill="url(#paint1_linear_8146_133601)"/>
<path d="M221.25 37.5156L368.529 123.181" stroke="#A3A9E2" stroke-width="0.429566"/>
<path d="M221.25 55.9492L368.529 141.614" stroke="#A3A9E2" stroke-width="0.429566"/>
<path d="M221.25 74.6016L368.529 160.267" stroke="#A3A9E2" stroke-width="0.429566"/>
<path d="M221.25 93.25L368.529 178.915" stroke="#A3A9E2" stroke-width="0.429566"/>
<path d="M221.25 111.902L368.529 197.567" stroke="#A3A9E2" stroke-width="0.429566"/>
<path d="M221.25 130.555L368.529 216.22" stroke="#A3A9E2" stroke-width="0.429566"/>
<path d="M221.469 130.556V37.3008" stroke="#A3A9E2" stroke-width="0.429566"/>
<path d="M242.391 143.134V49.8789" stroke="#A3A9E2" stroke-width="0.429566"/>
<path d="M263.516 155.279V62.0234" stroke="#A3A9E2" stroke-width="0.429566"/>
<path d="M284.648 167.427V74.1719" stroke="#A3A9E2" stroke-width="0.429566"/>
<path d="M304.922 179.138V85.8828" stroke="#A3A9E2" stroke-width="0.429566"/>
<path d="M325.617 191.279V98.0234" stroke="#A3A9E2" stroke-width="0.429566"/>
<path d="M347.188 203.861V110.605" stroke="#A3A9E2" stroke-width="0.429566"/>
<path d="M368.312 216.435V123.18" stroke="#A3A9E2" stroke-width="0.429566"/>
<path d="M223.844 32.5312L240.016 41.8568V44.893L223.844 35.5675V32.5312Z" fill="white"/>
<path d="M245.406 45.1133L261.579 54.4388V57.4751L245.406 48.1495V45.1133Z" fill="white"/>
<path d="M266.539 56.8203L282.712 66.1459V69.1821L266.539 59.8565V56.8203Z" fill="white"/>
<path d="M287.68 69.3984L303.852 78.724V81.7602L287.68 72.4347V69.3984Z" fill="white"/>
<path d="M308.375 81.9805L324.548 91.306V94.3423L308.375 85.0167V81.9805Z" fill="white"/>
<path d="M329.078 93.2578L345.251 102.583V105.62L329.078 96.294V93.2578Z" fill="#3744C4"/>
<path d="M350.203 105.828L366.376 115.154V118.19L350.203 108.864V105.828Z" fill="#3744C4"/>
<path d="M373.985 166.045L349.062 151.562V159.082L373.985 173.565L369.831 166.88L373.985 166.045Z" fill="url(#paint2_linear_8146_133601)"/>
<path d="M386.462 158.248L361.539 143.766V151.285L386.462 165.768L382.308 159.084L386.462 158.248Z" fill="url(#paint3_linear_8146_133601)"/>
<path d="M245.414 74.1719L302.144 107.3V110.73L245.414 77.6019V74.1719Z" fill="#C5CAFF"/>
<path d="M311.391 157.016L345.245 176.357V179.787L311.391 160.446V157.016Z" fill="#C5CAFF"/>
<path d="M245.414 80.7266L265.585 92.3V95.73L245.414 84.1566V80.7266Z" fill="#C5CAFF"/>
<path d="M311.391 150.078L331.561 161.652V165.082L311.391 153.508V150.078Z" fill="#C5CAFF"/>
<path d="M218.242 49.8828L239.806 62.6391V85.8838L218.242 73.1275V49.8828Z" fill="url(#paint4_linear_8146_133601)"/>
<path d="M282.07 124.926L303.634 137.682V160.927L282.07 148.17V124.926Z" fill="url(#paint5_linear_8146_133601)"/>
<path d="M268.094 94.25L279.23 100.801V104.231L268.094 97.68V94.25Z" fill="#C5CAFF"/>
<path d="M334.102 163.609L345.237 170.16V173.59L334.102 167.039V163.609Z" fill="#C5CAFF"/>
<path d="M51.5002 0.652795C52.3738 0.412461 53.3071 0.530157 54.0937 0.979838L149.435 55.4872C153.114 57.5904 155.384 61.5031 155.384 65.7406V142.992C155.384 145.106 153.096 146.427 151.265 145.371L55.0306 89.8632C51.4223 87.7819 49.1772 83.9539 49.122 79.7888L48.114 3.71391C48.0975 2.46414 48.9268 1.36078 50.1319 1.02924L51.5002 0.652795Z" fill="#A3A9E2"/>
<path d="M46.5859 4.75513C46.5859 2.64124 48.8739 1.31967 50.705 2.37587L146.849 57.8318C150.506 59.9409 152.759 63.8413 152.759 68.0626V145.344C152.759 147.458 150.471 148.779 148.64 147.723L52.4955 92.2673C48.8389 90.1581 46.5859 86.2578 46.5859 82.0364V4.75513Z" fill="#EDEFFF"/>
<path d="M80.0781 45.2422L133.213 76.0102V79.1959L80.0781 48.4279V45.2422Z" fill="#C5CAFF"/>
<path d="M80.2188 63.7969L133.354 94.5649V97.7506L80.2188 66.9826V63.7969Z" fill="#C5CAFF"/>
<path d="M79.2656 69.4688L132.4 100.237V103.422L79.2656 72.6544V69.4688Z" fill="#C5CAFF"/>
<path d="M79.2656 76.082L132.4 106.85V110.036L79.2656 79.2677V76.082Z" fill="#C5CAFF"/>
<path d="M80.0781 51.3281L98.9705 62.0772V65.2629L80.0781 54.5138V51.3281Z" fill="#C5CAFF"/>
<path d="M101.328 63.8906L111.758 69.9748V73.1605L101.328 67.0763V63.8906Z" fill="#C5CAFF"/>
<path d="M53.8052 48.1077C52.9792 50.064 53.2029 55.444 53.418 57.8894L73.9378 69.473C74.1098 66.384 74.3507 58.3012 73.9378 55.3153C73.4216 51.5828 73.1634 51.4541 70.5823 49.5235C68.0012 47.5929 62.1938 44.5039 59.0964 44.5039C55.9991 44.5039 54.8376 45.6623 53.8052 48.1077Z" fill="url(#paint6_linear_8146_133601)"/>
<path d="M60.3926 45.918C60.0485 46.5615 59.4634 48.2089 59.8764 49.6505C60.3926 51.4524 63.8771 51.1949 65.4258 50.4227C66.4582 49.9079 67.8778 48.7924 68.3941 48.106" stroke="white" stroke-width="0.473052"/>
<path d="M55.9927 35.2387C56.1992 36.2684 58.7459 36.0968 59.9935 35.8823L62.1873 37.6837L62.8326 40.5152L65.6718 44.2477C66.059 44.3764 67.0398 44.5566 67.8658 44.2477C68.8982 43.8616 69.4144 42.4458 69.9307 41.1588C70.4469 39.8717 71.0922 37.2976 71.0922 35.2387C71.0922 33.1799 69.8016 30.2192 66.8333 29.5757C63.8651 28.9321 61.155 29.4469 58.832 30.9914C56.509 32.5359 55.7346 33.9517 55.9927 35.2387Z" fill="#333333"/>
<path d="M57.5562 41.9277C57.1432 39.6625 57.3841 36.7794 57.5562 35.6211C57.9433 35.4495 59.1822 35.132 61.0406 35.235C63.3636 35.3637 65.5575 38.3239 66.2028 39.0961C66.8481 39.8684 67.2353 38.3239 68.1386 38.3239C69.042 38.3239 69.4292 39.0961 69.1711 40.1258C68.913 41.1555 67.8805 42.4425 67.2353 43.8583C66.719 44.9909 66.762 46.9043 66.8481 47.7195C66.762 47.9769 66.3835 48.5689 65.5575 48.8778C64.5251 49.264 63.6217 49.3927 62.4602 49.3927C61.531 49.3927 60.8685 48.792 60.6534 48.4917L61.0406 46.0463C60.6965 45.9605 59.9049 45.7117 59.4919 45.4028C58.9757 45.0166 58.0724 44.7592 57.5562 41.9277Z" fill="#FFF4E6"/>
<path d="M22.0149 69.3186L32.0278 101.939L22.0157 95.7737L12.0028 63.1537L22.0149 69.3186Z" fill="#17228E"/>
<path d="M22.0062 69.3153L32.0191 101.935L32.703 100.805L22.6902 68.1851L22.0062 69.3153Z" fill="#131D75"/>
<rect width="1.24759" height="11.7579" transform="matrix(-0.532833 0.846221 -0.851522 -0.524319 22.6797 68.2617)" fill="#A3A9E2"/>
<path d="M38.9572 115.022C43.1704 123.276 42.6265 131.944 37.7423 134.382C35.2954 135.603 31.7558 137.334 31.7558 137.334C27.5102 131.372 18.2795 111.718 16.177 107.599C16.177 107.599 17.6007 106.928 22.4849 104.49C27.3691 102.052 34.744 106.767 38.9572 115.022Z" fill="#D9BC57"/>
<ellipse cx="9.8841" cy="16.7803" rx="9.8841" ry="16.7803" transform="matrix(0.894736 -0.446596 0.454622 0.890684 8.14844 111.57)" fill="#FFDD64"/>
<g style="mix-blend-mode:multiply">
<ellipse cx="7.66153" cy="12.6086" rx="7.66153" ry="12.6086" transform="matrix(0.894736 -0.446596 0.454622 0.890684 12.1484 114.238)" fill="#D9D9DE"/>
</g>
<ellipse cx="6.32515" cy="12.6086" rx="6.32515" ry="12.6086" transform="matrix(0.894736 -0.446596 0.454622 0.890684 14.5312 113.043)" fill="#FFDD64"/>
<rect x="23.7812" y="95.7734" width="1.44912" height="9.31459" fill="#FFDD64"/>
<rect x="28.8672" y="98.6406" width="1.44912" height="9.31459" fill="#FFDD64"/>
<path d="M43.9453 81.519L32.0305 101.94L22.0184 95.7746L33.9332 75.3541L43.9453 81.519Z" fill="#3744C4"/>
<rect width="1.24759" height="11.7579" transform="matrix(-0.532833 0.846221 -0.851522 -0.524319 44.6016 80.4414)" fill="#A3A9E2"/>
<defs>
<linearGradient id="paint0_linear_8146_133601" x1="101.748" y1="275.281" x2="245.658" y2="275.281" gradientUnits="userSpaceOnUse">
<stop offset="0.046875" stop-color="#8097CD"/>
<stop offset="1" stop-color="#8097CD" stop-opacity="0"/>
</linearGradient>
<linearGradient id="paint1_linear_8146_133601" x1="212.217" y1="9.29903e-07" x2="387.967" y2="67.2842" gradientUnits="userSpaceOnUse">
<stop stop-color="#6D7AFA"/>
<stop offset="0.567708" stop-color="#3744C4"/>
</linearGradient>
<linearGradient id="paint2_linear_8146_133601" x1="343.044" y1="145.091" x2="379.284" y2="163.829" gradientUnits="userSpaceOnUse">
<stop stop-color="#FFAE75"/>
<stop offset="0.349821" stop-color="#FF9500"/>
<stop offset="0.792547" stop-color="#FB620D"/>
<stop offset="1" stop-color="#FA6613"/>
</linearGradient>
<linearGradient id="paint3_linear_8146_133601" x1="361.276" y1="143.766" x2="389.71" y2="152.259" gradientUnits="userSpaceOnUse">
<stop stop-color="#6D7AFA"/>
<stop offset="0.567708" stop-color="#3744C4"/>
</linearGradient>
<linearGradient id="paint4_linear_8146_133601" x1="218.014" y1="49.8828" x2="244.159" y2="54.0121" gradientUnits="userSpaceOnUse">
<stop stop-color="#6D7AFA"/>
<stop offset="0.567708" stop-color="#3744C4"/>
</linearGradient>
<linearGradient id="paint5_linear_8146_133601" x1="276.863" y1="114.337" x2="313.837" y2="124.446" gradientUnits="userSpaceOnUse">
<stop stop-color="#FFAE75"/>
<stop offset="0.349821" stop-color="#FF9500"/>
<stop offset="0.792547" stop-color="#FB620D"/>
<stop offset="1" stop-color="#FA6613"/>
</linearGradient>
<linearGradient id="paint6_linear_8146_133601" x1="52.9975" y1="44.5039" x2="77.8135" y2="49.9936" gradientUnits="userSpaceOnUse">
<stop stop-color="#6D7AFA"/>
<stop offset="0.567708" stop-color="#3744C4"/>
</linearGradient>
</defs>
</svg>
