<svg width="637" height="418" viewBox="0 0 637 418" fill="none" xmlns="http://www.w3.org/2000/svg">
<path d="M547.947 249.951C563.464 240.686 582.723 240.314 598.587 248.972L613.763 257.255C623.607 262.628 623.845 276.679 614.189 282.383L578.378 303.538C570.658 308.099 561.873 310.546 552.907 310.634L521.229 310.945C517.645 310.98 514.218 309.478 511.815 306.819L502.906 296.964C496.794 290.201 498.392 279.538 506.219 274.865L547.947 249.951Z" fill="#2C3484"/>
<path d="M472.823 284.951V268.654C472.823 267.575 473.495 266.61 474.508 266.236L536.766 243.237C537.165 243.09 537.595 243.044 538.017 243.103L586.7 249.927C587.973 250.106 588.919 251.192 588.919 252.477V271.675C588.919 275.337 584.182 280.025 581.934 281.551C571.256 287.813 550.863 300.338 543.155 304.192C536.208 307.666 530.63 310.695 519.31 310.695C508.404 310.695 502.449 308.769 498.836 306.601C496.802 305.38 480.772 296.244 476.436 292.871C473.126 290.296 472.624 286.931 472.795 285.374C472.81 285.233 472.823 285.093 472.823 284.951Z" fill="#EDEFFF"/>
<path d="M472.823 284.952V268.655C472.823 267.576 473.495 266.611 474.508 266.237L536.766 243.238C537.165 243.091 537.595 243.045 538.017 243.104L586.7 249.928C587.973 250.107 588.919 251.193 588.919 252.478V271.676C588.919 275.338 584.182 280.026 581.934 281.552C571.256 287.814 550.863 300.339 543.155 304.193C536.208 307.667 530.63 310.696 519.31 310.696C508.404 310.696 502.449 308.769 498.836 306.602C496.802 305.381 480.772 296.245 476.436 292.872C473.126 290.297 472.624 286.932 472.795 285.375C472.81 285.234 472.823 285.093 472.823 284.952Z" fill="url(#paint0_linear_3988_13324)"/>
<path d="M515.947 231.951C531.464 222.686 550.723 222.314 566.587 230.972L581.701 239.222C591.559 244.602 591.781 258.678 582.099 264.367L544.898 286.225C528.822 295.671 508.874 295.603 492.862 286.048L479.884 278.302C470.491 272.697 470.489 259.092 479.881 253.484L515.947 231.951Z" fill="#EDEFFF"/>
<path d="M515.733 237.05C531.189 227.901 550.316 227.544 566.103 236.112L574.373 240.601C580.646 244.006 580.782 252.961 574.615 256.554L545.326 273.617C529.27 282.971 509.399 282.864 493.444 273.337L485.154 268.388C480.135 265.391 480.149 258.115 485.179 255.137L515.733 237.05Z" fill="#3744C4"/>
<mask id="mask0_3988_13324" style="mask-type:alpha" maskUnits="userSpaceOnUse" x="481" y="229" width="99" height="52">
<path d="M515.733 237.05C531.189 227.901 550.316 227.544 566.103 236.112L574.373 240.601C580.646 244.006 580.782 252.961 574.615 256.554L545.326 273.617C529.27 282.971 509.399 282.864 493.444 273.337L485.154 268.388C480.135 265.391 480.149 258.115 485.179 255.137L515.733 237.05Z" fill="#D9D9DE"/>
</mask>
<g mask="url(#mask0_3988_13324)">
<path d="M520.669 248.58C533.064 241.243 548.402 240.957 561.061 247.828L574.373 255.053C580.646 258.458 580.782 267.414 574.615 271.006L545.326 288.069C529.27 297.423 509.399 297.316 493.444 287.789L485.154 282.84C480.135 279.843 480.149 272.567 485.179 269.589L520.669 248.58Z" fill="#CBD1E9"/>
<path d="M541.708 243.495L491.367 272.88L493.535 277.216L525.811 286.369L571.334 260.115L541.708 243.495Z" fill="#77AA5F"/>
<path d="M494.258 273.844L541.708 246.145L566.999 260.837" stroke="white" stroke-width="0.481728" stroke-linecap="round" stroke-linejoin="round"/>
<path d="M513.766 262.523L538.575 277.216" stroke="white" stroke-width="0.481728" stroke-linecap="round" stroke-linejoin="round"/>
<path d="M558.085 265.896L542.188 256.02L550.377 251.203" stroke="white" stroke-width="0.481728" stroke-linecap="round" stroke-linejoin="round"/>
<path d="M553.505 253.13L551.578 254.334L560.972 260.115L563.14 258.67" stroke="white" stroke-width="0.481728" stroke-linecap="round" stroke-linejoin="round"/>
<path d="M546.04 258.429C545.719 259.312 545.558 261.126 547.485 262.283C549.412 263.439 552.302 263.407 553.747 263.246" stroke="white" stroke-width="0.481728" stroke-linecap="round" stroke-linejoin="round"/>
<ellipse cx="530.141" cy="272.158" rx="6.98505" ry="4.09468" stroke="white" stroke-width="0.481728" stroke-linecap="round" stroke-linejoin="round"/>
<path d="M556.406 254.575L557.611 253.853L561.946 256.261L560.742 257.225" stroke="white" stroke-width="0.481728" stroke-linecap="round" stroke-linejoin="round"/>
</g>
<path d="M267.5 214L123.997 122.584C115.232 117.001 109.926 107.328 109.926 96.9365V84.3145C109.926 77.3442 105.913 70.9965 99.6172 68.0059V68.0059" stroke="#C5CAFF" stroke-width="2.57709" stroke-linecap="round" stroke-linejoin="round"/>
<path d="M258.998 218L118.396 126.989C109.739 121.384 104.511 111.774 104.511 101.46V89.8499C104.511 82.1131 100.252 75.0046 93.4297 71.3555V71.3555" stroke="#C5CAFF" stroke-width="2.57709" stroke-linecap="round" stroke-linejoin="round"/>
<path d="M490.485 90.37C490.915 89.1224 492.089 88.2852 493.409 88.2852H537.994C538.565 88.2852 539.125 88.4431 539.611 88.7416L576.808 111.56C578.781 112.771 578.773 115.641 576.793 116.841L537.041 140.926C536.558 141.218 536.004 141.373 535.439 141.373H477.243C475.119 141.373 473.627 139.281 474.319 137.273L490.485 90.37Z" fill="#444CA9"/>
<path d="M437.578 120.384C436.794 119.92 436.312 119.077 436.312 118.166V112.914C436.312 112.516 436.635 112.193 437.033 112.193H508.339C508.737 112.193 509.059 112.516 509.059 112.914V118.181C509.059 119.084 508.587 119.921 507.814 120.387L474.377 140.568C473.566 141.058 472.55 141.063 471.734 140.58L437.578 120.384Z" fill="#3744C4"/>
<path d="M437.578 118.124C436.794 117.66 436.312 116.817 436.312 115.905V92.6138C436.312 92.216 436.635 91.8936 437.033 91.8936H508.339C508.737 91.8936 509.059 92.216 509.059 92.6138V115.921C509.059 116.824 508.587 117.661 507.814 118.127L474.377 138.308C473.566 138.798 472.55 138.803 471.734 138.32L437.578 118.124Z" fill="#EDEFFF"/>
<path d="M437.578 118.124C436.794 117.66 436.312 116.817 436.312 115.905V92.6138C436.312 92.216 436.635 91.8936 437.033 91.8936H508.339C508.737 91.8936 509.059 92.216 509.059 92.6138V115.921C509.059 116.824 508.587 117.661 507.814 118.127L474.377 138.308C473.566 138.798 472.55 138.803 471.734 138.32L437.578 118.124Z" fill="url(#paint1_linear_3988_13324)"/>
<g style="mix-blend-mode:multiply">
<ellipse cx="492.63" cy="113.532" rx="1.54625" ry="2.06167" transform="rotate(16.9026 492.63 113.532)" fill="#D9D9DE"/>
</g>
<g style="mix-blend-mode:multiply">
<ellipse cx="498.318" cy="109.769" rx="1.54625" ry="2.06167" transform="rotate(16.9026 498.318 109.769)" fill="#D9D9DE"/>
</g>
<g style="mix-blend-mode:multiply">
<ellipse cx="503.474" cy="106.676" rx="1.54625" ry="2.06167" transform="rotate(16.9026 503.474 106.676)" fill="#D9D9DE"/>
</g>
<g style="mix-blend-mode:multiply">
<path d="M437.984 103.081C437.984 102.685 438.412 102.437 438.756 102.633L444.941 106.167C445.101 106.259 445.2 106.43 445.2 106.615V108.52C445.2 108.916 444.773 109.164 444.429 108.968L438.244 105.433C438.083 105.342 437.984 105.171 437.984 104.986V103.081Z" fill="#D9D9DE"/>
</g>
<g style="mix-blend-mode:multiply">
<path d="M447.258 108.234C447.258 107.838 447.685 107.59 448.029 107.786L454.214 111.321C454.375 111.412 454.474 111.583 454.474 111.768V113.673C454.474 114.069 454.046 114.317 453.703 114.121L447.518 110.587C447.357 110.495 447.258 110.324 447.258 110.139V108.234Z" fill="#D9D9DE"/>
</g>
<path d="M437.578 97.1896C436.794 96.7258 436.312 95.8824 436.312 94.9713V89.7193C436.312 89.3215 436.635 88.999 437.033 88.999H508.339C508.737 88.999 509.059 89.3215 509.059 89.7193V94.9867C509.059 95.8895 508.587 96.7265 507.814 97.193L474.377 117.374C473.566 117.864 472.55 117.869 471.734 117.386L437.578 97.1896Z" fill="#3744C4"/>
<path d="M437.578 94.9294C436.794 94.4656 436.312 93.6222 436.312 92.7111V69.4195C436.312 69.0217 436.635 68.6992 437.033 68.6992H508.339C508.737 68.6992 509.059 69.0217 509.059 69.4195V92.7265C509.059 93.6293 508.587 94.4663 507.814 94.9328L474.377 115.114C473.566 115.604 472.55 115.609 471.734 115.126L437.578 94.9294Z" fill="#EDEFFF"/>
<path d="M437.578 94.9294C436.794 94.4656 436.312 93.6222 436.312 92.7111V69.4195C436.312 69.0217 436.635 68.6992 437.033 68.6992H508.339C508.737 68.6992 509.059 69.0217 509.059 69.4195V92.7265C509.059 93.6293 508.587 94.4663 507.814 94.9328L474.377 115.114C473.566 115.604 472.55 115.609 471.734 115.126L437.578 94.9294Z" fill="url(#paint2_linear_3988_13324)"/>
<g style="mix-blend-mode:multiply">
<ellipse cx="492.63" cy="90.3362" rx="1.54625" ry="2.06167" transform="rotate(16.9026 492.63 90.3362)" fill="#D9D9DE"/>
</g>
<g style="mix-blend-mode:multiply">
<ellipse cx="498.318" cy="86.5745" rx="1.54625" ry="2.06167" transform="rotate(16.9026 498.318 86.5745)" fill="#D9D9DE"/>
</g>
<g style="mix-blend-mode:multiply">
<ellipse cx="503.474" cy="83.4818" rx="1.54625" ry="2.06167" transform="rotate(16.9026 503.474 83.4818)" fill="#D9D9DE"/>
</g>
<g style="mix-blend-mode:multiply">
<path d="M437.984 79.8862C437.984 79.4905 438.412 79.2423 438.756 79.4387L444.941 82.973C445.101 83.0648 445.2 83.2355 445.2 83.4205V85.3257C445.2 85.7215 444.773 85.9696 444.429 85.7733L438.244 82.239C438.083 82.1472 437.984 81.9764 437.984 81.7914V79.8862Z" fill="#D9D9DE"/>
</g>
<g style="mix-blend-mode:multiply">
<path d="M447.258 85.0405C447.258 84.6448 447.685 84.3966 448.029 84.593L454.214 88.1273C454.375 88.2191 454.474 88.3898 454.474 88.5748V90.48C454.474 90.8758 454.046 91.1239 453.703 90.9275L447.518 87.3933C447.357 87.3015 447.258 87.1307 447.258 86.9457V85.0405Z" fill="#D9D9DE"/>
</g>
<path d="M437.453 74.5216C436.669 74.0578 436.188 73.2144 436.188 72.3033V67.0513C436.188 66.6535 436.51 66.3311 436.908 66.3311H508.214C508.612 66.3311 508.934 66.6535 508.934 67.0513V72.3187C508.934 73.2215 508.462 74.0585 507.689 74.5251L474.252 94.7062C473.441 95.1962 472.425 95.2007 471.609 94.7181L437.453 74.5216Z" fill="#3744C4"/>
<path d="M437.453 72.2614C436.669 71.7977 436.188 70.9543 436.188 70.0431V46.7515C436.188 46.3537 436.51 46.0312 436.908 46.0312H508.214C508.612 46.0312 508.934 46.3537 508.934 46.7515V70.0585C508.934 70.9614 508.462 71.7984 507.689 72.2649L474.252 92.446C473.441 92.936 472.425 92.9406 471.609 92.4579L437.453 72.2614Z" fill="#EDEFFF"/>
<path d="M437.453 72.2614C436.669 71.7977 436.188 70.9543 436.188 70.0431V46.7515C436.188 46.3537 436.51 46.0312 436.908 46.0312H508.214C508.612 46.0312 508.934 46.3537 508.934 46.7515V70.0585C508.934 70.9614 508.462 71.7984 507.689 72.2649L474.252 92.446C473.441 92.936 472.425 92.9406 471.609 92.4579L437.453 72.2614Z" fill="url(#paint3_linear_3988_13324)"/>
<g style="mix-blend-mode:multiply">
<ellipse cx="492.505" cy="67.6683" rx="1.54625" ry="2.06167" transform="rotate(16.9026 492.505 67.6683)" fill="#D9D9DE"/>
</g>
<g style="mix-blend-mode:multiply">
<ellipse cx="498.193" cy="63.9066" rx="1.54625" ry="2.06167" transform="rotate(16.9026 498.193 63.9066)" fill="#D9D9DE"/>
</g>
<g style="mix-blend-mode:multiply">
<ellipse cx="503.349" cy="60.8138" rx="1.54625" ry="2.06167" transform="rotate(16.9026 503.349 60.8138)" fill="#D9D9DE"/>
</g>
<g style="mix-blend-mode:multiply">
<path d="M437.852 57.2182C437.852 56.8225 438.279 56.5744 438.623 56.7707L444.808 60.305C444.968 60.3968 445.067 60.5676 445.067 60.7525V62.6578C445.067 63.0535 444.64 63.3016 444.296 63.1053L438.111 59.571C437.951 59.4792 437.852 59.3084 437.852 59.1235V57.2182Z" fill="#D9D9DE"/>
</g>
<g style="mix-blend-mode:multiply">
<path d="M447.133 62.3725C447.133 61.9768 447.56 61.7287 447.904 61.925L454.089 65.4593C454.25 65.5511 454.349 65.7219 454.349 65.9068V67.8121C454.349 68.2078 453.921 68.4559 453.578 68.2596L447.393 64.7253C447.232 64.6335 447.133 64.4627 447.133 64.2778V62.3725Z" fill="#D9D9DE"/>
</g>
<path d="M437.453 51.8419C436.669 51.3782 436.188 50.5347 436.188 49.6236V44.3716C436.188 43.9738 436.51 43.6514 436.908 43.6514H508.214C508.612 43.6514 508.934 43.9738 508.934 44.3716V49.639C508.934 50.5418 508.462 51.3788 507.689 51.8454L474.252 72.0265C473.441 72.5165 472.425 72.5211 471.609 72.0384L437.453 51.8419Z" fill="#3744C4"/>
<path d="M437.453 49.5817C436.669 49.118 436.188 48.2746 436.188 47.3634V24.0718C436.188 23.674 436.51 23.3516 436.908 23.3516H508.214C508.612 23.3516 508.934 23.674 508.934 24.0718V47.3788C508.934 48.2817 508.462 49.1187 507.689 49.5852L474.252 69.7663C473.441 70.2563 472.425 70.2609 471.609 69.7783L437.453 49.5817Z" fill="#EDEFFF"/>
<path d="M437.453 49.5817C436.669 49.118 436.188 48.2746 436.188 47.3634V24.0718C436.188 23.674 436.51 23.3516 436.908 23.3516H508.214C508.612 23.3516 508.934 23.674 508.934 24.0718V47.3788C508.934 48.2817 508.462 49.1187 507.689 49.5852L474.252 69.7663C473.441 70.2563 472.425 70.2609 471.609 69.7783L437.453 49.5817Z" fill="url(#paint4_linear_3988_13324)"/>
<g style="mix-blend-mode:multiply">
<ellipse cx="492.505" cy="44.9886" rx="1.54625" ry="2.06167" transform="rotate(16.9026 492.505 44.9886)" fill="#D9D9DE"/>
</g>
<g style="mix-blend-mode:multiply">
<ellipse cx="498.193" cy="41.2269" rx="1.54625" ry="2.06167" transform="rotate(16.9026 498.193 41.2269)" fill="#D9D9DE"/>
</g>
<g style="mix-blend-mode:multiply">
<ellipse cx="503.349" cy="38.1341" rx="1.54625" ry="2.06167" transform="rotate(16.9026 503.349 38.1341)" fill="#D9D9DE"/>
</g>
<g style="mix-blend-mode:multiply">
<path d="M437.852 34.5385C437.852 34.1428 438.279 33.8947 438.623 34.091L444.808 37.6253C444.968 37.7171 445.067 37.8879 445.067 38.0728V39.9781C445.067 40.3738 444.64 40.6219 444.296 40.4256L438.111 36.8913C437.951 36.7995 437.852 36.6288 437.852 36.4438V34.5385Z" fill="#D9D9DE"/>
</g>
<g style="mix-blend-mode:multiply">
<path d="M447.133 39.6928C447.133 39.2971 447.56 39.049 447.904 39.2453L454.089 42.7796C454.25 42.8714 454.349 43.0422 454.349 43.2271V45.1324C454.349 45.5281 453.921 45.7762 453.578 45.5799L447.393 42.0456C447.232 41.9538 447.133 41.783 447.133 41.5981V39.6928Z" fill="#D9D9DE"/>
</g>
<path d="M437.634 29.5269C435.262 28.1287 435.267 24.6963 437.643 23.3054L470.952 3.80388C472.088 3.13884 473.496 3.14517 474.626 3.8204L507.258 23.3218C509.597 24.7194 509.602 28.1054 507.268 29.5102L474.636 49.148C473.501 49.8308 472.084 49.8372 470.943 49.1647L437.634 29.5269Z" fill="#3744C4"/>
<path d="M437.634 27.4654C435.262 26.0672 435.267 22.6348 437.643 21.2438L470.952 1.74235C472.088 1.07731 473.496 1.08365 474.626 1.75888L507.258 21.2603C509.597 22.6579 509.602 26.0439 507.268 27.4486L474.636 47.0865C473.501 47.7693 472.084 47.7757 470.943 47.1032L437.634 27.4654Z" fill="url(#paint5_linear_3988_13324)"/>
<path d="M156.438 294.968L450.741 127.199" stroke="#C5CAFF" stroke-width="2.57709" stroke-linecap="round" stroke-linejoin="round"/>
<path d="M161.586 298.576L455.89 130.292" stroke="#C5CAFF" stroke-width="2.57709" stroke-linecap="round" stroke-linejoin="round"/>
<path d="M323 274.311L416.951 329.28C427.092 335.213 439.744 334.774 449.449 328.151L493.603 298.02" stroke="#C5CAFF" stroke-width="2.57709" stroke-linecap="round" stroke-linejoin="round"/>
<path d="M330.734 269.156L416.334 319.596C426.365 325.507 438.891 325.171 448.591 318.731L487.164 293.123" stroke="#C5CAFF" stroke-width="2.57709" stroke-linecap="round" stroke-linejoin="round"/>
<path opacity="0.5" d="M99.1179 85H75.1651C72.5887 85 70.5 82.9113 70.5 80.3349V31.1651C70.5 28.5887 72.5887 26.5 75.1651 26.5H99.0814C99.9134 26.5 100.73 26.7225 101.447 27.1445L143.947 52.1542C147.039 53.9734 147.006 58.4557 143.888 60.2296L101.425 84.3896C100.722 84.7897 99.9268 85 99.1179 85Z" fill="#5C62BA"/>
<path d="M27.8986 57.0396C24.8296 55.2456 24.8363 50.8079 27.9108 49.0231L72.0585 23.3951C73.5115 22.5517 75.3069 22.5597 76.7521 23.4161L120.002 49.0441C123.029 50.8375 123.036 55.2157 120.015 57.0184L76.7642 82.8256C75.3129 83.6916 73.5053 83.6998 72.0463 82.8468L27.8986 57.0396Z" fill="white" stroke="#E5E5EB" stroke-width="1.03084"/>
<g style="mix-blend-mode:multiply" filter="url(#filter0_f_3988_13324)">
<path d="M56.592 58.3195C54.9337 57.3625 54.861 54.9954 56.4575 53.9385L85.1189 34.965C85.9533 34.4126 87.0321 34.3932 87.8859 34.9153L114.105 50.9489C115.742 51.9497 115.75 54.324 114.121 55.3365L92.9952 68.4623C92.5869 68.716 92.1159 68.8504 91.6352 68.8504H75.5316C75.0795 68.8504 74.6352 68.7314 74.2436 68.5054L56.592 58.3195Z" fill="#E6EAF3"/>
</g>
<path d="M49.1013 54.0495C48.3171 53.5858 47.8359 52.7423 47.8359 51.8312V48.491C47.8359 48.2063 48.0667 47.9756 48.3514 47.9756H99.3778C99.6624 47.9756 99.8932 48.2063 99.8932 48.491V51.8466C99.8932 52.7494 99.4207 53.5864 98.6478 54.053L75.4499 68.0545C74.6381 68.5444 73.6228 68.549 72.8065 68.0664L49.1013 54.0495Z" fill="#EDEFFF"/>
<path d="M49.1013 54.0495C48.3171 53.5858 47.8359 52.7423 47.8359 51.8312V48.491C47.8359 48.2063 48.0667 47.9756 48.3514 47.9756H99.3778C99.6624 47.9756 99.8932 48.2063 99.8932 48.491V51.8466C99.8932 52.7494 99.4207 53.5864 98.6478 54.053L75.4499 68.0545C74.6381 68.5444 73.6228 68.549 72.8065 68.0664L49.1013 54.0495Z" fill="url(#paint6_linear_3988_13324)"/>
<path d="M49.1013 50.9567C48.3171 50.493 47.8359 49.6496 47.8359 48.7384V45.3982C47.8359 45.1136 48.0667 44.8828 48.3514 44.8828H99.3778C99.6624 44.8828 99.8932 45.1136 99.8932 45.3982V48.7538C99.8932 49.6567 99.4207 50.4937 98.6478 50.9602L75.4499 64.9617C74.6381 65.4517 73.6228 65.4563 72.8065 64.9736L49.1013 50.9567Z" fill="#3744C4"/>
<g style="mix-blend-mode:multiply">
<path d="M49.1013 50.9567C48.3171 50.493 47.8359 49.6496 47.8359 48.7384V45.3982C47.8359 45.1136 48.0667 44.8828 48.3514 44.8828H99.3778C99.6624 44.8828 99.8932 45.1136 99.8932 45.3982V48.7538C99.8932 49.6567 99.4207 50.4937 98.6478 50.9602L75.4499 64.9617C74.6381 65.4517 73.6228 65.4563 72.8065 64.9736L49.1013 50.9567Z" fill="url(#paint7_linear_3988_13324)"/>
</g>
<path d="M49.1013 47.8649C48.3171 47.4012 47.8359 46.5578 47.8359 45.6466V42.3064C47.8359 42.0218 48.0667 41.791 48.3514 41.791H99.3778C99.6624 41.791 99.8932 42.0218 99.8932 42.3064V45.662C99.8932 46.5649 99.4207 47.4019 98.6478 47.8684L75.4499 61.8699C74.6381 62.3599 73.6228 62.3645 72.8065 61.8818L49.1013 47.8649Z" fill="#EDEFFF"/>
<path d="M49.1013 47.8649C48.3171 47.4012 47.8359 46.5578 47.8359 45.6466V42.3064C47.8359 42.0218 48.0667 41.791 48.3514 41.791H99.3778C99.6624 41.791 99.8932 42.0218 99.8932 42.3064V45.662C99.8932 46.5649 99.4207 47.4019 98.6478 47.8684L75.4499 61.8699C74.6381 62.3599 73.6228 62.3645 72.8065 61.8818L49.1013 47.8649Z" fill="url(#paint8_linear_3988_13324)"/>
<path d="M49.1013 44.7722C48.3171 44.3084 47.8359 43.465 47.8359 42.5539V39.2137C47.8359 38.929 48.0667 38.6982 48.3514 38.6982H99.3778C99.6624 38.6982 99.8932 38.929 99.8932 39.2137V42.5693C99.8932 43.4721 99.4207 44.3091 98.6478 44.7756L75.4499 58.7771C74.6381 59.2671 73.6228 59.2717 72.8065 58.7891L49.1013 44.7722Z" fill="#3744C4"/>
<g style="mix-blend-mode:multiply">
<path d="M49.1013 44.7722C48.3171 44.3084 47.8359 43.465 47.8359 42.5539V39.2137C47.8359 38.929 48.0667 38.6982 48.3514 38.6982H99.3778C99.6624 38.6982 99.8932 38.929 99.8932 39.2137V42.5693C99.8932 43.4721 99.4207 44.3091 98.6478 44.7756L75.4499 58.7771C74.6381 59.2671 73.6228 59.2717 72.8065 58.7891L49.1013 44.7722Z" fill="url(#paint9_linear_3988_13324)"/>
</g>
<path d="M49.1013 41.6794C48.3171 41.2156 47.8359 40.3722 47.8359 39.4611V36.1209C47.8359 35.8362 48.0667 35.6055 48.3514 35.6055H99.3778C99.6624 35.6055 99.8932 35.8362 99.8932 36.1209V39.4765C99.8932 40.3793 99.4207 41.2163 98.6478 41.6828L75.4499 55.6843C74.6381 56.1743 73.6228 56.1789 72.8065 55.6963L49.1013 41.6794Z" fill="#EDEFFF"/>
<path d="M49.1013 41.6794C48.3171 41.2156 47.8359 40.3722 47.8359 39.4611V36.1209C47.8359 35.8362 48.0667 35.6055 48.3514 35.6055H99.3778C99.6624 35.6055 99.8932 35.8362 99.8932 36.1209V39.4765C99.8932 40.3793 99.4207 41.2163 98.6478 41.6828L75.4499 55.6843C74.6381 56.1743 73.6228 56.1789 72.8065 55.6963L49.1013 41.6794Z" fill="url(#paint10_linear_3988_13324)"/>
<path d="M49.1013 38.5856C48.3171 38.1219 47.8359 37.2785 47.8359 36.3673V33.0271C47.8359 32.7425 48.0667 32.5117 48.3514 32.5117H99.3778C99.6624 32.5117 99.8932 32.7425 99.8932 33.0271V36.3827C99.8932 37.2856 99.4207 38.1226 98.6478 38.5891L75.4499 52.5906C74.6381 53.0806 73.6228 53.0852 72.8065 52.6025L49.1013 38.5856Z" fill="#3744C4"/>
<g style="mix-blend-mode:multiply">
<path d="M49.1013 38.5856C48.3171 38.1219 47.8359 37.2785 47.8359 36.3673V33.0271C47.8359 32.7425 48.0667 32.5117 48.3514 32.5117H99.3778C99.6624 32.5117 99.8932 32.7425 99.8932 33.0271V36.3827C99.8932 37.2856 99.4207 38.1226 98.6478 38.5891L75.4499 52.5906C74.6381 53.0806 73.6228 53.0852 72.8065 52.6025L49.1013 38.5856Z" fill="url(#paint11_linear_3988_13324)"/>
</g>
<path d="M49.1013 35.4938C48.3171 35.0301 47.8359 34.1867 47.8359 33.2755V29.9353C47.8359 29.6507 48.0667 29.4199 48.3514 29.4199H99.3778C99.6624 29.4199 99.8932 29.6507 99.8932 29.9353V33.2909C99.8932 34.1938 99.4207 35.0308 98.6478 35.4973L75.4499 49.4988C74.6381 49.9888 73.6228 49.9934 72.8065 49.5107L49.1013 35.4938Z" fill="#EDEFFF"/>
<path d="M49.1013 35.4938C48.3171 35.0301 47.8359 34.1867 47.8359 33.2755V29.9353C47.8359 29.6507 48.0667 29.4199 48.3514 29.4199H99.3778C99.6624 29.4199 99.8932 29.6507 99.8932 29.9353V33.2909C99.8932 34.1938 99.4207 35.0308 98.6478 35.4973L75.4499 49.4988C74.6381 49.9888 73.6228 49.9934 72.8065 49.5107L49.1013 35.4938Z" fill="url(#paint12_linear_3988_13324)"/>
<path d="M49.1013 32.402C48.3171 31.9383 47.8359 31.0949 47.8359 30.1837V26.8435C47.8359 26.5589 48.0667 26.3281 48.3514 26.3281H99.3778C99.6624 26.3281 99.8932 26.5589 99.8932 26.8435V30.1991C99.8932 31.102 99.4207 31.939 98.6478 32.4055L75.4499 46.407C74.6381 46.897 73.6228 46.9016 72.8065 46.4189L49.1013 32.402Z" fill="#3744C4"/>
<g style="mix-blend-mode:multiply">
<path d="M49.1013 32.402C48.3171 31.9383 47.8359 31.0949 47.8359 30.1837V26.8435C47.8359 26.5589 48.0667 26.3281 48.3514 26.3281H99.3778C99.6624 26.3281 99.8932 26.5589 99.8932 26.8435V30.1991C99.8932 31.102 99.4207 31.939 98.6478 32.4055L75.4499 46.407C74.6381 46.897 73.6228 46.9016 72.8065 46.4189L49.1013 32.402Z" fill="url(#paint13_linear_3988_13324)"/>
</g>
<path d="M49.1013 29.3103C48.3171 28.8465 47.8359 28.0031 47.8359 27.0919V23.7517C47.8359 23.4671 48.0667 23.2363 48.3514 23.2363H99.3778C99.6624 23.2363 99.8932 23.4671 99.8932 23.7517V27.1073C99.8932 28.0102 99.4207 28.8472 98.6478 29.3137L75.4499 43.3152C74.6381 43.8052 73.6228 43.8098 72.8065 43.3271L49.1013 29.3103Z" fill="#EDEFFF"/>
<path d="M49.1013 29.3103C48.3171 28.8465 47.8359 28.0031 47.8359 27.0919V23.7517C47.8359 23.4671 48.0667 23.2363 48.3514 23.2363H99.3778C99.6624 23.2363 99.8932 23.4671 99.8932 23.7517V27.1073C99.8932 28.0102 99.4207 28.8472 98.6478 29.3137L75.4499 43.3152C74.6381 43.8052 73.6228 43.8098 72.8065 43.3271L49.1013 29.3103Z" fill="url(#paint14_linear_3988_13324)"/>
<path d="M49.0281 26.1763C47.3363 25.1771 47.3401 22.7283 49.0348 21.7343L72.84 7.77257C73.6522 7.2962 74.6596 7.30074 75.4675 7.78441L98.7887 21.7461C100.457 22.7448 100.461 25.1605 98.7955 26.1643L75.4742 40.2236C74.6629 40.7127 73.6488 40.7173 72.8331 40.2356L49.0281 26.1763Z" fill="#EEF1F8"/>
<path d="M143.308 182.399C141.366 181.269 141.305 178.487 143.194 177.272L200.603 140.367C201.574 139.742 202.816 139.729 203.8 140.333L247.216 166.966C249.151 168.154 249.122 170.976 247.162 172.123L198.07 200.86C197.609 201.13 197.085 201.272 196.551 201.272H176.548C176.017 201.272 175.495 201.131 175.036 200.864L143.308 182.399Z" fill="#5C62BA"/>
<path d="M121.496 169.826C120.574 169.286 120.008 168.299 120.008 167.231V139.66C120.008 138 121.354 136.654 123.014 136.654H225.222C226.882 136.654 228.228 138 228.228 139.66V167.249C228.228 168.307 227.672 169.287 226.763 169.83L176.199 200.02C175.258 200.582 174.086 200.587 173.14 200.034L121.496 169.826Z" fill="#EDEFFF"/>
<path d="M121.496 169.826C120.574 169.286 120.008 168.299 120.008 167.231V139.66C120.008 138 121.354 136.654 123.014 136.654H225.222C226.882 136.654 228.228 138 228.228 139.66V167.249C228.228 168.307 227.672 169.287 226.763 169.83L176.199 200.02C175.258 200.582 174.086 200.587 173.14 200.034L121.496 169.826Z" fill="url(#paint15_linear_3988_13324)"/>
<path d="M121.397 138.834C119.424 137.668 119.428 134.812 121.404 133.653L173.166 103.287C174.113 102.731 175.289 102.737 176.231 103.301L226.94 133.666C228.886 134.831 228.89 137.649 226.948 138.82L176.239 169.397C175.293 169.968 174.109 169.974 173.158 169.411L121.397 138.834Z" fill="white"/>
<path d="M121.397 137.03C119.424 135.864 119.428 133.008 121.404 131.849L173.166 101.484C174.113 100.928 175.289 100.933 176.231 101.497L226.94 131.863C228.886 133.028 228.89 135.845 226.948 137.016L176.239 167.594C175.293 168.164 174.109 168.17 173.158 167.608L121.397 137.03Z" fill="#8F97AE"/>
<path d="M121.397 135.829C119.424 134.663 119.428 131.807 121.404 130.648L173.166 100.282C174.113 99.7265 175.289 99.7318 176.231 100.296L226.94 130.662C228.886 131.826 228.89 134.644 226.948 135.815L176.239 166.393C175.293 166.963 174.109 166.969 173.158 166.406L121.397 135.829Z" fill="#EEF1F8"/>
<path d="M134.087 135.862C132.096 134.7 132.1 131.822 134.094 130.666L173.049 108.079C173.99 107.533 175.152 107.538 176.088 108.092L214.25 130.679C216.214 131.841 216.218 134.681 214.258 135.849L176.096 158.594C175.156 159.154 173.986 159.159 173.041 158.608L134.087 135.862Z" fill="#3744C4"/>
<path d="M131.115 134.128C130.192 133.589 129.625 132.601 129.625 131.532V68.9735C129.625 67.8869 130.211 66.8848 131.159 66.3526L173.085 42.7986C174.007 42.2803 175.134 42.2853 176.052 42.8117L217.095 66.348C218.03 66.8838 218.606 67.8786 218.606 68.9557V131.55C218.606 132.609 218.049 133.59 217.139 134.132L176.096 158.594C175.156 159.154 173.986 159.16 173.041 158.608L131.115 134.128Z" fill="url(#paint16_linear_3988_13324)"/>
<path d="M143.136 141.177C142.215 140.638 141.648 139.65 141.648 138.582V66.8671C141.648 65.7816 142.234 64.7804 143.18 64.2477L172.958 47.4789C173.881 46.9585 175.011 46.9635 175.931 47.492L205.073 64.2431C206.005 64.7793 206.581 65.7733 206.581 66.8493V102.708V138.6C206.581 139.658 206.024 140.638 205.116 141.181L175.974 158.591C175.033 159.153 173.86 159.159 172.914 158.605L143.136 141.177Z" fill="url(#paint17_linear_3988_13324)" fill-opacity="0.5"/>
<path d="M241.508 249.742C235.468 246.225 235.277 237.568 241.155 233.787L319.106 183.641C322.129 181.696 326 181.655 329.064 183.536L385.528 218.198C391.55 221.895 391.459 230.676 385.363 234.247L318.925 273.164C317.49 274.004 315.858 274.447 314.195 274.447H286.455C284.801 274.447 283.176 274.008 281.746 273.176L241.508 249.742Z" fill="#575EB5"/>
<path d="M205.175 230.636C202.197 228.889 200.367 225.694 200.367 222.24V171.04C200.367 165.664 204.725 161.306 210.102 161.306H350.076C355.452 161.306 359.811 165.664 359.811 171.04V222.298C359.811 225.721 358.014 228.891 355.078 230.65L285.858 272.107C282.806 273.935 278.999 273.952 275.93 272.151L205.175 230.636Z" fill="#EDEFFF"/>
<path d="M205.175 230.636C202.197 228.889 200.367 225.694 200.367 222.24V171.04C200.367 165.664 204.725 161.306 210.102 161.306H350.076C355.452 161.306 359.811 165.664 359.811 171.04V222.298C359.811 225.721 358.014 228.891 355.078 230.65L285.858 272.107C282.806 273.935 278.999 273.952 275.93 272.151L205.175 230.636Z" fill="url(#paint18_linear_3988_13324)"/>
<path d="M204.893 174.569C198.497 170.796 198.512 161.54 204.918 157.786L275.866 116.218C278.932 114.421 282.734 114.438 285.783 116.262L355.289 157.831C361.595 161.602 361.609 170.733 355.315 174.524L285.809 216.383C282.746 218.227 278.919 218.245 275.84 216.428L204.893 174.569Z" fill="white"/>
<path d="M205.007 171.563C198.581 167.795 198.595 158.5 205.032 154.753L275.89 113.5C278.944 111.722 282.722 111.739 285.76 113.544L355.177 154.797C361.514 158.563 361.528 167.733 355.203 171.518L285.786 213.059C282.735 214.885 278.931 214.902 275.864 213.104L205.007 171.563Z" fill="#17228E"/>
<path d="M205.06 169.721C198.62 165.958 198.635 156.646 205.086 152.902L275.903 111.805C278.95 110.036 282.716 110.053 285.747 111.849L355.125 152.946C361.476 156.708 361.49 165.895 355.15 169.677L285.773 211.062C282.728 212.878 278.937 212.895 275.877 211.106L205.06 169.721Z" fill="url(#paint19_linear_3988_13324)"/>
<path d="M227.97 166.928C221.507 163.167 221.521 153.827 227.995 150.086L275.685 122.526C278.726 120.769 282.477 120.786 285.501 122.57L332.222 150.129C338.596 153.889 338.61 163.104 332.248 166.883L285.527 194.635C282.489 196.44 278.713 196.457 275.659 194.68L227.97 166.928Z" fill="white"/>
<path d="M248.661 162.126C246.436 160.829 246.441 157.613 248.67 156.322L278.936 138.793C279.986 138.185 281.282 138.191 282.326 138.808L311.977 156.337C314.171 157.634 314.176 160.807 311.986 162.111L282.335 179.763C281.286 180.387 279.981 180.393 278.927 179.778L248.661 162.126Z" fill="#3744C4"/>
<path d="M248.846 162.084C247.925 161.544 247.359 160.557 247.359 159.49V46.6085C247.359 45.5233 247.944 44.5223 248.89 43.9895L279.271 26.8704C280.196 26.3496 281.326 26.3545 282.246 26.8835L311.979 43.9849C312.912 44.5212 313.487 45.515 313.487 46.5907V159.507C313.487 160.565 312.931 161.545 312.023 162.088L282.289 179.862C281.348 180.425 280.174 180.43 279.228 179.876L248.846 162.084Z" fill="url(#paint20_linear_3988_13324)"/>
<path d="M257.574 167.258C256.652 166.719 256.086 165.731 256.086 164.663V48.0087C256.086 46.9231 256.671 45.9218 257.617 45.3892L279.182 33.2472C280.106 32.727 281.235 32.732 282.155 33.2603L303.25 45.3846C304.183 45.9208 304.758 46.9148 304.758 47.9909V138.208V164.681C304.758 165.739 304.202 166.719 303.294 167.262L282.198 179.863C281.257 180.425 280.084 180.431 279.138 179.877L257.574 167.258Z" fill="url(#paint21_linear_3988_13324)"/>
<path opacity="0.5" d="M333.839 306.744C331.898 305.614 331.836 302.831 333.726 301.617L391.134 264.711C392.105 264.087 393.348 264.074 394.332 264.678L437.747 291.311C439.683 292.498 439.653 295.321 437.694 296.468L388.601 325.205C388.14 325.474 387.616 325.616 387.082 325.616H367.079C366.548 325.616 366.026 325.476 365.567 325.208L333.839 306.744Z" fill="#4B52A7"/>
<path d="M312.027 294.17C311.106 293.631 310.539 292.643 310.539 291.575V264.005C310.539 262.345 311.885 260.999 313.545 260.999H415.753C417.413 260.999 418.759 262.345 418.759 264.005V291.593C418.759 292.652 418.203 293.632 417.294 294.174L366.73 324.365C365.789 324.927 364.617 324.932 363.671 324.379L312.027 294.17Z" fill="#EDEFFF"/>
<path d="M312.027 294.17C311.106 293.631 310.539 292.643 310.539 291.575V264.005C310.539 262.345 311.885 260.999 313.545 260.999H415.753C417.413 260.999 418.759 262.345 418.759 264.005V291.593C418.759 292.652 418.203 293.632 417.294 294.174L366.73 324.365C365.789 324.927 364.617 324.932 363.671 324.379L312.027 294.17Z" fill="url(#paint22_linear_3988_13324)"/>
<path d="M311.928 263.178C309.955 262.013 309.959 259.157 311.936 257.997L363.697 227.632C364.645 227.076 365.82 227.081 366.762 227.646L417.472 258.011C419.417 259.176 419.421 261.994 417.48 263.165L366.77 293.742C365.824 294.313 364.641 294.318 363.689 293.756L311.928 263.178Z" fill="white"/>
<path d="M311.928 261.375C309.955 260.209 309.959 257.353 311.936 256.194L363.697 225.828C364.645 225.272 365.82 225.278 366.762 225.842L417.472 256.207C419.417 257.372 419.421 260.19 417.48 261.361L366.77 291.938C365.824 292.509 364.641 292.515 363.689 291.952L311.928 261.375Z" fill="#8F97AE"/>
<path d="M311.928 260.174C309.955 259.008 309.959 256.152 311.936 254.992L363.697 224.627C364.645 224.071 365.82 224.077 366.762 224.641L417.472 255.006C419.417 256.171 419.421 258.989 417.48 260.16L366.77 290.737C365.824 291.308 364.641 291.313 363.689 290.751L311.928 260.174Z" fill="#EEF1F8"/>
<path d="M324.618 260.206C322.627 259.044 322.632 256.166 324.626 255.01L363.58 232.422C364.521 231.877 365.683 231.882 366.619 232.436L404.782 255.023C406.745 256.185 406.749 259.024 404.79 260.192L366.627 282.938C365.687 283.498 364.517 283.503 363.572 282.951L324.618 260.206Z" fill="#3744C4"/>
<path d="M321.647 258.473C320.724 257.934 320.156 256.945 320.156 255.877V193.318C320.156 192.232 320.743 191.23 321.69 190.697L363.616 167.143C364.539 166.625 365.666 166.63 366.584 167.156L407.627 190.693C408.561 191.229 409.137 192.223 409.137 193.3V255.895C409.137 256.954 408.58 257.935 407.67 258.477L366.627 282.939C365.687 283.499 364.517 283.504 363.572 282.953L321.647 258.473Z" fill="url(#paint23_linear_3988_13324)"/>
<path d="M333.667 265.522C332.746 264.982 332.18 263.995 332.18 262.927V191.212C332.18 190.126 332.765 189.125 333.711 188.592L363.489 171.824C364.413 171.303 365.543 171.308 366.462 171.837L395.604 188.588C396.537 189.124 397.112 190.118 397.112 191.194V227.053V262.945C397.112 264.003 396.556 264.983 395.647 265.526L366.505 282.936C365.564 283.498 364.391 283.503 363.445 282.95L333.667 265.522Z" fill="url(#paint24_linear_3988_13324)" fill-opacity="0.5"/>
<path d="M272.771 25.7539L287.517 74.3346L272.772 65.1533L258.026 16.5726L272.771 25.7539Z" fill="#17228E"/>
<path d="M272.765 25.7536L287.512 74.3343L288.519 72.6512L273.772 24.0705L272.765 25.7536Z" fill="#131D75"/>
<rect x="273.742" y="24.1816" width="1.85219" height="17.37" transform="rotate(121.909 273.742 24.1816)" fill="#A3A9E2"/>
<path d="M297.715 93.8138C303.92 106.107 303.119 119.016 295.926 122.647C292.322 124.466 287.109 127.043 287.109 127.043C280.857 118.164 267.262 88.8939 264.166 82.7593C264.166 82.7593 266.263 81.7597 273.456 78.129C280.649 74.4982 291.51 81.5206 297.715 93.8138Z" fill="#D9BC57"/>
<ellipse cx="276.595" cy="104.36" rx="14.5895" ry="24.9335" transform="rotate(-26.7822 276.595 104.36)" fill="#FFDD64"/>
<g style="mix-blend-mode:multiply">
<ellipse cx="276.756" cy="104.276" rx="11.3088" ry="18.7349" transform="rotate(-26.7822 276.756 104.276)" fill="#D9D9DE"/>
</g>
<ellipse cx="278.519" cy="103.387" rx="9.33627" ry="18.7349" transform="rotate(-26.7822 278.519 103.387)" fill="#FFDD64"/>
<rect x="275.367" y="65.1523" width="2.13418" height="13.8721" fill="#FFDD64"/>
<rect x="282.844" y="69.4209" width="2.13418" height="13.8721" fill="#FFDD64"/>
<path d="M305.061 43.9226L287.514 74.3347L272.769 65.1534L290.316 34.7413L305.061 43.9226Z" fill="#3744C4"/>
<rect x="306.039" y="42.3213" width="1.85219" height="17.37" transform="rotate(121.909 306.039 42.3213)" fill="#A3A9E2"/>
<path d="M168.526 42.0192L178.129 73.6548L168.527 67.6759L158.924 36.0404L168.526 42.0192Z" fill="#17228E"/>
<path d="M168.523 42.0193L178.125 73.6549L178.781 72.5588L169.179 40.9232L168.523 42.0193Z" fill="#131D75"/>
<rect x="169.164" y="40.9956" width="1.20614" height="11.3113" transform="rotate(121.909 169.164 40.9956)" fill="#A3A9E2"/>
<path d="M184.781 86.3376C188.822 94.3429 188.3 102.749 183.616 105.113C181.269 106.298 177.875 107.977 177.875 107.977C173.803 102.194 164.95 83.1338 162.934 79.1389C162.934 79.1389 164.299 78.488 168.984 76.1237C173.668 73.7594 180.741 78.3323 184.781 86.3376Z" fill="#A7A8AB"/>
<ellipse cx="171.024" cy="93.2046" rx="9.50062" ry="16.2366" transform="rotate(-26.7822 171.024 93.2046)" fill="#D9D9DE"/>
<ellipse cx="171.134" cy="93.1506" rx="7.36428" ry="12.2001" transform="rotate(-26.7822 171.134 93.1506)" fill="#A7A8AB"/>
<ellipse cx="172.276" cy="92.5722" rx="6.07975" ry="12.2001" transform="rotate(-26.7822 172.276 92.5722)" fill="#D9D9DE"/>
<rect x="170.227" y="67.6733" width="1.38977" height="9.03349" fill="#D9D9DE"/>
<rect x="175.094" y="70.4526" width="1.38977" height="9.03349" fill="#D9D9DE"/>
<path d="M189.559 53.8504L178.132 73.6547L168.53 67.6759L179.957 47.8716L189.559 53.8504Z" fill="#3744C4"/>
<rect x="190.195" y="52.8081" width="1.20614" height="11.3113" transform="rotate(121.909 190.195 52.8081)" fill="#A3A9E2"/>
<path d="M363.174 170.376L372.777 202.011L363.175 196.032L353.572 164.397L363.174 170.376Z" fill="#17228E"/>
<path d="M363.179 170.375L372.782 202.01L373.438 200.914L363.835 169.279L363.179 170.375Z" fill="#131D75"/>
<rect x="363.82" y="169.351" width="1.20614" height="11.3113" transform="rotate(121.909 363.82 169.351)" fill="#A3A9E2"/>
<path d="M379.43 214.696C383.47 222.701 382.949 231.108 378.265 233.472C375.918 234.656 372.523 236.335 372.523 236.335C368.452 230.553 359.599 211.492 357.583 207.497C357.583 207.497 358.948 206.846 363.632 204.482C368.316 202.118 375.389 206.691 379.43 214.696Z" fill="url(#paint25_linear_3988_13324)"/>
<ellipse cx="365.673" cy="221.563" rx="9.50062" ry="16.2366" transform="rotate(-26.7822 365.673 221.563)" fill="#FCB050"/>
<ellipse cx="365.783" cy="221.509" rx="7.36428" ry="12.2001" transform="rotate(-26.7822 365.783 221.509)" fill="#BE783C"/>
<ellipse cx="366.925" cy="220.931" rx="6.07975" ry="12.2001" transform="rotate(-26.7822 366.925 220.931)" fill="#FFB152"/>
<rect x="364.875" y="196.032" width="1.38977" height="9.03349" fill="url(#paint26_linear_3988_13324)"/>
<rect x="369.742" y="198.811" width="1.38977" height="9.03349" fill="url(#paint27_linear_3988_13324)"/>
<path d="M384.207 182.207L372.781 202.011L363.179 196.032L374.605 176.228L384.207 182.207Z" fill="#3744C4"/>
<rect x="384.844" y="181.165" width="1.20614" height="11.3113" transform="rotate(121.909 384.844 181.165)" fill="#A3A9E2"/>
<path d="M115.203 318.16L156.952 294.451" stroke="#C5CAFF" stroke-width="2.57709" stroke-linecap="round" stroke-linejoin="round"/>
<path d="M120.359 321.769L162.108 298.06" stroke="#C5CAFF" stroke-width="2.57709" stroke-linecap="round" stroke-linejoin="round"/>
<path d="M74.663 359.221C71.3451 357.29 71.2921 352.516 74.5663 350.512L110.863 328.291C112.456 327.316 114.457 327.295 116.07 328.237L140.752 342.656C144.102 344.612 144.104 349.453 140.756 351.413L107.99 370.596C107.213 371.051 106.328 371.291 105.428 371.291H96.7669C95.8705 371.291 94.99 371.053 94.2153 370.602L74.663 359.221Z" fill="#42499E"/>
<path d="M50.0415 345.14C49.2513 344.678 48.7656 343.831 48.7656 342.916V339.335C48.7656 337.912 49.9194 336.758 51.3427 336.758H138.964C140.387 336.758 141.541 337.912 141.541 339.335V342.931C141.541 343.838 141.064 344.679 140.285 345.144L96.9372 371.026C96.1306 371.507 95.1258 371.512 94.3149 371.037L50.0415 345.14Z" fill="#EDEFFF"/>
<path d="M50.0415 345.14C49.2513 344.678 48.7656 343.831 48.7656 342.916V339.335C48.7656 337.912 49.9194 336.758 51.3427 336.758H138.964C140.387 336.758 141.541 337.912 141.541 339.335V342.931C141.541 343.838 141.064 344.679 140.285 345.144L96.9372 371.026C96.1306 371.507 95.1258 371.512 94.3149 371.037L50.0415 345.14Z" fill="url(#paint28_linear_3988_13324)"/>
<path d="M49.9566 338.624C48.2652 337.625 48.2689 335.177 49.9634 334.183L94.3374 308.151C95.1498 307.674 96.1574 307.679 96.9654 308.163L140.438 334.194C142.105 335.193 142.109 337.608 140.444 338.612L96.9721 364.826C96.1608 365.315 95.1464 365.32 94.3306 364.838L49.9566 338.624Z" fill="white"/>
<path d="M49.9566 337.078C48.2652 336.079 48.2689 333.631 49.9634 332.637L94.3374 306.605C95.1498 306.128 96.1574 306.133 96.9654 306.617L140.438 332.648C142.105 333.647 142.109 336.062 140.444 337.066L96.9721 363.28C96.1608 363.769 95.1464 363.774 94.3306 363.292L49.9566 337.078Z" fill="#8F97AE"/>
<path d="M49.9566 336.047C48.2652 335.048 48.2689 332.599 49.9634 331.605L94.3374 305.574C95.1498 305.097 96.1574 305.102 96.9654 305.586L140.438 331.617C142.105 332.616 142.109 335.031 140.444 336.035L96.9721 362.249C96.1608 362.738 95.1464 362.743 94.3306 362.261L49.9566 336.047Z" fill="#EEF1F8"/>
<path d="M69.2991 332.039C67.9453 331.24 67.9482 329.28 69.3045 328.485L92.8254 314.696C93.475 314.315 94.2806 314.319 94.9267 314.705L117.97 328.494C119.304 329.293 119.307 331.226 117.975 332.029L94.9321 345.915C94.2833 346.306 93.4723 346.309 92.8199 345.924L69.2991 332.039Z" fill="#8F97AE"/>
<path d="M69.2991 331.008C67.9453 330.208 67.9482 328.249 69.3045 327.454L92.8254 313.664C93.475 313.284 94.2806 313.287 94.9267 313.674L117.97 327.463C119.304 328.262 119.307 330.195 117.975 330.998L94.9321 344.884C94.2833 345.275 93.4723 345.278 92.8199 344.893L69.2991 331.008Z" fill="url(#paint29_linear_3988_13324)"/>
<rect x="118.383" y="329.491" width="2.57709" height="1.03084" transform="rotate(57 118.383 329.491)" fill="#333333"/>
<rect width="2.57709" height="1.03084" transform="matrix(-0.544639 0.83867 0.83867 0.544639 69.2422 329.541)" fill="#333333"/>
<rect x="115.766" y="331.1" width="2.57709" height="1.03084" transform="rotate(57 115.766 331.1)" fill="#333333"/>
<rect width="2.57709" height="1.03084" transform="matrix(-0.544639 0.83867 0.83867 0.544639 71.8438 331.148)" fill="#333333"/>
<rect x="113.156" y="332.708" width="2.57709" height="1.03084" transform="rotate(57 113.156 332.708)" fill="#333333"/>
<rect width="2.57709" height="1.03084" transform="matrix(-0.544639 0.83867 0.83867 0.544639 74.4609 332.757)" fill="#333333"/>
<rect x="110.547" y="334.315" width="2.57709" height="1.03084" transform="rotate(57 110.547 334.315)" fill="#333333"/>
<rect width="2.57709" height="1.03084" transform="matrix(-0.544639 0.83867 0.83867 0.544639 77.0703 334.364)" fill="#333333"/>
<rect x="107.938" y="335.923" width="2.57709" height="1.03084" transform="rotate(57 107.938 335.923)" fill="#333333"/>
<rect width="2.57709" height="1.03084" transform="matrix(-0.544639 0.83867 0.83867 0.544639 79.6797 335.973)" fill="#333333"/>
<rect x="105.328" y="337.531" width="2.57709" height="1.03084" transform="rotate(57 105.328 337.531)" fill="#333333"/>
<rect width="2.57709" height="1.03084" transform="matrix(-0.544639 0.83867 0.83867 0.544639 82.2891 337.581)" fill="#333333"/>
<rect x="102.711" y="339.14" width="2.57709" height="1.03084" transform="rotate(57 102.711 339.14)" fill="#333333"/>
<rect width="2.57709" height="1.03084" transform="matrix(-0.544639 0.83867 0.83867 0.544639 84.8984 339.188)" fill="#333333"/>
<rect x="100.102" y="340.747" width="2.57709" height="1.03084" transform="rotate(57 100.102 340.747)" fill="#333333"/>
<rect width="2.57709" height="1.03084" transform="matrix(-0.544639 0.83867 0.83867 0.544639 87.5156 340.797)" fill="#333333"/>
<rect x="97.4922" y="342.356" width="2.57709" height="1.03084" transform="rotate(57 97.4922 342.356)" fill="#333333"/>
<rect width="2.57709" height="1.03084" transform="matrix(-0.544639 0.83867 0.83867 0.544639 90.125 342.405)" fill="#333333"/>
<rect x="94.8828" y="343.964" width="2.57709" height="1.03084" transform="rotate(57 94.8828 343.964)" fill="#333333"/>
<rect width="2.57709" height="1.03084" transform="matrix(-0.544639 0.83867 0.83867 0.544639 92.7344 344.014)" fill="#333333"/>
<ellipse cx="275.407" cy="393.537" rx="47.2197" ry="15.1318" transform="rotate(-6.29872 275.407 393.537)" fill="#454CA1"/>
<path d="M234.631 404.773C234.631 404.773 231.254 403.493 218.711 396.369C206.168 389.244 205.959 365.936 218.244 344.308C230.529 322.68 250.656 310.923 263.198 318.048C266.936 320.171 277.917 326.253 277.919 326.253C277.919 326.253 243.255 389.591 234.631 404.773Z" fill="#EDEFFF"/>
<path d="M234.631 404.773C234.631 404.773 231.254 403.493 218.711 396.369C206.168 389.244 205.959 365.936 218.244 344.308C230.529 322.68 250.656 310.923 263.198 318.048C266.936 320.171 277.917 326.253 277.919 326.253C277.919 326.253 243.255 389.591 234.631 404.773Z" fill="url(#paint30_linear_3988_13324)"/>
<ellipse cx="255.123" cy="364.964" rx="26.1189" ry="45.037" transform="rotate(29.5974 255.123 364.964)" fill="#17228E"/>
<ellipse cx="255.124" cy="364.964" rx="23.0196" ry="39.8964" transform="rotate(29.5974 255.124 364.964)" fill="#EEF1F8"/>
<path d="M256.273 363.992L278.989 360.594V361.309L256.273 365.96V363.992Z" fill="#3744C4"/>
<ellipse cx="255.119" cy="364.964" rx="1.8919" ry="3.27894" transform="rotate(29.5974 255.119 364.964)" fill="#3744C4"/>
<path d="M251.089 324.374C251.089 325.411 249.728 326.252 248.048 326.252C246.369 326.252 245.008 325.411 245.008 324.374C245.008 323.337 245.008 319.098 245.008 319.098L251.089 319.098C251.089 319.098 251.089 323.929 251.089 324.374Z" fill="#EDEFFF"/>
<path d="M251.089 324.374C251.089 325.411 249.728 326.252 248.048 326.252C246.369 326.252 245.008 325.411 245.008 324.374C245.008 323.337 245.008 319.098 245.008 319.098L251.089 319.098C251.089 319.098 251.089 323.929 251.089 324.374Z" fill="url(#paint31_linear_3988_13324)"/>
<g style="mix-blend-mode:multiply">
<path d="M260.921 332.645L254.66 365.603L279.209 360.952C282.403 348.566 280.334 337.557 273.039 333.413C269.561 331.438 265.35 331.282 260.921 332.645Z" fill="url(#paint32_linear_3988_13324)"/>
</g>
<path d="M235.05 339.091C233.762 340.466 231.763 340.686 230.585 339.583C229.407 338.479 228.153 335.451 228.153 335.451C228.152 335.451 233.647 331.384 233.648 331.384C233.65 331.384 235.05 334.302 235.249 334.603C236.059 336.269 236.338 337.716 235.05 339.091Z" fill="#EDEFFF"/>
<path d="M235.05 339.091C233.762 340.466 231.763 340.686 230.585 339.583C229.407 338.479 228.153 335.451 228.153 335.451C228.152 335.451 233.647 331.384 233.648 331.384C233.65 331.384 235.05 334.302 235.249 334.603C236.059 336.269 236.338 337.716 235.05 339.091Z" fill="url(#paint33_linear_3988_13324)"/>
<path d="M253.946 318.203C253.946 320.278 251.303 321.96 248.043 321.96C244.783 321.96 242.141 320.278 242.141 318.203C242.141 316.129 242.142 307.651 242.142 307.651L253.946 307.65C253.946 307.65 253.946 317.314 253.946 318.203Z" fill="url(#paint34_linear_3988_13324)"/>
<ellipse cx="230.973" cy="333.531" rx="2.92291" ry="3.41103" transform="rotate(43.1248 230.973 333.531)" fill="url(#paint35_linear_3988_13324)"/>
<path fill-rule="evenodd" clip-rule="evenodd" d="M248.462 295.925C246.582 297.069 244.675 299.074 243.218 301.686C241.761 304.297 241.054 306.973 241.068 309.173C241.082 311.391 241.817 313.003 243.09 313.714C243.275 313.817 243.468 313.9 243.668 313.963C243.951 314.052 244.156 314.32 244.113 314.613C244.071 314.907 243.797 315.113 243.511 315.035C243.184 314.946 242.868 314.819 242.567 314.651C240.808 313.669 240.01 311.578 239.995 309.179C239.98 306.762 240.75 303.905 242.281 301.162C243.812 298.42 245.839 296.265 247.905 295.008C249.954 293.762 252.153 293.344 253.912 294.326C255.671 295.307 256.469 297.398 256.484 299.797C256.499 302.214 255.729 305.071 254.198 307.814C254.107 307.951 253.895 307.91 253.863 307.748L253.772 307.293C253.679 306.843 253.746 306.377 253.938 305.96C254.937 303.786 255.422 301.631 255.411 299.804C255.397 297.585 254.662 295.973 253.389 295.263C252.115 294.552 250.358 294.772 248.462 295.925Z" fill="#EDEFFF"/>
<path fill-rule="evenodd" clip-rule="evenodd" d="M248.462 295.925C246.582 297.069 244.675 299.074 243.218 301.686C241.761 304.297 241.054 306.973 241.068 309.173C241.082 311.391 241.817 313.003 243.09 313.714C243.275 313.817 243.468 313.9 243.668 313.963C243.951 314.052 244.156 314.32 244.113 314.613C244.071 314.907 243.797 315.113 243.511 315.035C243.184 314.946 242.868 314.819 242.567 314.651C240.808 313.669 240.01 311.578 239.995 309.179C239.98 306.762 240.75 303.905 242.281 301.162C243.812 298.42 245.839 296.265 247.905 295.008C249.954 293.762 252.153 293.344 253.912 294.326C255.671 295.307 256.469 297.398 256.484 299.797C256.499 302.214 255.729 305.071 254.198 307.814C254.107 307.951 253.895 307.91 253.863 307.748L253.772 307.293C253.679 306.843 253.746 306.377 253.938 305.96C254.937 303.786 255.422 301.631 255.411 299.804C255.397 297.585 254.662 295.973 253.389 295.263C252.115 294.552 250.358 294.772 248.462 295.925Z" fill="url(#paint36_linear_3988_13324)"/>
<path d="M269.784 321.847C269.654 322.124 268.136 321.685 266.394 320.867C264.652 320.049 263.345 319.161 263.475 318.884C263.605 318.607 265.391 313.732 265.391 313.732L271.832 316.773C271.832 316.773 269.849 321.708 269.784 321.847Z" fill="#EDEFFF"/>
<path d="M269.784 321.847C269.654 322.124 268.136 321.685 266.394 320.867C264.652 320.049 263.345 319.161 263.475 318.884C263.605 318.607 265.391 313.732 265.391 313.732L271.832 316.773C271.832 316.773 269.849 321.708 269.784 321.847Z" fill="url(#paint37_linear_3988_13324)"/>
<ellipse cx="268.622" cy="315.268" rx="3.48509" ry="0.553634" transform="rotate(25.1569 268.622 315.268)" fill="url(#paint38_linear_3988_13324)"/>
<ellipse cx="248.043" cy="307.829" rx="5.90246" ry="3.75611" fill="#3744C4"/>
<path d="M328.701 402H300.665C298.089 402 296 399.911 296 397.335V389.177C296 387.519 296.88 385.986 298.311 385.149L328.861 367.296C332.337 365.264 336.645 365.294 340.093 367.373L348.274 372.308C356.058 377.004 355.723 388.402 347.677 392.631L330.871 401.464C330.202 401.816 329.457 402 328.701 402Z" fill="#444B9F"/>
<path fill-rule="evenodd" clip-rule="evenodd" d="M339.143 363.706C338.307 365.28 336.832 366.134 335.848 365.611C335.407 365.378 335.14 364.908 335.054 364.318L334.542 364.69L331.297 366.177V363.676L336.778 360.344C337.488 359.784 338.273 359.589 338.875 359.908C338.981 359.965 339.078 360.035 339.164 360.117L341.038 361.242V363.27L339.615 362.417C339.528 362.838 339.371 363.276 339.143 363.706Z" fill="#CBD1E9"/>
<path fill-rule="evenodd" clip-rule="evenodd" d="M338.02 366.944C339.003 367.467 340.479 366.613 341.315 365.039C342.151 363.464 342.031 361.764 341.047 361.241C340.486 360.944 339.765 361.093 339.094 361.569L333.531 364.894V367.463L337.196 365.28C337.211 366.041 337.49 366.663 338.02 366.944Z" fill="#E5E5EB"/>
<g style="mix-blend-mode:multiply">
<ellipse cx="339.526" cy="364.129" rx="1.13493" ry="1.81667" transform="rotate(27.9604 339.526 364.129)" fill="#4851AF"/>
</g>
<path fill-rule="evenodd" clip-rule="evenodd" d="M329.815 381.055C325.148 389.847 316.912 394.611 311.42 391.695C308.959 390.389 307.466 387.763 306.988 384.471L304.117 386.554L286 394.858V380.892L316.64 362.264C320.599 359.157 324.97 358.079 328.32 359.857C328.946 360.189 329.509 360.607 330.009 361.098L340.351 367.304V378.627L332.447 373.885C331.956 376.229 331.082 378.668 329.815 381.055Z" fill="#EEF1F8"/>
<path d="M312.047 392.97L324.503 399.386L320.728 387.686L312.047 392.97Z" fill="#758BBC"/>
<path d="M298.456 387.686L286 380.892V394.857L298.456 402.028V387.686Z" fill="#CBD1E9"/>
<g style="mix-blend-mode:multiply">
<path d="M296.194 388.944L287.891 384.289V393.977L296.194 399.009V388.944Z" fill="#4851AF"/>
</g>
<path d="M308.648 368.813L317.707 374.475L314.688 376.362L308.648 372.588V368.813Z" fill="#CBD1E9"/>
<path d="M308.646 368.813L301.852 373.343L304.494 375.23L308.646 372.588V368.813Z" fill="#E5E5EB"/>
<g style="mix-blend-mode:multiply">
<path d="M314.691 376.362L310.162 379.004L304.5 375.23L308.652 372.588L314.691 376.362Z" fill="#4851AF"/>
</g>
<path fill-rule="evenodd" clip-rule="evenodd" d="M323.498 399.137C328.99 402.052 337.226 397.289 341.893 388.497C346.56 379.705 345.891 370.214 340.398 367.298C337.252 365.629 333.206 366.478 329.447 369.16L298.453 387.685V402.028L318.901 389.851C318.983 394.095 320.542 397.568 323.498 399.137Z" fill="#CBD1E9"/>
<path fill-rule="evenodd" clip-rule="evenodd" d="M323.498 399.137C328.99 402.052 337.226 397.289 341.893 388.497C346.56 379.705 345.891 370.214 340.398 367.298C337.252 365.629 333.206 366.478 329.447 369.16L298.453 387.685V402.028L318.901 389.851C318.983 394.095 320.542 397.568 323.498 399.137Z" fill="url(#paint39_linear_3988_13324)"/>
<ellipse cx="331.951" cy="383.419" rx="6.33595" ry="10.1419" transform="rotate(27.9604 331.951 383.419)" fill="#EEF1F8"/>
<path d="M81.3644 229.515H61.5316C60.6664 229.515 59.9604 228.823 59.9435 227.958L59.6018 210.365C59.5845 209.476 60.3005 208.746 61.1898 208.746H81.3211C81.6238 208.746 81.9202 208.833 82.1754 208.995L96.7722 218.307C97.7806 218.95 97.743 220.435 96.7034 221.027L82.1499 229.307C81.9105 229.443 81.6398 229.515 81.3644 229.515Z" fill="#5258AE"/>
<path d="M61.8984 174.64V229.567L77.636 220.613V165.686L61.8984 174.64Z" fill="#CBD1E9"/>
<path d="M61.8984 174.64V229.567L77.636 220.613V165.686L61.8984 174.64Z" fill="url(#paint40_linear_3988_13324)"/>
<path d="M61.8953 174.639V229.566L45.3438 218.984V165.143L61.8953 174.639Z" fill="#CBD1E9"/>
<path d="M61.1023 175.32L46.138 166.763C45.0714 166.153 45.0714 164.615 46.138 164.006L61.0556 155.476C61.5672 155.183 62.1988 155.198 62.6962 155.514L76.9244 164.56C77.9355 165.202 77.898 166.691 76.8557 167.282L62.6742 175.323C62.1865 175.599 61.5891 175.598 61.1023 175.32Z" fill="#EEF1F8"/>
<path d="M53.8488 242.104H34.016C33.1508 242.104 32.4447 241.411 32.4279 240.546L32.0861 222.954C32.0689 222.065 32.7849 221.335 33.6742 221.335H53.8055C54.1082 221.335 54.4046 221.421 54.6598 221.584L69.2566 230.896C70.2649 231.539 70.2274 233.024 69.1878 233.616L54.6343 241.896C54.3949 242.032 54.1242 242.104 53.8488 242.104Z" fill="#5258AE"/>
<path d="M25.2838 255.5H19.604C18.7268 255.5 18.0156 254.789 18.0156 253.912V236.32C18.0156 235.443 18.7268 234.731 19.604 234.731H25.2406C25.5433 234.731 25.8396 234.818 26.0948 234.981L40.6916 244.292C41.7 244.936 41.6625 246.421 40.6229 247.012L26.0693 255.293C25.8299 255.429 25.5593 255.5 25.2838 255.5Z" fill="#5258AE"/>
<path d="M40.2812 200.945V242.153L56.0188 233.199V191.991L40.2812 200.945Z" fill="#CBD1E9"/>
<path d="M40.2812 200.945V242.153L56.0188 233.199V191.991L40.2812 200.945Z" fill="url(#paint41_linear_3988_13324)"/>
<path d="M40.2781 200.947V242.155L23.7266 231.573V191.45L40.2781 200.947Z" fill="#CBD1E9"/>
<path d="M39.4281 201.497L24.5053 192.942C23.4408 192.332 23.4408 190.797 24.5053 190.186L39.3813 181.658C39.8937 181.365 40.5269 181.38 41.025 181.697L55.2137 190.741C56.2228 191.384 56.1852 192.869 55.145 193.461L41.0031 201.5C40.5146 201.778 39.9157 201.777 39.4281 201.497Z" fill="#EEF1F8"/>
<path d="M18.1641 224.026V255.551L33.9016 246.596V215.072L18.1641 224.026Z" fill="#CBD1E9"/>
<path d="M18.1641 224.026V255.551L33.9016 246.596V215.072L18.1641 224.026Z" fill="url(#paint42_linear_3988_13324)"/>
<path d="M18.1765 224.027V255.551L1.625 244.969V214.53L18.1765 224.027Z" fill="#CBD1E9"/>
<path d="M17.3594 224.746L2.40901 216.19C1.34308 215.58 1.34308 214.043 2.40901 213.433L17.3126 204.904C17.8245 204.611 18.4566 204.626 18.9542 204.943L33.1691 213.987C34.1796 214.63 34.1421 216.117 33.1004 216.708L18.9322 224.748C18.4443 225.025 17.8464 225.024 17.3594 224.746Z" fill="#EEF1F8"/>
<g style="mix-blend-mode:multiply" opacity="0.5">
<path fill-rule="evenodd" clip-rule="evenodd" d="M61.9062 207.161C63.1149 205.639 64.3721 203.863 65.6982 201.808C68.1267 198.044 71.1661 191.216 74.022 184.021C75.3094 180.778 76.5419 177.505 77.6438 174.477V188.849C75.1138 195.019 72.4023 200.943 70.0381 204.608C67.3305 208.805 64.681 212.23 61.9062 214.788V207.161Z" fill="url(#paint43_linear_3988_13324)" fill-opacity="0.5"/>
</g>
<g style="mix-blend-mode:multiply" opacity="0.5">
<path fill-rule="evenodd" clip-rule="evenodd" d="M18.1719 230.686C23.2905 224.231 27.8014 220.589 30.1521 219.022C31.2562 218.286 32.5172 217.578 33.9094 216.936V222.758C33.598 222.943 33.3003 223.131 33.017 223.32C30.5972 224.933 24.5885 229.801 18.1719 239.483V230.686Z" fill="url(#paint44_linear_3988_13324)" fill-opacity="0.5"/>
</g>
<g style="mix-blend-mode:multiply" opacity="0.5">
<path fill-rule="evenodd" clip-rule="evenodd" d="M40.2891 213.152C42.8688 212.555 45.6688 212.226 48.5992 212.294C51.1455 212.353 53.5447 211.648 56.0266 209.877V215.864C53.6858 216.974 51.1989 217.521 48.4791 217.458C45.5427 217.389 42.7672 217.795 40.2891 218.479V213.152Z" fill="url(#paint45_linear_3988_13324)" fill-opacity="0.5"/>
</g>
<g filter="url(#filter1_iiii_3988_13324)">
<path d="M85.6465 165.973C82.6338 175.065 75.317 195.25 70.1523 203.256C63.6963 213.262 58.2088 217.782 51.2687 217.62C44.3285 217.459 38.1954 219.718 34.3218 222.301C30.4483 224.883 19.3118 234.244 10.2734 254.903" stroke="url(#paint46_linear_3988_13324)" stroke-width="3.75769" stroke-linecap="round" stroke-linejoin="round"/>
</g>
<defs>
<filter id="filter0_f_3988_13324" x="51.303" y="30.5366" width="68.0349" height="42.314" filterUnits="userSpaceOnUse" color-interpolation-filters="sRGB">
<feFlood flood-opacity="0" result="BackgroundImageFix"/>
<feBlend mode="normal" in="SourceGraphic" in2="BackgroundImageFix" result="shape"/>
<feGaussianBlur stdDeviation="2" result="effect1_foregroundBlur_3988_13324"/>
</filter>
<filter id="filter1_iiii_3988_13324" x="8.39404" y="162.841" width="81.3238" height="96.134" filterUnits="userSpaceOnUse" color-interpolation-filters="sRGB">
<feFlood flood-opacity="0" result="BackgroundImageFix"/>
<feBlend mode="normal" in="SourceGraphic" in2="BackgroundImageFix" result="shape"/>
<feColorMatrix in="SourceAlpha" type="matrix" values="0 0 0 0 0 0 0 0 0 0 0 0 0 0 0 0 0 0 127 0" result="hardAlpha"/>
<feOffset dx="0.939423" dy="0.626282"/>
<feGaussianBlur stdDeviation="1.25256"/>
<feComposite in2="hardAlpha" operator="arithmetic" k2="-1" k3="1"/>
<feColorMatrix type="matrix" values="0 0 0 0 1 0 0 0 0 0.584314 0 0 0 0 0 0 0 0 1 0"/>
<feBlend mode="normal" in2="shape" result="effect1_innerShadow_3988_13324"/>
<feColorMatrix in="SourceAlpha" type="matrix" values="0 0 0 0 0 0 0 0 0 0 0 0 0 0 0 0 0 0 127 0" result="hardAlpha"/>
<feOffset dy="1.25256"/>
<feGaussianBlur stdDeviation="1.25256"/>
<feComposite in2="hardAlpha" operator="arithmetic" k2="-1" k3="1"/>
<feColorMatrix type="matrix" values="0 0 0 0 1 0 0 0 0 0.462745 0 0 0 0 0.0784314 0 0 0 0.25 0"/>
<feBlend mode="normal" in2="effect1_innerShadow_3988_13324" result="effect2_innerShadow_3988_13324"/>
<feColorMatrix in="SourceAlpha" type="matrix" values="0 0 0 0 0 0 0 0 0 0 0 0 0 0 0 0 0 0 127 0" result="hardAlpha"/>
<feOffset dx="2.19199" dy="2.19199"/>
<feGaussianBlur stdDeviation="1.25256"/>
<feComposite in2="hardAlpha" operator="arithmetic" k2="-1" k3="1"/>
<feColorMatrix type="matrix" values="0 0 0 0 1 0 0 0 0 0.97402 0 0 0 0 0.9375 0 0 0 0.25 0"/>
<feBlend mode="normal" in2="effect2_innerShadow_3988_13324" result="effect3_innerShadow_3988_13324"/>
<feColorMatrix in="SourceAlpha" type="matrix" values="0 0 0 0 0 0 0 0 0 0 0 0 0 0 0 0 0 0 127 0" result="hardAlpha"/>
<feOffset dx="2.81827" dy="-3.44455"/>
<feGaussianBlur stdDeviation="0.626282"/>
<feComposite in2="hardAlpha" operator="arithmetic" k2="-1" k3="1"/>
<feColorMatrix type="matrix" values="0 0 0 0 1 0 0 0 0 0.462745 0 0 0 0 0.0784314 0 0 0 1 0"/>
<feBlend mode="normal" in2="effect3_innerShadow_3988_13324" result="effect4_innerShadow_3988_13324"/>
</filter>
<linearGradient id="paint0_linear_3988_13324" x1="582.911" y1="289.608" x2="504.708" y2="289.608" gradientUnits="userSpaceOnUse">
<stop offset="0.046875" stop-color="#8097CD"/>
<stop offset="1" stop-color="#8097CD" stop-opacity="0"/>
</linearGradient>
<linearGradient id="paint1_linear_3988_13324" x1="505.296" y1="106.955" x2="456.318" y2="106.955" gradientUnits="userSpaceOnUse">
<stop offset="0.354167" stop-color="#8097CD"/>
<stop offset="1" stop-color="#8097CD" stop-opacity="0"/>
</linearGradient>
<linearGradient id="paint2_linear_3988_13324" x1="505.296" y1="83.7607" x2="456.318" y2="83.7607" gradientUnits="userSpaceOnUse">
<stop offset="0.354167" stop-color="#8097CD"/>
<stop offset="1" stop-color="#8097CD" stop-opacity="0"/>
</linearGradient>
<linearGradient id="paint3_linear_3988_13324" x1="505.171" y1="61.0927" x2="456.193" y2="61.0927" gradientUnits="userSpaceOnUse">
<stop offset="0.354167" stop-color="#8097CD"/>
<stop offset="1" stop-color="#8097CD" stop-opacity="0"/>
</linearGradient>
<linearGradient id="paint4_linear_3988_13324" x1="505.171" y1="38.413" x2="456.193" y2="38.413" gradientUnits="userSpaceOnUse">
<stop offset="0.354167" stop-color="#8097CD"/>
<stop offset="1" stop-color="#8097CD" stop-opacity="0"/>
</linearGradient>
<linearGradient id="paint5_linear_3988_13324" x1="431.498" y1="0.664063" x2="514.607" y2="37.586" gradientUnits="userSpaceOnUse">
<stop stop-color="#6D7AFA"/>
<stop offset="0.567708" stop-color="#3744C4"/>
</linearGradient>
<linearGradient id="paint6_linear_3988_13324" x1="97.2006" y1="58.7535" x2="62.1517" y2="58.7535" gradientUnits="userSpaceOnUse">
<stop offset="0.354167" stop-color="#8097CD"/>
<stop offset="1" stop-color="#8097CD" stop-opacity="0"/>
</linearGradient>
<linearGradient id="paint7_linear_3988_13324" x1="97.2006" y1="55.6607" x2="62.1517" y2="55.6607" gradientUnits="userSpaceOnUse">
<stop offset="0.354167" stop-color="#8097CD"/>
<stop offset="1" stop-color="#8097CD" stop-opacity="0"/>
</linearGradient>
<linearGradient id="paint8_linear_3988_13324" x1="97.2006" y1="52.569" x2="62.1517" y2="52.5689" gradientUnits="userSpaceOnUse">
<stop offset="0.354167" stop-color="#8097CD"/>
<stop offset="1" stop-color="#8097CD" stop-opacity="0"/>
</linearGradient>
<linearGradient id="paint9_linear_3988_13324" x1="97.2006" y1="49.4762" x2="62.1517" y2="49.4762" gradientUnits="userSpaceOnUse">
<stop offset="0.354167" stop-color="#8097CD"/>
<stop offset="1" stop-color="#8097CD" stop-opacity="0"/>
</linearGradient>
<linearGradient id="paint10_linear_3988_13324" x1="97.2006" y1="46.3834" x2="62.1517" y2="46.3834" gradientUnits="userSpaceOnUse">
<stop offset="0.354167" stop-color="#8097CD"/>
<stop offset="1" stop-color="#8097CD" stop-opacity="0"/>
</linearGradient>
<linearGradient id="paint11_linear_3988_13324" x1="97.2006" y1="43.2897" x2="62.1517" y2="43.2897" gradientUnits="userSpaceOnUse">
<stop offset="0.354167" stop-color="#8097CD"/>
<stop offset="1" stop-color="#8097CD" stop-opacity="0"/>
</linearGradient>
<linearGradient id="paint12_linear_3988_13324" x1="97.2006" y1="40.1979" x2="62.1517" y2="40.1979" gradientUnits="userSpaceOnUse">
<stop offset="0.354167" stop-color="#8097CD"/>
<stop offset="1" stop-color="#8097CD" stop-opacity="0"/>
</linearGradient>
<linearGradient id="paint13_linear_3988_13324" x1="97.2006" y1="37.1061" x2="62.1517" y2="37.1061" gradientUnits="userSpaceOnUse">
<stop offset="0.354167" stop-color="#8097CD"/>
<stop offset="1" stop-color="#8097CD" stop-opacity="0"/>
</linearGradient>
<linearGradient id="paint14_linear_3988_13324" x1="97.2006" y1="34.0143" x2="62.1517" y2="34.0143" gradientUnits="userSpaceOnUse">
<stop offset="0.354167" stop-color="#8097CD"/>
<stop offset="1" stop-color="#8097CD" stop-opacity="0"/>
</linearGradient>
<linearGradient id="paint15_linear_3988_13324" x1="222.63" y1="164.8" x2="149.768" y2="164.8" gradientUnits="userSpaceOnUse">
<stop offset="0.046875" stop-color="#8097CD"/>
<stop offset="1" stop-color="#8097CD" stop-opacity="0"/>
</linearGradient>
<linearGradient id="paint16_linear_3988_13324" x1="174.116" y1="41.9629" x2="174.116" y2="159.502" gradientUnits="userSpaceOnUse">
<stop offset="0.171875" stop-color="#1452FB" stop-opacity="0"/>
<stop offset="1" stop-color="#3744C4"/>
</linearGradient>
<linearGradient id="paint17_linear_3988_13324" x1="174.114" y1="73.527" x2="174.114" y2="159.502" gradientUnits="userSpaceOnUse">
<stop stop-color="#1452FB" stop-opacity="0"/>
<stop offset="1" stop-color="#3744C4"/>
</linearGradient>
<linearGradient id="paint18_linear_3988_13324" x1="351.564" y1="203.941" x2="244.214" y2="203.941" gradientUnits="userSpaceOnUse">
<stop offset="0.046875" stop-color="#8097CD"/>
<stop offset="1" stop-color="#8097CD" stop-opacity="0"/>
</linearGradient>
<linearGradient id="paint19_linear_3988_13324" x1="188.746" y1="108.94" x2="373.54" y2="191.763" gradientUnits="userSpaceOnUse">
<stop stop-color="#6D7AFA"/>
<stop offset="0.567708" stop-color="#3744C4"/>
</linearGradient>
<linearGradient id="paint20_linear_3988_13324" x1="280.423" y1="26.0303" x2="280.423" y2="180.774" gradientUnits="userSpaceOnUse">
<stop offset="0.171875" stop-color="#1452FB" stop-opacity="0"/>
<stop offset="1" stop-color="#3744C4"/>
</linearGradient>
<linearGradient id="paint21_linear_3988_13324" x1="280.422" y1="32.4082" x2="280.422" y2="180.775" gradientUnits="userSpaceOnUse">
<stop offset="0.171875" stop-color="#1452FB" stop-opacity="0"/>
<stop offset="1" stop-color="#3744C4"/>
</linearGradient>
<linearGradient id="paint22_linear_3988_13324" x1="413.162" y1="289.144" x2="340.3" y2="289.144" gradientUnits="userSpaceOnUse">
<stop offset="0.046875" stop-color="#8097CD"/>
<stop offset="1" stop-color="#8097CD" stop-opacity="0"/>
</linearGradient>
<linearGradient id="paint23_linear_3988_13324" x1="364.647" y1="166.308" x2="364.647" y2="283.847" gradientUnits="userSpaceOnUse">
<stop offset="0.171875" stop-color="#1452FB" stop-opacity="0"/>
<stop offset="1" stop-color="#3744C4"/>
</linearGradient>
<linearGradient id="paint24_linear_3988_13324" x1="364.646" y1="197.872" x2="364.646" y2="283.847" gradientUnits="userSpaceOnUse">
<stop stop-color="#1452FB" stop-opacity="0"/>
<stop offset="1" stop-color="#3744C4"/>
</linearGradient>
<linearGradient id="paint25_linear_3988_13324" x1="349.521" y1="200.856" x2="378.267" y2="193.822" gradientUnits="userSpaceOnUse">
<stop stop-color="#654111"/>
<stop offset="1" stop-color="#8D5E28"/>
</linearGradient>
<linearGradient id="paint26_linear_3988_13324" x1="364.539" y1="193.375" x2="367.088" y2="193.554" gradientUnits="userSpaceOnUse">
<stop stop-color="#654111"/>
<stop offset="1" stop-color="#8D5E28"/>
</linearGradient>
<linearGradient id="paint27_linear_3988_13324" x1="369.407" y1="196.154" x2="371.955" y2="196.333" gradientUnits="userSpaceOnUse">
<stop stop-color="#654111"/>
<stop offset="1" stop-color="#8D5E28"/>
</linearGradient>
<linearGradient id="paint28_linear_3988_13324" x1="136.742" y1="360.886" x2="74.2788" y2="360.886" gradientUnits="userSpaceOnUse">
<stop offset="0.046875" stop-color="#8097CD"/>
<stop offset="1" stop-color="#8097CD" stop-opacity="0"/>
</linearGradient>
<linearGradient id="paint29_linear_3988_13324" x1="65.7041" y1="313.047" x2="122.431" y2="338.215" gradientUnits="userSpaceOnUse">
<stop stop-color="#6D7AFA"/>
<stop offset="0.567708" stop-color="#3744C4"/>
</linearGradient>
<linearGradient id="paint30_linear_3988_13324" x1="240.15" y1="304.799" x2="283.602" y2="337.477" gradientUnits="userSpaceOnUse">
<stop stop-color="#6D7AFA"/>
<stop offset="0.567708" stop-color="#3744C4"/>
</linearGradient>
<linearGradient id="paint31_linear_3988_13324" x1="250.775" y1="324.023" x2="246.68" y2="324.023" gradientUnits="userSpaceOnUse">
<stop offset="0.046875" stop-color="#8097CD"/>
<stop offset="1" stop-color="#8097CD" stop-opacity="0"/>
</linearGradient>
<linearGradient id="paint32_linear_3988_13324" x1="283.996" y1="362" x2="252.996" y2="344" gradientUnits="userSpaceOnUse">
<stop stop-color="#FF9500"/>
<stop offset="1" stop-color="#FF9500" stop-opacity="0"/>
</linearGradient>
<linearGradient id="paint33_linear_3988_13324" x1="233.048" y1="327.567" x2="238.206" y2="339.235" gradientUnits="userSpaceOnUse">
<stop stop-color="#FFAE75"/>
<stop offset="0.349821" stop-color="#FF9500"/>
<stop offset="0.792547" stop-color="#FB620D"/>
<stop offset="1" stop-color="#FA6613"/>
</linearGradient>
<linearGradient id="paint34_linear_3988_13324" x1="242.016" y1="307.65" x2="256.023" y2="310.697" gradientUnits="userSpaceOnUse">
<stop stop-color="#6D7AFA"/>
<stop offset="0.567708" stop-color="#3744C4"/>
</linearGradient>
<linearGradient id="paint35_linear_3988_13324" x1="226.639" y1="328.113" x2="235.982" y2="331.768" gradientUnits="userSpaceOnUse">
<stop stop-color="#FFAE75"/>
<stop offset="0.349821" stop-color="#FF9500"/>
<stop offset="0.792547" stop-color="#FB620D"/>
<stop offset="1" stop-color="#FA6613"/>
</linearGradient>
<linearGradient id="paint36_linear_3988_13324" x1="251.444" y1="311.3" x2="243.421" y2="306.821" gradientUnits="userSpaceOnUse">
<stop offset="0.046875" stop-color="#8097CD"/>
<stop offset="1" stop-color="#8097CD" stop-opacity="0"/>
</linearGradient>
<linearGradient id="paint37_linear_3988_13324" x1="264.522" y1="311.365" x2="271.45" y2="321.076" gradientUnits="userSpaceOnUse">
<stop stop-color="#FFAE75"/>
<stop offset="0.349821" stop-color="#FF9500"/>
<stop offset="0.792547" stop-color="#FB620D"/>
<stop offset="1" stop-color="#FA6613"/>
</linearGradient>
<linearGradient id="paint38_linear_3988_13324" x1="263.454" y1="314.388" x2="264.842" y2="318.376" gradientUnits="userSpaceOnUse">
<stop stop-color="#FFAE75"/>
<stop offset="0.349821" stop-color="#FF9500"/>
<stop offset="0.792547" stop-color="#FB620D"/>
<stop offset="1" stop-color="#FA6613"/>
</linearGradient>
<linearGradient id="paint39_linear_3988_13324" x1="342.591" y1="385.306" x2="299.256" y2="385.306" gradientUnits="userSpaceOnUse">
<stop stop-color="#8097CD"/>
<stop offset="1" stop-color="#8097CD" stop-opacity="0"/>
</linearGradient>
<linearGradient id="paint40_linear_3988_13324" x1="76.822" y1="192.277" x2="62.1698" y2="192.277" gradientUnits="userSpaceOnUse">
<stop stop-color="#8097CD"/>
<stop offset="0.828704" stop-color="#8097CD" stop-opacity="0.71"/>
<stop offset="1" stop-color="#8097CD" stop-opacity="0"/>
</linearGradient>
<linearGradient id="paint41_linear_3988_13324" x1="55.2048" y1="218.582" x2="40.5526" y2="218.582" gradientUnits="userSpaceOnUse">
<stop stop-color="#8097CD"/>
<stop offset="0.828704" stop-color="#8097CD" stop-opacity="0.71"/>
<stop offset="1" stop-color="#8097CD" stop-opacity="0"/>
</linearGradient>
<linearGradient id="paint42_linear_3988_13324" x1="33.0876" y1="241.663" x2="18.4354" y2="241.663" gradientUnits="userSpaceOnUse">
<stop stop-color="#8097CD"/>
<stop offset="0.828704" stop-color="#8097CD" stop-opacity="0.71"/>
<stop offset="1" stop-color="#8097CD" stop-opacity="0"/>
</linearGradient>
<linearGradient id="paint43_linear_3988_13324" x1="77.5779" y1="206.649" x2="63.7784" y2="206.649" gradientUnits="userSpaceOnUse">
<stop stop-color="#656CCD"/>
<stop offset="0.828704" stop-color="#656CCD" stop-opacity="0.71"/>
<stop offset="1" stop-color="#656CCD" stop-opacity="0"/>
</linearGradient>
<linearGradient id="paint44_linear_3988_13324" x1="33.8435" y1="232" x2="20.044" y2="232" gradientUnits="userSpaceOnUse">
<stop stop-color="#666CCE"/>
<stop offset="0.578125" stop-color="#666CCE" stop-opacity="0.797689"/>
<stop offset="0.828704" stop-color="#666CCE" stop-opacity="0.71"/>
<stop offset="1" stop-color="#8097CD" stop-opacity="0"/>
</linearGradient>
<linearGradient id="paint45_linear_3988_13324" x1="55.9607" y1="217.318" x2="42.1612" y2="217.318" gradientUnits="userSpaceOnUse">
<stop stop-color="#656CCD"/>
<stop offset="0.828704" stop-color="#656CCD" stop-opacity="0.71"/>
<stop offset="1" stop-color="#656CCD" stop-opacity="0"/>
</linearGradient>
<linearGradient id="paint46_linear_3988_13324" x1="-7.92745" y1="139.817" x2="112.888" y2="186.556" gradientUnits="userSpaceOnUse">
<stop stop-color="#FFAE75"/>
<stop offset="0.328125" stop-color="#FB620D"/>
<stop offset="0.692708" stop-color="#FA6613"/>
<stop offset="1" stop-color="#FF9500"/>
</linearGradient>
</defs>
</svg>
