<svg width="80" height="11" viewBox="0 0 80 11" fill="none" xmlns="http://www.w3.org/2000/svg">
<path d="M20.9612 2.71792L22.3143 1.4836C22.3417 1.45889 22.3775 1.44547 22.4144 1.44604C22.4513 1.44661 22.4866 1.46113 22.5133 1.48668C23.2226 2.19247 23.7062 3.09305 23.9029 4.07416C24.0996 5.05526 24.0004 6.07268 23.6179 6.99732C23.2354 7.92196 22.5869 8.71216 21.7547 9.26766C20.9224 9.82316 19.9439 10.1189 18.9433 10.1174H15.7483C14.4068 10.1174 13.1203 9.58453 12.1717 8.63594C11.2231 7.68736 10.6902 6.4008 10.6902 5.0593C10.6902 3.71779 11.2231 2.43124 12.1717 1.48265C13.1203 0.534064 14.4068 0.00115244 15.7483 0.00115244H18.9433C19.5594 0.000850371 20.1704 0.114257 20.7454 0.335675C20.7605 0.339075 20.7743 0.346851 20.785 0.358032C20.7958 0.369214 20.803 0.383305 20.8057 0.398552C20.8085 0.413799 20.8067 0.429526 20.8006 0.443773C20.7945 0.45802 20.7844 0.470157 20.7714 0.478669L19.2571 1.86118C19.1904 1.91473 19.1059 1.94113 19.0206 1.93507C18.9042 1.92195 18.7871 1.91538 18.67 1.91539H16.0216C15.1934 1.92402 14.4021 2.25907 13.8195 2.84776C13.2369 3.43646 12.9102 4.23124 12.9102 5.05947C12.9102 5.88769 13.2369 6.68247 13.8195 7.27117C14.4021 7.85986 15.1934 8.19491 16.0216 8.20355H18.67C19.2838 8.20449 19.8844 8.02548 20.3975 7.68865C20.9107 7.35182 21.3138 6.87196 21.557 6.30842C21.8003 5.74488 21.873 5.12239 21.7662 4.51796C21.6594 3.91352 21.3778 3.35365 20.9561 2.9076C20.9437 2.89497 20.9339 2.87997 20.9275 2.86349C20.921 2.847 20.9179 2.82938 20.9183 2.81167C20.9188 2.79396 20.9229 2.77653 20.9302 2.76042C20.9376 2.74432 20.9482 2.72986 20.9612 2.71792Z" fill="#0D67AF"/>
<path d="M36.7659 1.90882C36.8021 1.90882 36.8369 1.89442 36.8625 1.86878C36.8882 1.84315 36.9026 1.80838 36.9026 1.77212V0.141618C36.9026 0.105361 36.8882 0.0705891 36.8625 0.0449517C36.8369 0.0193142 36.8021 0.00491136 36.7659 0.00491136L30.6523 0.00115244C29.3108 0.00115244 28.0243 0.534062 27.0757 1.48265C26.1271 2.43123 25.5942 3.71779 25.5942 5.05929C25.5942 6.4008 26.1271 7.68736 27.0757 8.63594C28.0243 9.58453 29.3108 10.1174 30.6523 10.1174L36.7659 10.1124C36.8021 10.1124 36.8369 10.098 36.8625 10.0724C36.8882 10.0468 36.9026 10.012 36.9026 9.97574V8.34524C36.9026 8.30898 36.8882 8.27421 36.8625 8.24858C36.8369 8.22294 36.8021 8.20854 36.7659 8.20854L30.9256 8.20354C30.0974 8.19491 29.306 7.85986 28.7235 7.27117C28.1409 6.68247 27.8141 5.88769 27.8141 5.05946C27.8141 4.23124 28.1409 3.43646 28.7235 2.84776C29.306 2.25907 30.0974 1.92402 30.9256 1.91539L36.7659 1.90882Z" fill="#0D67AF"/>
<path d="M9.83104 0.00491181H0.136707C0.10045 0.00491181 0.0656778 0.0193147 0.0400403 0.0449521C0.0144029 0.0705896 0 0.105361 0 0.141618V9.98449C0 10.0207 0.0144029 10.0555 0.0400403 10.0812C0.0656778 10.1068 0.10045 10.1212 0.136707 10.1212H2.0506C2.08685 10.1212 2.12163 10.1068 2.14726 10.0812C2.1729 10.0555 2.1873 10.0207 2.1873 9.98449V2.04553C2.1873 2.00927 2.20171 1.9745 2.22734 1.94887C2.25298 1.92323 2.28775 1.90882 2.32401 1.90882H9.83104C9.8673 1.90882 9.90207 1.89442 9.92771 1.86878C9.95335 1.84315 9.96775 1.80838 9.96775 1.77212V0.141618C9.96775 0.105361 9.95335 0.0705896 9.92771 0.0449521C9.90207 0.0193147 9.8673 0.00491181 9.83104 0.00491181Z" fill="#0D67AF"/>
<path d="M38.8535 1.91389H44.1105C44.1468 1.91389 44.1816 1.9283 44.2072 1.95393C44.2328 1.97957 44.2472 2.01434 44.2472 2.0506V9.98457C44.2472 10.0208 44.2616 10.0556 44.2873 10.0812C44.3129 10.1069 44.3477 10.1213 44.3839 10.1213H46.2978C46.3341 10.1213 46.3689 10.1069 46.3945 10.0812C46.4201 10.0556 46.4345 10.0208 46.4345 9.98457V0.00252925C46.4345 0.00252925 46.373 0 46.2978 0H38.8535C38.8172 0 38.7825 0.0144029 38.7568 0.0400403C38.7312 0.0656778 38.7168 0.10045 38.7168 0.136707V1.77719C38.7168 1.81344 38.7312 1.84821 38.7568 1.87385C38.7825 1.89949 38.8172 1.91389 38.8535 1.91389Z" fill="#EF4158"/>
<path fill-rule="evenodd" clip-rule="evenodd" d="M64.4512 5.1987C63.8836 5.7663 63.1141 6.08557 62.3113 6.08645L55.5127 6.08727C55.4967 6.0854 55.4806 6.08789 55.466 6.09447C55.4514 6.10106 55.4389 6.11149 55.4298 6.12465C55.4206 6.1378 55.4153 6.1532 55.4142 6.16918C55.4132 6.18516 55.4165 6.20113 55.4238 6.21537C55.6567 6.80058 56.0595 7.30268 56.5803 7.65703C57.101 8.01137 57.7159 8.20174 58.3458 8.20363H64.5299C64.5661 8.20363 64.6009 8.21803 64.6266 8.24367C64.6522 8.2693 64.6666 8.30408 64.6666 8.34033V9.98081C64.6666 10.0171 64.6522 10.0518 64.6266 10.0775C64.6009 10.1031 64.5661 10.1175 64.5299 10.1175H58.0725C56.731 10.1175 55.4444 9.58461 54.4958 8.63603C53.5472 7.68744 53.0143 6.40088 53.0143 5.05938C53.0143 3.71787 53.5472 2.43132 54.4958 1.48273C55.4444 0.534145 56.731 0.00123596 58.0725 0.00123596L62.3113 0.013198C63.1141 0.0140845 63.8837 0.333359 64.4513 0.900973C65.0189 1.46859 65.3382 2.23818 65.339 3.0409V3.05881C65.3381 3.86153 65.0189 4.6311 64.4512 5.1987ZM56.5192 2.50482C55.9865 2.88608 55.5855 3.42373 55.3721 4.04317C55.3658 4.05805 55.3634 4.07432 55.3652 4.09039C55.367 4.10647 55.373 4.12179 55.3825 4.13487C55.392 4.14795 55.4048 4.15834 55.4195 4.16501C55.4343 4.17169 55.4505 4.17443 55.4666 4.17297H62.1174C62.7692 4.17297 63.2995 3.71063 63.2995 3.05881V3.0409C63.2995 2.38909 62.7692 1.91547 62.1174 1.91547H58.3455C57.6903 1.91757 57.0521 2.12355 56.5192 2.50482Z" fill="#EF4158"/>
<path d="M77.4497 0.00164794H79.6543C79.8094 0.00164794 79.8424 0.0870895 79.728 0.191533L74.4209 5.03329L79.7892 9.93454C79.904 10.0393 79.8707 10.125 79.7153 10.125H77.5196C77.4186 10.1197 77.322 10.0822 77.2438 10.0181L73.1005 6.23795L68.9571 10.0181C68.8789 10.0822 68.7824 10.1197 68.6814 10.125H66.4847C66.3298 10.125 66.2966 10.0395 66.411 9.93502L71.7801 5.03324L66.4739 0.19208C66.3591 0.0873626 66.3923 0.00164794 66.5477 0.00164794H68.7511C68.8521 0.00696156 68.9487 0.0444194 69.0269 0.108552L73.1005 3.82774L77.1741 0.108689C77.2522 0.0445129 77.3488 0.00700551 77.4497 0.00164794Z" fill="#EF4158"/>
<path d="M48.2402 0H51.8285C51.904 0 51.9652 0.0612056 51.9652 0.136707V1.77718C51.9652 1.85269 51.904 1.91389 51.8285 1.91389H48.2402C48.1647 1.91389 48.1035 1.85269 48.1035 1.77718V0.136707C48.1035 0.0612056 48.1647 0 48.2402 0Z" fill="#EF4158"/>
</svg>
