<svg width="323" height="196" viewBox="0 0 323 196" fill="none" xmlns="http://www.w3.org/2000/svg">
<g clip-path="url(#clip0_4419_37620)">
<g filter="url(#filter0_dd_4419_37620)">
<path d="M284.391 208.803C291.864 189.391 294.631 168.485 292.467 147.797C290.303 127.109 283.269 107.228 271.941 89.7829C260.613 72.3374 245.314 57.8235 227.296 47.43C209.279 37.0366 189.055 31.0591 168.282 29.9874L167.604 43.1384C186.299 44.1029 204.5 49.4826 220.716 58.8368C236.932 68.1909 250.702 81.2534 260.897 96.9543C271.092 112.655 277.422 130.548 279.37 149.167C281.318 167.786 278.827 186.601 272.102 204.072L284.391 208.803Z" fill="#A3A9E2"/>
</g>
<g filter="url(#filter1_b_4419_37620)">
<path d="M255.005 29.8223C227.777 10.4875 195.225 0.0687107 161.831 0.000338494C128.436 -0.0680337 95.8416 10.2174 68.5347 29.4405C41.2278 48.6636 20.5514 75.8791 9.35233 107.34C-1.8468 138.8 -3.01788 172.959 6.00031 205.113L11.2689 203.635C2.55627 172.571 3.68765 139.57 14.5073 109.175C25.327 78.78 45.3029 52.4867 71.6846 33.9149C98.0663 15.3431 129.556 5.40616 161.819 5.47222C194.082 5.53828 225.532 15.6041 251.837 34.2838L255.005 29.8223Z" fill="white" fill-opacity="0.5"/>
</g>
<g filter="url(#filter2_b_4419_37620)">
<path d="M245.922 45.5468C260.536 56.1871 273.008 69.4941 282.679 84.7671L250.605 105.077C243.494 93.8464 234.323 84.0615 223.577 76.2375L245.922 45.5468Z" fill="#2CC67C" fill-opacity="0.6"/>
</g>
<path d="M35.875 230.714C20.1295 202.135 14.5991 169.041 20.1965 136.896C25.7939 104.75 42.1845 75.4738 66.663 53.899C91.1416 32.3242 122.245 19.7406 154.839 18.2251C187.433 16.7096 219.57 26.3529 245.944 45.5633L223.649 76.1735C204.238 62.0351 180.586 54.9379 156.598 56.0532C132.609 57.1686 109.718 66.4298 91.7024 82.3084C73.6868 98.1869 61.6237 119.734 57.5041 143.392C53.3846 167.05 57.4549 191.406 69.0432 212.44L35.875 230.714Z" fill="url(#paint0_linear_4419_37620)"/>
<path d="M127.01 138L138.338 110.4H122.21V104.4H145.73V109.68L134.69 138H127.01ZM161.532 138.576C159.74 138.576 158.044 138.288 156.444 137.712C154.876 137.104 153.5 136.128 152.316 134.784C151.164 133.408 150.252 131.616 149.58 129.408C148.908 127.168 148.572 124.432 148.572 121.2V120.24C148.572 117.232 148.908 114.688 149.58 112.608C150.252 110.528 151.164 108.848 152.316 107.568C153.5 106.256 154.876 105.312 156.444 104.736C158.044 104.128 159.74 103.824 161.532 103.824C163.324 103.824 165.004 104.128 166.572 104.736C168.172 105.312 169.548 106.256 170.7 107.568C171.884 108.848 172.812 110.528 173.484 112.608C174.156 114.688 174.492 117.232 174.492 120.24V121.2C174.492 124.432 174.156 127.168 173.484 129.408C172.812 131.616 171.884 133.408 170.7 134.784C169.548 136.128 168.172 137.104 166.572 137.712C165.004 138.288 163.324 138.576 161.532 138.576ZM161.532 132.528C162.3 132.528 163.02 132.368 163.692 132.048C164.396 131.696 165.004 131.104 165.516 130.272C166.06 129.408 166.476 128.24 166.764 126.768C167.084 125.296 167.244 123.44 167.244 121.2V120.24C167.244 118.224 167.084 116.56 166.764 115.248C166.476 113.904 166.06 112.832 165.516 112.032C165.004 111.232 164.396 110.672 163.692 110.352C163.02 110.032 162.3 109.872 161.532 109.872C160.764 109.872 160.028 110.032 159.324 110.352C158.652 110.672 158.044 111.232 157.5 112.032C156.988 112.832 156.572 113.904 156.252 115.248C155.964 116.56 155.82 118.224 155.82 120.24V121.2C155.82 123.44 155.964 125.296 156.252 126.768C156.572 128.24 156.988 129.408 157.5 130.272C158.044 131.104 158.652 131.696 159.324 132.048C160.028 132.368 160.764 132.528 161.532 132.528Z" fill="white"/>
<path d="M180.035 138L195.395 115.6H198.595L183.235 138H180.035ZM181.955 126.16C181.208 126.16 180.515 126.032 179.875 125.776C179.256 125.52 178.723 125.168 178.275 124.72C177.827 124.251 177.475 123.696 177.219 123.056C176.963 122.395 176.835 121.669 176.835 120.88V120.56C176.835 119.771 176.963 119.056 177.219 118.416C177.475 117.755 177.827 117.2 178.275 116.752C178.723 116.283 179.256 115.92 179.875 115.664C180.515 115.408 181.208 115.28 181.955 115.28C182.702 115.28 183.384 115.408 184.003 115.664C184.643 115.92 185.187 116.283 185.635 116.752C186.083 117.2 186.435 117.755 186.691 118.416C186.947 119.056 187.075 119.771 187.075 120.56V120.88C187.075 121.669 186.947 122.395 186.691 123.056C186.435 123.696 186.083 124.251 185.635 124.72C185.187 125.168 184.643 125.52 184.003 125.776C183.384 126.032 182.702 126.16 181.955 126.16ZM181.955 123.728C182.68 123.728 183.256 123.493 183.683 123.024C184.11 122.555 184.323 121.84 184.323 120.88V120.56C184.323 119.6 184.11 118.885 183.683 118.416C183.256 117.947 182.68 117.712 181.955 117.712C181.23 117.712 180.654 117.947 180.227 118.416C179.8 118.885 179.587 119.6 179.587 120.56V120.88C179.587 121.84 179.8 122.555 180.227 123.024C180.654 123.493 181.23 123.728 181.955 123.728ZM196.675 138.32C195.928 138.32 195.235 138.192 194.595 137.936C193.976 137.68 193.443 137.328 192.995 136.88C192.547 136.411 192.195 135.856 191.939 135.216C191.683 134.555 191.555 133.829 191.555 133.04V132.72C191.555 131.931 191.683 131.216 191.939 130.576C192.195 129.915 192.547 129.36 192.995 128.912C193.443 128.443 193.976 128.08 194.595 127.824C195.235 127.568 195.928 127.44 196.675 127.44C197.422 127.44 198.104 127.568 198.723 127.824C199.363 128.08 199.907 128.443 200.355 128.912C200.803 129.36 201.155 129.915 201.411 130.576C201.667 131.216 201.795 131.931 201.795 132.72V133.04C201.795 133.829 201.667 134.555 201.411 135.216C201.155 135.856 200.803 136.411 200.355 136.88C199.907 137.328 199.363 137.68 198.723 137.936C198.104 138.192 197.422 138.32 196.675 138.32ZM196.675 135.888C197.4 135.888 197.976 135.653 198.403 135.184C198.83 134.715 199.043 134 199.043 133.04V132.72C199.043 131.76 198.83 131.045 198.403 130.576C197.976 130.107 197.4 129.872 196.675 129.872C195.95 129.872 195.374 130.107 194.947 130.576C194.52 131.045 194.307 131.76 194.307 132.72V133.04C194.307 134 194.52 134.715 194.947 135.184C195.374 135.653 195.95 135.888 196.675 135.888Z" fill="#A3A9E2"/>
<path d="M154.481 167.82V166H146.851V156.2H148.167V164.852H153.095V156.2H154.411V164.852H155.741V167.82H154.481ZM160.22 166.14C159.744 166.14 159.291 166.065 158.862 165.916C158.432 165.767 158.054 165.538 157.728 165.23C157.401 164.913 157.14 164.516 156.944 164.04C156.748 163.564 156.65 163.004 156.65 162.36V162.08C156.65 161.464 156.743 160.932 156.93 160.484C157.116 160.027 157.364 159.649 157.672 159.35C157.989 159.042 158.353 158.813 158.764 158.664C159.184 158.515 159.622 158.44 160.08 158.44C161.181 158.44 162.026 158.739 162.614 159.336C163.211 159.924 163.51 160.769 163.51 161.87V162.654H157.882C157.882 163.083 157.952 163.452 158.092 163.76C158.232 164.059 158.414 164.301 158.638 164.488C158.862 164.675 159.109 164.81 159.38 164.894C159.66 164.978 159.94 165.02 160.22 165.02C160.78 165.02 161.209 164.927 161.508 164.74C161.816 164.553 162.035 164.297 162.166 163.97H163.37C163.295 164.325 163.16 164.637 162.964 164.908C162.777 165.179 162.544 165.407 162.264 165.594C161.993 165.771 161.68 165.907 161.326 166C160.98 166.093 160.612 166.14 160.22 166.14ZM157.882 161.646H162.348C162.338 161.263 162.273 160.941 162.152 160.68C162.04 160.409 161.886 160.195 161.69 160.036C161.494 159.868 161.26 159.747 160.99 159.672C160.728 159.597 160.448 159.56 160.15 159.56C159.86 159.56 159.58 159.602 159.31 159.686C159.039 159.761 158.796 159.887 158.582 160.064C158.376 160.232 158.208 160.447 158.078 160.708C157.947 160.969 157.882 161.282 157.882 161.646ZM164.774 166.14C164.699 166.14 164.629 166.135 164.564 166.126C164.499 166.126 164.429 166.117 164.354 166.098V164.866C164.373 164.875 164.401 164.88 164.438 164.88C164.475 164.88 164.517 164.88 164.564 164.88C164.779 164.88 164.961 164.815 165.11 164.684C165.259 164.553 165.381 164.325 165.474 163.998C165.567 163.671 165.637 163.228 165.684 162.668C165.731 162.108 165.754 161.399 165.754 160.54V158.58H171.074V166H169.842V159.672H166.986V160.82C166.986 161.856 166.939 162.715 166.846 163.396C166.753 164.077 166.613 164.623 166.426 165.034C166.249 165.435 166.02 165.72 165.74 165.888C165.46 166.056 165.138 166.14 164.774 166.14ZM173.313 166V158.58H174.545V161.38H176.323C177.257 161.38 177.943 161.585 178.381 161.996C178.829 162.407 179.053 162.976 179.053 163.704C179.053 164.059 178.997 164.381 178.885 164.67C178.773 164.95 178.605 165.188 178.381 165.384C178.157 165.58 177.873 165.734 177.527 165.846C177.191 165.949 176.79 166 176.323 166H173.313ZM174.545 164.908H176.253C176.841 164.908 177.247 164.805 177.471 164.6C177.705 164.395 177.821 164.091 177.821 163.69C177.821 163.289 177.705 162.985 177.471 162.78C177.247 162.575 176.841 162.472 176.253 162.472H174.545V164.908Z" fill="#C5CAFF"/>
</g>
<defs>
<filter id="filter0_dd_4419_37620" x="151.605" y="17.9873" width="157.578" height="210.815" filterUnits="userSpaceOnUse" color-interpolation-filters="sRGB">
<feFlood flood-opacity="0" result="BackgroundImageFix"/>
<feColorMatrix in="SourceAlpha" type="matrix" values="0 0 0 0 0 0 0 0 0 0 0 0 0 0 0 0 0 0 127 0" result="hardAlpha"/>
<feOffset dy="2"/>
<feGaussianBlur stdDeviation="2"/>
<feComposite in2="hardAlpha" operator="out"/>
<feColorMatrix type="matrix" values="0 0 0 0 0 0 0 0 0 0 0 0 0 0 0 0 0 0 0.02 0"/>
<feBlend mode="normal" in2="BackgroundImageFix" result="effect1_dropShadow_4419_37620"/>
<feColorMatrix in="SourceAlpha" type="matrix" values="0 0 0 0 0 0 0 0 0 0 0 0 0 0 0 0 0 0 127 0" result="hardAlpha"/>
<feOffset dy="4"/>
<feGaussianBlur stdDeviation="8"/>
<feComposite in2="hardAlpha" operator="out"/>
<feColorMatrix type="matrix" values="0 0 0 0 0 0 0 0 0 0 0 0 0 0 0 0 0 0 0.11 0"/>
<feBlend mode="normal" in2="effect1_dropShadow_4419_37620" result="effect2_dropShadow_4419_37620"/>
<feBlend mode="normal" in="SourceGraphic" in2="effect2_dropShadow_4419_37620" result="shape"/>
</filter>
<filter id="filter1_b_4419_37620" x="-15.6301" y="-15.6301" width="286.264" height="236.373" filterUnits="userSpaceOnUse" color-interpolation-filters="sRGB">
<feFlood flood-opacity="0" result="BackgroundImageFix"/>
<feGaussianBlur in="BackgroundImageFix" stdDeviation="7.81505"/>
<feComposite in2="SourceAlpha" operator="in" result="effect1_backgroundBlur_4419_37620"/>
<feBlend mode="normal" in="SourceGraphic" in2="effect1_backgroundBlur_4419_37620" result="shape"/>
</filter>
<filter id="filter2_b_4419_37620" x="207.948" y="29.9168" width="90.3618" height="90.7905" filterUnits="userSpaceOnUse" color-interpolation-filters="sRGB">
<feFlood flood-opacity="0" result="BackgroundImageFix"/>
<feGaussianBlur in="BackgroundImageFix" stdDeviation="7.81505"/>
<feComposite in2="SourceAlpha" operator="in" result="effect1_backgroundBlur_4419_37620"/>
<feBlend mode="normal" in="SourceGraphic" in2="effect1_backgroundBlur_4419_37620" result="shape"/>
</filter>
<linearGradient id="paint0_linear_4419_37620" x1="15.0401" y1="18.0703" x2="348.34" y2="105.958" gradientUnits="userSpaceOnUse">
<stop stop-color="#6D7AFA"/>
<stop offset="0.745781" stop-color="#3744C4"/>
</linearGradient>
<clipPath id="clip0_4419_37620">
<rect width="323" height="196" fill="white"/>
</clipPath>
</defs>
</svg>
