<svg width="24" height="24" viewBox="0 0 24 24" fill="none" xmlns="http://www.w3.org/2000/svg">
<path fill-rule="evenodd" clip-rule="evenodd" d="M18.5291 5.62816C19.0945 5.62816 19.637 5.46093 20.1031 5.15689C20.5692 4.84525 20.9283 4.41199 21.1499 3.89512C21.3715 3.37824 21.4174 2.81577 21.3104 2.26849C21.2034 1.72122 20.936 1.21955 20.5387 0.824292C20.1413 0.429037 19.637 0.163 19.0869 0.0565856C18.5368 -0.0574302 17.9713 0.00337825 17.4517 0.216208C16.9322 0.429037 16.489 0.786286 16.1834 1.25755C15.8777 1.72882 15.7096 2.26089 15.7096 2.82337C15.7096 3.56827 16.0153 4.29037 16.5425 4.81484C17.0773 5.34692 17.7879 5.64336 18.5444 5.64336L18.5291 5.62816ZM17.1385 2.80817C17.1385 2.43571 17.2836 2.09367 17.5434 1.82763C17.7803 1.592 18.0859 1.44758 18.4221 1.42477H18.5291C18.8042 1.42477 19.0716 1.50839 19.3008 1.66041C19.5301 1.81243 19.7058 2.02526 19.8128 2.28369C19.9198 2.53453 19.9427 2.81577 19.8892 3.0818C19.8357 3.35544 19.7058 3.59868 19.5071 3.7887C19.3085 3.98633 19.064 4.11555 18.7965 4.16875C18.5291 4.22196 18.2464 4.19156 17.9943 4.09274C17.7421 3.98633 17.5205 3.8115 17.3677 3.58347C17.2149 3.35544 17.1308 3.0894 17.1385 2.80817Z" fill="#3744C4"/>
<path fill-rule="evenodd" clip-rule="evenodd" d="M23.4804 10.9946C23.1519 10.6678 22.6858 10.4777 22.2197 10.4777L19.5301 10.4929L18.17 7.26249C18.1242 6.88243 17.9866 6.51758 17.765 6.20594C17.5358 5.87909 17.2225 5.62066 16.8711 5.46104L15.5568 4.73894C15.4957 4.70093 15.4193 4.67053 15.3505 4.66293L10.9952 3.728C10.5597 3.62158 10.1089 3.68999 9.79562 3.88762C9.71921 3.91042 9.65044 3.94843 9.59696 3.98643L5.92934 6.6088C5.68483 6.76842 5.48617 6.98885 5.34099 7.23968C5.20345 7.49812 5.13469 7.78696 5.13469 8.0682C5.13469 8.40264 5.22638 8.72189 5.40212 9.00313C5.57786 9.28437 5.83001 9.5124 6.128 9.65682C6.42599 9.80124 6.76219 9.86204 7.09075 9.83164C7.41931 9.80124 7.73258 9.67202 8.0153 9.45919L10.8883 7.40691L11.9885 7.75655L9.86439 11.1998L9.82618 11.291C9.57403 11.6939 9.42886 12.1424 9.40593 12.6212L7.74022 15.236H4.01912C3.47662 15.236 2.96468 15.4488 2.57499 15.8289C2.19295 16.2089 1.97901 16.7182 1.97901 17.2655C1.97901 17.8127 2.19295 18.3144 2.57499 18.7021C2.95704 19.0821 3.46898 19.2949 4.01912 19.2949H8.47375C8.92456 19.2949 9.37537 19.1885 9.7727 18.9757C10.17 18.7705 10.5215 18.4664 10.7813 18.1016L12.2025 16.1025L14.4336 17.4707L13.639 21.5905C13.6084 21.7273 13.6008 21.8641 13.6008 21.9933C13.6008 22.495 13.7994 22.9739 14.1433 23.3463C14.4871 23.7188 14.9532 23.9468 15.4499 23.9924C15.4804 23.9924 15.5128 23.9943 15.5453 23.9962C15.5778 23.9981 15.6103 24 15.6409 24C16.0764 24 16.5043 23.8632 16.8558 23.5971C17.2607 23.3007 17.5358 22.8598 17.6352 22.3658L18.7125 16.7334V16.4826C18.7125 16.0113 18.5291 15.5704 18.2082 15.2436L15.6944 13.0165L16.3362 11.7547L16.894 12.9937L16.9398 13.0849C17.0927 13.3737 17.3142 13.6094 17.5893 13.7842C17.8644 13.9514 18.1853 14.0426 18.5139 14.0426H22.2197C22.6934 14.0426 23.1442 13.8602 23.4804 13.5258C23.8166 13.1913 24 12.7428 24 12.2716C24 11.8003 23.8166 11.3519 23.4804 11.0174V10.9946ZM22.5559 12.2488C22.5559 12.34 22.5177 12.4236 22.4565 12.4844C22.3954 12.5452 22.3114 12.5832 22.2197 12.5832H18.5291C18.468 12.5908 18.3992 12.5756 18.3458 12.5376C18.3076 12.5148 18.277 12.4768 18.2464 12.4388L17.1843 10.0825L17.5129 9.40598L18.3916 11.4811C18.4527 11.6103 18.5368 11.7167 18.659 11.7927C18.7736 11.8687 18.9112 11.9067 19.0564 11.9143H22.2197C22.3114 11.9143 22.3954 11.9523 22.4565 12.0131C22.5177 12.074 22.5559 12.1652 22.5559 12.2488ZM14.0898 13.2977C14.1204 13.4497 14.2044 13.5866 14.3267 13.693L14.8462 14.149V14.1338L17.1156 16.1329L17.1767 16.1937C17.1767 16.1937 17.2378 16.2621 17.2607 16.3077C17.2837 16.3533 17.2913 16.3989 17.2913 16.5206L16.2063 22.0769C16.1834 22.229 16.0993 22.3582 15.9847 22.4494C15.8625 22.5406 15.7173 22.5786 15.5645 22.571C15.4117 22.5558 15.2741 22.4874 15.1748 22.3734C15.0755 22.2594 15.022 22.1149 15.022 21.9325V21.8413L15.9389 17.2199C15.9618 17.083 15.9389 16.9386 15.8854 16.8018C15.8243 16.6726 15.7326 16.5662 15.6103 16.4826L11.66 14.0578L11.553 13.9894C11.3238 13.8754 11.1404 13.7006 11.0029 13.4877C10.8653 13.2749 10.8042 13.0241 10.8042 12.7732C10.8042 12.4844 10.8959 12.2032 11.0564 11.9751C11.0946 11.9295 11.1251 11.8763 11.1175 11.8687L13.7001 7.68814C13.7536 7.59693 13.7918 7.49052 13.7994 7.3841C13.8071 7.27769 13.7994 7.16367 13.7536 7.05726C13.7154 6.95844 13.6543 6.86723 13.5779 6.79882C13.5014 6.72281 13.4097 6.6696 13.3028 6.6316L10.98 5.8943C10.9112 5.87149 10.8424 5.86389 10.7737 5.86389C10.7354 5.86389 10.6972 5.86389 10.659 5.87149C10.5521 5.8867 10.4451 5.9323 10.3534 6.00071L7.27413 8.20502C7.22064 8.23542 7.16716 8.26582 7.13659 8.29623C7.07547 8.34944 6.99906 8.37224 6.93029 8.37224C6.8386 8.37224 6.75455 8.33423 6.69342 8.27343C6.6323 8.21262 6.59409 8.12901 6.59409 8.03779C6.59409 7.98459 6.60937 7.92378 6.63994 7.87817C6.6705 7.83256 6.70871 7.78696 6.79276 7.73375L10.3534 5.1798L10.4604 5.12659C10.5062 5.09619 10.5673 5.07338 10.6208 5.07338C10.659 5.07338 10.682 5.07338 10.7049 5.08858L14.9379 6.00071L16.2292 6.71521C16.382 6.78362 16.5119 6.89003 16.6036 7.03445C16.6953 7.17127 16.7488 7.3385 16.7488 7.50572C16.7488 7.65014 16.7106 7.79456 16.6418 7.90858C16.6113 7.96178 16.5807 8.01499 16.5884 8.01499L14.1509 12.8189C14.0898 12.9633 14.0669 13.1229 14.0974 13.2749L14.0898 13.2977ZM8.45082 16.5358C8.55016 16.4826 8.64185 16.3989 8.71061 16.2925L9.91023 14.4075C10.1547 14.7419 10.468 15.0156 10.8501 15.2284L10.98 15.3044L9.59696 17.2275C9.46706 17.4099 9.29896 17.5543 9.1003 17.6531C8.90164 17.7519 8.68769 17.8051 8.46611 17.8051H4.0344C3.88158 17.7975 3.74405 17.7291 3.63708 17.6151C3.5301 17.5011 3.47662 17.3567 3.47662 17.2047C3.47662 17.0526 3.53774 16.9082 3.63708 16.7942C3.74405 16.6802 3.88158 16.6194 4.01148 16.6042H8.10699C8.2216 16.6042 8.34385 16.5662 8.44318 16.513L8.45082 16.5358Z" fill="#3744C4"/>
<path d="M6.1127 11.9976H2.29226C1.87201 11.9976 1.52817 11.6556 1.52817 11.2375C1.52817 10.8195 1.87201 10.4774 2.29226 10.4774H6.1127C6.53295 10.4774 6.87678 10.8195 6.87678 11.2375C6.87678 11.6556 6.53295 11.9976 6.1127 11.9976Z" fill="#3744C4"/>
<path d="M5.34861 13.5178C5.34861 13.0998 5.00477 12.7577 4.58452 12.7577H0.764087C0.343839 12.7577 0 13.0998 0 13.5178C0 13.9359 0.343839 14.278 0.764087 14.278H4.58452C5.00477 14.278 5.34861 13.9359 5.34861 13.5178Z" fill="#3744C4"/>
<path d="M4.58452 20.3588H8.40496C8.82521 20.3588 9.16905 20.7008 9.16905 21.1189C9.16905 21.537 8.82521 21.879 8.40496 21.879H4.58452C4.16428 21.879 3.82044 21.537 3.82044 21.1189C3.82044 20.7008 4.16428 20.3588 4.58452 20.3588Z" fill="#3744C4"/>
</svg>
