<svg width="24" height="24" viewBox="0 0 24 24" fill="none" xmlns="http://www.w3.org/2000/svg">
<rect width="24" height="24" fill="#E5E5E5"/>
<g clip-path="url(#clip0_1625_31639)">
<rect width="1920" height="10774" transform="translate(-426 -1238)" fill="white"/>
<rect x="-49.5" y="-49.5" width="367" height="303" rx="11.5" fill="white"/>
<rect x="-18" y="-18" width="60" height="60" rx="30" fill="#EDEFFF"/>
<path d="M6.12834 0.0963021C5.67451 -0.20625 4.91813 0.247578 4.99377 0.852681V2.51672C2.42209 2.2898 -0.0739613 4.40766 0.00167651 7.05499L0.00167651 19.9134C0.00167651 22.1069 1.96826 24.0735 4.16175 23.9979H19.8188C22.0123 24.0735 23.9789 22.1069 23.9789 19.9134V7.05499C24.0545 4.40766 21.6341 2.2898 18.9868 2.51672V0.852681C18.9868 0.247578 18.306 -0.130612 17.7766 0.17194C17.5496 0.247578 17.3984 0.55013 17.3984 0.852681V2.51672H12.7845V0.852681C12.7845 0.247578 12.1037 -0.130612 11.5743 0.17194C11.3473 0.323216 11.1961 0.55013 11.1961 0.852681V2.51672L6.58216 2.51672V0.852681C6.58216 0.55013 6.43089 0.247578 6.12834 0.0963021ZM11.1961 4.10511V5.76915C11.1961 6.37425 11.8768 6.75244 12.4063 6.44989C12.6332 6.29861 12.7845 6.0717 12.7845 5.76915V4.10511L17.3984 4.10511V5.76915C17.3984 6.37425 18.0791 6.75244 18.6086 6.44989C18.8355 6.29861 18.9868 6.0717 18.9868 5.76915V4.10511C20.7264 3.8782 22.3905 5.23968 22.3905 7.05499V19.4596C22.3905 21.048 21.029 22.4095 19.4406 22.4095H4.53994C2.95155 22.4095 1.59007 21.048 1.59007 19.4596L1.59007 10.3074H20.6508C21.2559 10.3074 21.6341 9.62668 21.3315 9.09721C21.1803 8.8703 20.9533 8.71903 20.6508 8.71903H1.59007V7.05499C1.59007 5.23968 3.2541 3.8782 4.99377 4.10511V5.76915C4.99377 6.37425 5.67451 6.75244 6.20397 6.44989C6.43089 6.29861 6.58216 6.0717 6.58216 5.76915V4.10511H11.1961Z" fill="#3744C4"/>
<path d="M11.5749 13.6357C10.3647 13.6357 9.45703 14.619 9.45703 15.7536C9.45703 16.9638 10.4403 17.8715 11.5749 17.8715C12.7851 17.8715 13.6927 16.8882 13.6927 15.7536C13.6927 14.619 12.7851 13.6357 11.5749 13.6357ZM11.5749 16.6613C11.1211 16.6613 10.6672 16.2831 10.6672 15.7536C10.6672 15.2998 11.0454 14.8459 11.5749 14.8459C12.0287 14.8459 12.4825 15.2241 12.4825 15.7536C12.4825 16.2831 12.1044 16.6613 11.5749 16.6613Z" fill="#3744C4"/>
<path d="M17.6257 13.6357C16.4155 13.6357 15.5078 14.619 15.5078 15.7536C15.5078 16.9638 16.4911 17.8715 17.6257 17.8715C18.7602 17.8715 19.7435 16.8882 19.7435 15.7536C19.7435 14.619 18.8359 13.6357 17.6257 13.6357ZM17.6257 16.6613C17.1718 16.6613 16.718 16.2831 16.718 15.7536C16.718 15.2998 17.0962 14.8459 17.6257 14.8459C18.1551 14.8459 18.5333 15.2241 18.5333 15.7536C18.5333 16.2831 18.1551 16.6613 17.6257 16.6613Z" fill="#3744C4"/>
<path d="M5.90301 13.6357C4.76845 13.6357 3.78516 14.619 3.78516 15.7536C3.78516 16.9638 4.76845 17.8715 5.90301 17.8715C7.03758 17.8715 8.02087 16.8882 8.02087 15.7536C8.09651 14.619 7.11322 13.6357 5.90301 13.6357ZM5.90301 16.6613C5.44919 16.6613 4.99536 16.2831 4.99536 15.7536C4.99536 15.2998 5.37355 14.8459 5.90301 14.8459C6.35684 14.8459 6.81067 15.2241 6.81067 15.7536C6.81067 16.2831 6.43248 16.6613 5.90301 16.6613Z" fill="#3744C4"/>
<rect x="-49.5" y="-49.5" width="367" height="303" rx="11.5" stroke="#E5E5EB"/>
</g>
<defs>
<clipPath id="clip0_1625_31639">
<rect width="1920" height="10774" fill="white" transform="translate(-426 -1238)"/>
</clipPath>
</defs>
</svg>
