<svg width="38" height="38" viewBox="0 0 38 38" fill="none" xmlns="http://www.w3.org/2000/svg">
<path fill-rule="evenodd" clip-rule="evenodd" d="M18.9989 0.25L19.9159 1.36018L18.9989 2.52829L18.0917 1.36018L18.9989 0.25ZM25.1278 4.71003L24.4812 3.92325L23.8345 4.71003L24.4812 5.47751L25.1278 4.71003ZM26.5273 11.3229C27.1933 11.4242 27.4105 11.8731 27.4491 12.0131C27.6759 11.82 27.8834 11.1636 27.8062 10.7243C27.5746 9.48381 25.7311 9.48864 23.7766 9.49347C22.4977 9.49829 21.1706 9.50312 20.2151 9.15559C20.1716 9.75412 20.9583 10.7147 21.7111 11.067C20.6928 11.9455 19.7614 13.5191 19.2981 15.4884C20.2054 15.5126 21.0934 15.7394 21.9041 16.1449C21.7256 13.8232 23.9648 10.9415 26.5273 11.3229ZM25.9289 12.8481C25.345 12.3365 24.5005 12.351 24.0179 12.4958C24.3316 12.1096 25.0699 11.7911 25.2871 11.7524C25.456 11.8152 25.9289 12.2979 25.9289 12.8481ZM28.6218 6.01329C28.5639 5.82021 30.5425 5.81539 30.5425 7.04624C30.5425 7.45653 30.2481 7.76062 29.9585 8.06471C29.6593 8.37846 29.3601 8.69221 29.3601 9.1218C29.3601 9.52243 29.7896 9.81687 29.9248 9.81687C29.6207 8.44121 30.8803 9.16041 31.2229 9.42106C30.8079 8.28192 31.2229 7.8475 31.5656 7.48549C31.7827 7.25862 31.9758 7.05589 31.913 6.73249C31.8503 6.37048 31.3291 6.29325 30.8272 6.22085C30.5087 6.1774 30.195 6.12913 30.0116 6.01329C29.7848 5.86848 29.5483 5.61749 29.3071 5.36649C28.6459 4.66659 27.9751 3.96187 27.4925 5.47751C28.7279 6.62148 28.0089 8.30123 26.4405 8.30123C26.4405 8.30123 26.4308 8.5474 26.4501 8.56671C28.3129 8.47982 28.9644 7.10899 28.6218 6.01329ZM14.0138 12.4958C13.5312 12.3462 12.6867 12.3365 12.1027 12.8481C12.1027 12.3027 12.5805 11.8152 12.7446 11.7524C12.9569 11.7911 13.6953 12.1096 14.0138 12.4958ZM16.142 16.2414C16.9479 15.807 17.8456 15.5512 18.7576 15.5029C18.2944 13.5287 17.3581 11.9503 16.3447 11.0719C17.0975 10.7147 17.889 9.75895 17.8456 9.16041C16.89 9.50312 15.5677 9.50312 14.284 9.49829C12.3296 9.48864 10.4861 9.48864 10.2544 10.7291C10.1724 11.1636 10.3799 11.8248 10.6115 12.0179C10.655 11.8779 10.8625 11.429 11.5333 11.3277C14.1151 10.9367 16.3785 13.8956 16.142 16.2414ZM29.5725 29.3657L30.7934 28.41C31.4932 28.8203 31.9323 29.5781 31.8262 30.4228C31.7103 31.3882 30.861 32.1653 29.8186 32.2667C28.9017 32.3584 28.0861 31.9384 27.6469 31.282C26.9568 30.6014 25.2195 30.0946 23.8055 30.0946C23.5835 30.0946 23.4822 29.9112 23.5594 29.7277C24.124 28.3714 22.9079 27.3915 21.6532 28.188C21.1079 28.5355 20.5481 29.2209 20.1282 30.3697C22.1889 30.8669 24.7852 32.2377 25.3064 33.734C25.5091 34.3133 24.8431 35.1 24.0324 35.2593C24.0227 35.2593 24.0179 35.2593 24.0082 35.2593C24.0034 35.2593 23.9986 35.2545 23.9986 35.2545C23.9937 35.2545 23.9937 35.2497 23.9889 35.2497C23.9793 35.24 23.9648 35.2304 23.9648 35.2159C23.5401 32.981 21.132 31.3206 19.8724 31.031C19.829 31.1517 19.8242 31.1565 19.8049 31.2096L19.7663 31.3109C21.1368 31.9577 22.4591 33.3141 22.8355 34.9263C23.0093 35.6648 22.1792 36.3309 21.4988 36.5143C21.4891 36.5191 21.4843 36.5191 21.4746 36.5143C21.465 36.5143 21.4601 36.5095 21.4505 36.5047C21.4408 36.4998 21.4408 36.495 21.436 36.4854C21.4312 36.4757 21.4264 36.4709 21.4264 36.4612C21.2961 34.4195 20.3936 32.6818 19.5829 31.895C19.5587 32.0495 19.5443 32.2039 19.5346 32.3584C19.5346 32.3584 20.3647 34.6608 20.3647 36.3454C20.3647 37.1273 19.1968 37.6728 18.9796 37.75C18.8059 37.6728 17.6429 37.1273 17.6429 36.3454C17.6429 34.6656 18.4729 32.3584 18.4729 32.3584C18.4633 32.2039 18.4488 32.0446 18.4247 31.895C17.6139 32.6818 16.7066 34.4195 16.5812 36.4612C16.5812 36.4709 16.5763 36.4757 16.5715 36.4854C16.5667 36.495 16.5619 36.495 16.557 36.5047C16.5474 36.5095 16.5426 36.5143 16.5329 36.5143C16.5233 36.5143 16.5184 36.5143 16.5088 36.5143C15.8283 36.3357 14.9983 35.6648 15.172 34.9214C15.5484 33.3093 16.8804 31.9481 18.2413 31.3061L18.1834 31.1565L18.1351 31.0262C16.8804 31.3061 14.4674 32.9714 14.0428 35.2111C14.0428 35.2207 14.0379 35.2255 14.0331 35.2304C14.0283 35.24 14.0234 35.24 14.0186 35.2449C14.009 35.2497 14.009 35.2545 13.9993 35.2545C13.9897 35.2545 13.9848 35.2545 13.9752 35.2545C13.1644 35.0952 12.4985 34.3084 12.7012 33.7292C13.2272 32.2329 15.8187 30.862 17.8842 30.3649C17.4643 29.2209 16.9045 28.5355 16.3592 28.1831C15.1044 27.3819 13.8835 28.3666 14.453 29.7229C14.5302 29.9015 14.4288 30.0897 14.2068 30.0897C12.9569 30.0897 11.4561 30.4855 10.6501 31.0503C10.6501 31.0503 11.6298 31.9529 11.6443 31.9722C11.7167 32.035 11.7698 32.1219 11.7746 32.2232C11.7939 32.4453 11.6153 32.6383 11.3789 32.6528C11.3209 32.6576 11.2534 32.648 11.2003 32.6287C11.1424 32.6094 11.0893 32.5756 11.0459 32.537L10.071 31.6343C9.75736 31.8129 9.38577 31.8757 9.03347 31.8033C8.48815 31.6923 8.05864 31.2723 7.97178 30.7559C7.91869 30.4469 7.98626 30.1284 8.16481 29.8725C8.16481 29.8725 4.47783 26.402 4.44405 26.3634L4.27032 26.4455C3.8746 26.682 3.40648 26.3875 3.42579 26.18C3.15071 26.4358 1.85255 26.5275 1.46648 25.2291C1.72707 25.2532 2.26275 25.2387 2.26275 25.2387C2.26275 25.2387 1.63056 24.2492 2.08902 23.7086C2.61021 23.2259 3.64778 23.7858 3.64778 23.7858C3.64778 23.7858 3.62848 23.2694 3.58987 23.0135C4.93629 23.308 4.92664 24.5726 4.68052 24.8622C4.88803 24.8333 5.21619 25.2725 5.00385 25.6732L4.9749 25.7456C5.04729 25.7842 8.83079 29.3512 8.83079 29.3512C8.99487 29.2933 9.1686 29.2595 9.34233 29.2595C9.75253 29.2595 10.1193 29.4236 10.3751 29.6891C11.3403 29.805 13.3913 29.3464 13.203 29.052C11.4512 26.5999 12.1703 24.9395 13.5602 24.4278C14.5784 26.4744 16.6922 27.879 19.1389 27.879C21.5567 27.879 23.6559 26.5082 24.679 24.5002C25.9482 25.0843 26.537 26.7061 24.8624 29.052C24.6694 29.3464 26.6673 29.7857 27.4008 29.6843C27.5408 29.1485 27.8979 28.69 28.3853 28.4003L29.5725 29.3657ZM30.3929 27.4832L29.5725 26.6144L28.7472 27.4832L29.5725 28.2459L30.3929 27.4832ZM14.1731 4.71003L13.5264 3.92325L12.8797 4.71003L13.5264 5.47751L14.1731 4.71003ZM30.6293 17.091C34.1426 17.564 36.8837 16.2849 37.3518 16.0484C37.3615 16.0435 37.3663 16.0387 37.3759 16.0387C37.3856 16.0387 37.3952 16.0435 37.4001 16.0484C37.4097 16.0532 37.4146 16.058 37.4194 16.0628C37.4242 16.0725 37.429 16.0773 37.429 16.087C37.6076 17.5447 36.6858 18.708 35.1126 18.9686C33.5249 19.2293 30.1805 18.4425 30.1805 18.4425C30.113 18.5921 30.0406 18.7418 29.9682 18.8866C32.1785 20.1512 35.2912 20.0161 35.7593 19.9871C35.7689 19.9871 35.7738 19.9871 35.7834 19.9919C35.7931 19.9967 35.7979 20.0016 35.8027 20.0016C35.8075 20.0016 35.8124 20.0112 35.8124 20.0209C35.8172 20.0305 35.8172 20.0354 35.8172 20.045C35.7786 21.5703 34.2825 21.9902 32.9651 21.8165C31.8358 21.6668 30.2626 20.9139 29.1478 20.074C29.0368 20.1995 28.9162 20.3153 28.7955 20.4263C29.862 22.1688 32.3618 22.8784 33.1774 22.9411C33.1871 22.9411 33.1967 22.946 33.2015 22.9508C33.2112 22.9556 33.216 22.9605 33.2208 22.9701C33.2257 22.9798 33.2305 22.9846 33.2305 22.9942C33.2305 23.0039 33.2257 23.0135 33.2208 23.0184C32.6852 23.9403 31.4787 24.2444 30.1612 23.6169C29.3794 23.2404 28.4046 22.2606 27.7338 21.1552C27.5794 21.2324 27.4201 21.2952 27.256 21.3483C27.6711 23.4287 29.7462 24.6933 30.1081 24.9009C30.1178 24.9057 30.1178 24.9105 30.1275 24.9153C30.1323 24.925 30.1371 24.9298 30.1371 24.9346C30.1371 24.9443 30.1371 24.9491 30.1371 24.9588C30.1323 24.9684 30.1275 24.9733 30.1275 24.9781C29.5097 25.6683 28.0861 25.6828 27.2174 24.6836C26.6818 24.0706 26.2667 22.9267 26.0399 21.5462C25.7986 21.551 25.5622 21.5751 25.3305 21.6331C25.3257 20.9959 25.2195 20.3636 25.0217 19.7554C25.2292 19.7506 25.4319 19.7313 25.6345 19.6975C26.7783 19.4948 27.6421 18.568 27.6421 17.4482C27.6421 16.8062 27.3574 16.227 26.8941 15.8118C26.87 15.7925 26.8507 15.7684 26.841 15.7394C26.8314 15.7153 26.8265 15.6815 26.8314 15.6477C26.8362 15.6139 26.841 15.5898 26.8603 15.5657C26.8748 15.5415 26.8989 15.5222 26.9231 15.5078C26.9713 15.4788 27.0196 15.4498 27.0678 15.416C31.054 12.8916 34.6927 7.03659 35.0788 6.39944C35.0836 6.38979 35.0885 6.38979 35.0981 6.38013C35.1078 6.37531 35.1126 6.37048 35.1223 6.37048C35.1319 6.37048 35.1367 6.37048 35.1464 6.37048C35.156 6.37531 35.1609 6.38013 35.1705 6.38013C36.4011 7.45653 36.5169 9.56587 35.2284 11.2167C34.3742 12.3124 32.579 13.5046 30.7452 14.5424C30.7693 14.7355 30.7886 14.9334 30.7983 15.1264C34.5769 14.3155 36.9802 11.7187 37.3663 11.2794C37.3759 11.2698 37.3808 11.2698 37.3904 11.2649C37.4001 11.2601 37.4097 11.2601 37.4146 11.2601C37.4194 11.2601 37.4339 11.2649 37.4387 11.2698C37.4483 11.2746 37.4532 11.2794 37.458 11.2891C38.1577 12.6454 37.5497 14.4748 36.1695 15.2374C34.9582 15.9084 33.0568 16.3042 30.721 16.5793C30.6969 16.7531 30.668 16.922 30.6293 17.091ZM7.81735 18.4425C7.88491 18.5921 7.9573 18.7418 8.02969 18.8866C5.81943 20.1512 2.71156 20.0209 2.23862 19.9871C2.22897 19.9871 2.22414 19.9871 2.21449 19.9919C2.20484 19.9967 2.20001 20.0016 2.19518 20.0016C2.19036 20.0064 2.18553 20.0112 2.18071 20.0209C2.17588 20.0305 2.17588 20.0354 2.17588 20.045C2.21449 21.5703 3.71052 21.9902 5.02798 21.8117C6.15724 21.6572 7.73048 20.909 8.84527 20.0692C8.95626 20.1947 9.07208 20.3105 9.19756 20.4215C8.13103 22.164 5.63122 22.8736 4.81564 22.9363C4.80599 22.9363 4.79634 22.9411 4.79152 22.946C4.78186 22.9508 4.77704 22.9556 4.77221 22.9653C4.76739 22.9749 4.76256 22.9798 4.76256 22.9894C4.76256 22.9991 4.76739 23.0087 4.77221 23.0135C5.30789 23.9355 6.51436 24.2396 7.83183 23.6121C8.61362 23.2356 9.58845 22.2557 10.2593 21.1504C10.4137 21.2276 10.5729 21.2904 10.737 21.3434C10.322 23.4238 8.25168 24.6885 7.88491 24.896C7.87526 24.9009 7.87526 24.9057 7.87044 24.9105C7.86561 24.9202 7.86078 24.925 7.86078 24.9298C7.86078 24.9395 7.86078 24.9443 7.86078 24.9539C7.86561 24.9636 7.87044 24.9684 7.87044 24.9733C8.48815 25.6635 9.91179 25.678 10.7804 24.6788C11.3161 24.0658 11.7263 22.9218 11.958 21.5413C12.1848 21.5413 12.5226 21.5751 12.8749 21.6813C12.8749 21.0249 12.9811 20.3781 13.1837 19.7506C12.8797 19.7602 12.5998 19.7409 12.3633 19.6927C11.2196 19.4899 10.3558 18.5632 10.3558 17.4433C10.3558 16.8014 10.6405 16.2221 11.1038 15.807C11.1279 15.7877 11.1472 15.7636 11.1569 15.7346C11.1665 15.7105 11.1713 15.6767 11.1665 15.6477C11.1617 15.6188 11.1569 15.5898 11.1376 15.5657C11.1231 15.5415 11.099 15.5222 11.0748 15.5078C11.0266 15.4788 10.9735 15.4498 10.9252 15.416C6.94386 12.8868 3.30514 7.03659 2.91424 6.39461C2.90942 6.38496 2.90459 6.38496 2.89494 6.37531C2.88529 6.37048 2.88046 6.36565 2.87081 6.36565C2.86116 6.36565 2.85151 6.36565 2.84668 6.36565C2.83703 6.37048 2.8322 6.37531 2.82255 6.37531C1.59677 7.4517 1.47613 9.56104 2.76464 11.2118C3.61882 12.3027 5.41406 13.4998 7.24789 14.5376C7.22377 14.7306 7.20446 14.9237 7.19481 15.1168C3.41614 14.3107 1.01767 11.7138 0.631595 11.2698C0.621944 11.2601 0.617118 11.2601 0.607466 11.2553C0.597814 11.2505 0.588162 11.2504 0.583337 11.2504C0.573685 11.2504 0.564033 11.2553 0.559207 11.2601C0.549555 11.2649 0.544729 11.2698 0.539904 11.2794C-0.155025 12.6358 0.448211 14.4651 1.82842 15.2278C3.03972 15.8987 4.94112 16.2945 7.27685 16.5697C7.30098 16.7386 7.33476 16.9075 7.36854 17.0717C3.86494 17.5543 1.12384 16.2801 0.655725 16.0387C0.646073 16.0339 0.641247 16.0291 0.631595 16.0291C0.621944 16.0291 0.612292 16.0339 0.607466 16.0387C0.597814 16.0435 0.592988 16.0484 0.588162 16.058C0.583337 16.0677 0.578511 16.0725 0.578511 16.0822C0.399953 17.5399 1.3217 18.708 2.89494 18.9686C4.47301 19.2293 7.81735 18.4425 7.81735 18.4425ZM8.08277 9.82169C8.38681 8.44604 7.12725 9.16524 6.78461 9.42589C7.19964 8.28675 6.78461 7.85233 6.44197 7.49031C6.22481 7.26345 6.03177 7.06072 6.09451 6.73732C6.15724 6.37531 6.67844 6.29808 7.18033 6.22567C7.49884 6.18223 7.81252 6.13396 7.99591 6.01812C8.22272 5.87331 8.45919 5.62231 8.70049 5.37132C9.36164 4.67142 10.0324 3.96669 10.515 5.48233C9.2796 6.6263 9.99865 8.30606 11.5671 8.30606C11.5671 8.30606 11.5767 8.55223 11.5622 8.57153C9.6898 8.47982 9.0383 7.10899 9.38094 6.01329C9.43885 5.82021 7.46023 5.81539 7.46023 7.04624C7.46023 7.45653 7.75461 7.76062 8.04417 8.06471C8.34337 8.37846 8.64258 8.69221 8.64258 9.1218C8.64258 9.52726 8.21307 9.82169 8.08277 9.82169ZM14.7377 8.57153H12.3151L12.3103 8.56671C12.2765 8.52326 11.8808 7.98748 11.7794 7.71235C11.3982 6.69388 11.8856 6.21602 12.595 6.21602L13.5167 7.05107L14.4385 6.21602C15.1527 6.21602 15.6401 6.69388 15.2589 7.71235C15.2106 7.84268 15.0948 8.03575 14.9838 8.20469C15.8428 8.08885 16.9431 7.50479 17.1796 6.24498C17.1796 6.24498 16.5426 5.24099 16.3833 4.83553C15.809 3.37299 16.5426 2.77446 17.6091 2.77446L18.9893 4.39146L20.3791 2.77446C21.4457 2.77446 22.1792 3.37299 21.6098 4.83553C21.4505 5.24099 20.8135 6.24498 20.8135 6.24498C21.0548 7.49997 22.1503 8.08885 23.0093 8.20469C22.8983 8.03575 22.7824 7.84268 22.7342 7.71235C22.3529 6.69388 22.8404 6.21602 23.5498 6.21602L24.4715 7.05107L25.3933 6.21602C26.1075 6.21602 26.5949 6.69388 26.2137 7.71235C26.1075 7.99714 25.6828 8.56671 25.6828 8.56671H23.2602C21.2237 8.56671 20.3068 7.32137 20.0317 6.24015H17.9662C17.6863 7.3262 16.7742 8.57153 14.7377 8.57153ZM20.0992 22.3957C19.9303 22.5598 19.7373 22.6757 19.4864 22.6467C19.4622 22.6419 19.4188 22.6708 19.414 22.6901C19.3223 22.9846 19.2354 23.2742 19.1534 23.5735L19.1341 23.6314C19.1341 23.6362 19.1437 23.641 19.1437 23.641C19.2788 23.6603 19.3754 23.5976 19.4622 23.5107C19.5008 23.4721 19.5443 23.4335 19.5877 23.3997C19.6118 23.3804 19.6311 23.3611 19.6553 23.3418C20.0124 23.0232 20.3743 22.7143 20.8087 22.4971C21.2623 22.2702 21.6725 21.9661 22.0103 21.5944C22.0875 21.5027 22.1261 21.4207 22.0779 21.3048C22.0296 21.189 21.9331 21.1649 21.8221 21.1697C21.798 21.1697 21.7642 21.1697 21.7401 21.1697C21.7256 21.1697 21.7111 21.1697 21.6966 21.1697C21.547 21.1745 21.4022 21.1793 21.2526 21.1697C20.9003 21.16 20.5625 21.0876 20.2488 20.9235C20.2344 20.9139 20.2247 20.909 20.2054 20.8994C20.1958 20.8945 20.1958 20.8897 20.1909 20.8849C20.1861 20.8752 20.1813 20.8752 20.1813 20.8656C20.1813 20.8559 20.1813 20.8511 20.1861 20.8463C20.1909 20.8366 20.1958 20.8366 20.1958 20.827L20.2682 20.7497C20.3454 20.6725 20.4129 20.5953 20.4805 20.5229C20.7749 20.1898 20.9341 19.8085 20.8376 19.3548C20.8183 19.2727 20.7942 19.1907 20.7604 19.1086C20.7459 19.0652 20.7314 19.0169 20.717 18.9735C20.6735 18.8238 20.7604 18.6838 20.9148 18.6549C20.939 18.65 20.9631 18.6452 20.9872 18.6452C21.0258 18.6356 21.0644 18.6356 21.103 18.6259C21.2333 18.597 21.3105 18.5149 21.2961 18.3797C21.2719 18.1674 21.2526 17.9502 21.1996 17.7378C21.1368 17.4771 20.9534 17.3613 20.688 17.3854C20.6108 17.3951 20.5288 17.4047 20.4564 17.4385C20.162 17.5785 19.8435 17.6316 19.5298 17.6847C19.4815 17.6943 19.4333 17.704 19.3802 17.7088C19.1872 17.7426 18.9893 17.7764 18.7963 17.8102L18.6032 17.844C18.5936 17.8488 18.5791 17.8536 18.5743 17.8633C18.5646 17.8729 18.5646 17.8826 18.5646 17.8971C18.5743 18.0853 18.6611 18.2253 18.8107 18.3267C18.8686 18.3701 18.9362 18.4039 18.9989 18.4377C19.0424 18.4618 19.081 18.4811 19.1196 18.5052C19.2016 18.5535 19.2837 18.6018 19.3657 18.6549L19.4091 18.679L19.3947 18.7707C19.3657 18.7804 19.3368 18.7852 19.3078 18.7949C19.2016 18.8238 19.1003 18.8528 18.9989 18.8528C18.555 18.8624 18.1158 18.8673 17.6766 18.8673H17.4354C17.1989 18.8673 16.9576 18.8673 16.7211 18.8673C16.3447 18.8673 15.9586 18.8673 15.5822 18.8721C15.4905 18.8721 15.4037 18.8914 15.312 18.9059L15.2685 18.9155C15.2589 18.9155 15.2492 18.9252 15.2444 18.93C15.2347 18.9397 15.2347 18.9445 15.2347 18.9541C15.2347 18.9638 15.2347 18.9735 15.2444 18.9831C15.2492 18.9928 15.2541 18.9976 15.2685 19.0024L15.3747 19.0459C15.5195 19.1086 15.6643 19.1714 15.8139 19.2293C15.9104 19.2679 16.0069 19.2534 16.0745 19.1472C16.1227 19.07 16.2048 19.0459 16.2964 19.0555C16.3302 19.0603 16.364 19.0652 16.3978 19.0748C16.4316 19.0845 16.4654 19.0893 16.4991 19.0941C17.3726 19.21 18.2413 19.321 19.1148 19.4368C19.2547 19.4561 19.3078 19.5092 19.3078 19.6444C19.3078 20.045 19.2161 20.4263 18.9121 20.7063C18.2799 21.2904 17.8359 21.9951 17.5415 22.7915C17.5174 22.8591 17.4788 22.9315 17.4209 22.9701C17.3002 23.0618 17.1748 23.1487 17.0541 23.2308C16.9865 23.2742 16.919 23.3225 16.8562 23.3707C16.8321 23.39 16.7983 23.4094 16.7742 23.4287C16.697 23.4818 16.6198 23.53 16.557 23.5976C16.4123 23.7569 16.2723 23.9258 16.1275 24.0899C15.9876 24.2492 15.8525 24.4133 15.7125 24.5678C15.6498 24.6402 15.5629 24.6933 15.4664 24.7126C15.3506 24.7367 15.2927 24.785 15.2878 24.8912C15.2782 24.9733 15.2782 25.0553 15.2734 25.1374C15.2637 25.2629 15.2589 25.3835 15.2492 25.5042C15.2347 25.6635 15.2927 25.789 15.4085 25.9097C15.4133 25.9145 15.4181 25.9193 15.4278 25.9193C15.4374 25.9242 15.4423 25.9242 15.4519 25.9242C15.4616 25.9242 15.4664 25.9193 15.476 25.9145C15.4857 25.9097 15.4857 25.9048 15.4905 25.9L15.5243 25.8421C15.5677 25.76 15.616 25.6828 15.6449 25.5959C15.6787 25.509 15.7029 25.4173 15.7222 25.3353C15.7318 25.2918 15.7463 25.2484 15.7559 25.2049C15.8187 24.9684 15.9538 24.7609 16.142 24.5968C16.4267 24.3458 16.7501 24.1527 17.0734 23.9596L17.0782 23.9548C17.6091 23.6314 18.1351 23.3032 18.5694 22.8543C18.7046 22.7095 18.83 22.5598 18.9507 22.4054C18.9941 22.3523 19.0327 22.2992 19.0762 22.2509C19.2209 22.0723 19.3947 21.9709 19.6311 21.9806C19.7807 21.9854 19.9303 21.9854 20.0848 21.9854C20.1813 21.9854 20.2778 21.9854 20.3791 21.9902C20.3936 21.9902 20.4033 21.9902 20.4226 21.9951C20.4322 21.9951 20.4371 21.9999 20.4467 22.0047C20.4564 22.0096 20.4564 22.0144 20.4612 22.0289C20.466 22.0385 20.466 22.0482 20.4612 22.053C20.4612 22.0627 20.4515 22.0675 20.4515 22.0771C20.4226 22.1061 20.3936 22.1351 20.3647 22.1688C20.244 22.2461 20.1765 22.3233 20.0992 22.3957ZM21.0934 20.7256L21.0548 20.7208C21.0451 20.7208 21.0403 20.716 21.0306 20.7111C21.021 20.7063 21.021 20.7015 21.0162 20.6918C21.0113 20.6822 21.0113 20.6773 21.0113 20.6677C21.0113 20.658 21.0162 20.6532 21.021 20.6436C21.2912 20.1753 21.5132 19.7071 21.3492 19.1472C21.3492 19.1376 21.3443 19.1376 21.3492 19.1279C21.3492 19.1183 21.354 19.1183 21.3588 19.1086C21.3636 19.1038 21.3685 19.0989 21.3733 19.0941C21.3781 19.0893 21.3829 19.0845 21.3926 19.0845C21.4312 19.0748 21.4698 19.07 21.5084 19.07C21.6001 19.07 21.6918 19.0459 21.7304 18.959C21.88 18.6163 21.991 18.2639 21.8559 17.8874L21.798 17.7329C21.7642 17.6412 21.7304 17.5495 21.7014 17.4578C21.6966 17.4482 21.6966 17.4433 21.6966 17.4337C21.6966 17.424 21.6966 17.424 21.7014 17.4144C21.7063 17.4047 21.7063 17.4047 21.7111 17.3999C21.7159 17.3951 21.7207 17.3902 21.7256 17.3902C21.7352 17.3854 21.7352 17.3854 21.7449 17.3854C21.7931 17.3854 21.8414 17.3854 21.8945 17.3854C22.0875 17.3854 22.2709 17.3806 22.4591 17.3951C22.5122 17.3999 22.5894 17.4723 22.6039 17.5302C22.6521 17.7812 22.6908 18.037 22.7294 18.288L22.7535 18.4521C22.768 18.5583 22.7101 18.6114 22.6135 18.6307C22.5991 18.6356 22.5846 18.6356 22.5701 18.6356C22.2275 18.6452 22.073 18.7997 22.1647 19.1231C22.2999 19.5865 22.1551 19.9774 21.9186 20.3588C21.8945 20.3877 21.8752 20.4215 21.8607 20.4553C21.7545 20.687 21.5663 20.7594 21.325 20.7401C21.2478 20.7449 21.1706 20.7353 21.0934 20.7256ZM20.6253 23.9934C20.7507 23.81 20.8859 23.6217 21.0113 23.4383C21.132 23.2597 21.2768 23.1101 21.4601 23.0039C21.7497 22.835 22.0393 22.6612 22.3336 22.4971C22.4591 22.4247 22.5846 22.3523 22.7101 22.2847C22.9079 22.1737 23.1106 22.0627 23.3085 21.942C23.4677 21.8454 23.5546 21.6958 23.5449 21.4979C23.5449 21.271 23.5256 21.2469 23.3085 21.189C23.2699 21.1793 23.2313 21.1649 23.1926 21.1504C23.1685 21.1407 23.1492 21.1359 23.1251 21.1262L23.0044 21.0876C22.8452 21.0394 22.6956 20.9911 22.5363 20.9428C22.5218 20.938 22.5025 20.938 22.4881 20.9476C22.4784 20.9525 22.4639 20.9573 22.4639 20.967C22.4543 20.9766 22.4543 20.9911 22.4543 21.0007C22.4591 21.0152 22.4639 21.0297 22.4736 21.0442C22.4977 21.078 22.5267 21.1069 22.5556 21.1359C22.5846 21.1649 22.6135 21.1986 22.6425 21.2324C22.7969 21.4255 22.768 21.6379 22.5653 21.773C22.4832 21.831 22.3964 21.8841 22.3095 21.9372C22.2323 21.9902 22.1503 22.0385 22.073 22.0916C21.5953 22.415 21.1175 22.7384 20.6446 23.0666C20.6011 23.0956 20.5674 23.1535 20.5529 23.2018C20.5094 23.3466 20.4805 23.4914 20.4564 23.6362V23.6459C20.4322 23.7569 20.4129 23.8631 20.4805 23.9693C20.5288 24.0755 20.5625 24.0851 20.6253 23.9934ZM18.608 23.3611C18.6225 23.3514 18.6418 23.3466 18.6611 23.3514C18.6708 23.3514 18.6853 23.3563 18.6949 23.3611C18.7046 23.3707 18.7094 23.3804 18.7094 23.39C18.7142 23.4045 18.7094 23.419 18.7046 23.4335C18.6611 23.5638 18.6129 23.6941 18.5694 23.8196C18.4971 24.0224 18.3571 24.1623 18.1641 24.2637C17.8552 24.423 17.5512 24.6064 17.252 24.7898C17.0589 24.9105 16.9865 25.1181 16.9335 25.3256C16.8997 25.4656 16.8562 25.6056 16.8225 25.7407C16.8128 25.7745 16.7983 25.8035 16.779 25.8324C16.7356 25.8904 16.6439 25.9435 16.5812 25.9386C16.5233 25.9338 16.4605 25.8517 16.4267 25.7938C16.4026 25.7552 16.4026 25.7069 16.393 25.6587C16.3881 25.6394 16.3881 25.6201 16.3833 25.6056C16.3833 25.6008 16.3833 25.5959 16.3833 25.5911C16.4412 25.1856 16.5956 24.8526 16.9479 24.6064C17.252 24.3989 17.5463 24.1768 17.8359 23.9451C17.9469 23.8582 18.0579 23.7762 18.1641 23.6893C18.2365 23.6362 18.304 23.5783 18.3716 23.53C18.4584 23.4769 18.5308 23.419 18.608 23.3611Z" fill="#333333"/>
</svg>
