<svg width="36" height="38" viewBox="0 0 36 38" fill="none" xmlns="http://www.w3.org/2000/svg">
<g filter="url(#filter0_dd_8650_3404)">
<circle cx="18" cy="19" r="16" fill="white"/>
</g>
<g clip-path="url(#clip0_8650_3404)">
<rect width="20.8" height="20.8" transform="translate(7.60156 8.59961)" fill="white"/>
<path d="M27.3563 15.4994C27.2745 14.4274 26.4563 13.0532 25.6381 12.3935C24.718 11.7185 23.7621 11.0945 22.7745 10.5245C21.7943 9.93907 20.7838 9.40693 19.7472 8.93039C19.1934 8.70275 18.5997 8.59055 18.0017 8.60057C17.4036 8.58791 16.8093 8.70021 16.2563 8.93039C15.2198 9.40727 14.2093 9.9394 13.229 10.5245C11.6472 11.4865 10.3654 12.3935 10.3654 12.3935C9.94062 12.7518 9.58086 13.175 9.29687 13.6439C9.26429 13.6977 9.30359 13.7655 9.36646 13.7655H10.6958C10.7279 13.7655 10.7583 13.7513 10.7793 13.7271C10.9326 13.5507 11.1004 13.3857 11.2817 13.2341C11.2817 13.2341 12.4097 12.4425 13.8017 11.603C14.6644 11.0923 15.5536 10.6279 16.4657 10.2117C16.9523 10.0108 17.4753 9.91283 18.0017 9.92388C18.5279 9.91514 19.0504 10.0131 19.5377 10.2117C20.4499 10.6276 21.3392 11.092 22.2017 11.603C23.0708 12.1004 23.9121 12.6449 24.7217 13.2341C25.4417 13.8098 26.1617 15.0091 26.2337 15.9446C26.2337 15.9446 26.4017 17.3359 26.4257 18.9838C26.4242 20.0015 26.3682 21.0184 26.2577 22.0302C26.0903 23.0895 25.5446 24.0524 24.7217 24.7407C24.7217 24.7407 23.5937 25.5563 22.2017 26.3958C21.3391 26.9065 20.4498 27.3709 19.5377 27.7871C19.0511 27.988 18.5281 28.086 18.0017 28.0749C17.476 28.0859 16.9535 27.9905 16.4657 27.7943C15.5535 27.3784 14.6642 26.914 13.8017 26.403C12.4097 25.5875 11.2817 24.7479 11.2817 24.7479C11.1352 24.6308 10.9887 24.4878 10.8475 24.3265C10.8264 24.3025 10.7961 24.2884 10.7642 24.2884H9.42997C9.36629 24.2884 9.32709 24.3578 9.36105 24.4116C9.65757 24.8821 10.0115 25.3011 10.3654 25.5864C10.3654 25.5864 11.6472 26.5484 13.229 27.4829C14.2091 28.0684 15.2197 28.6005 16.2563 29.077C16.8106 29.3019 17.4044 29.4113 18.0017 29.3986C18.5999 29.4113 19.1942 29.299 19.7472 29.0688C20.7836 28.5919 21.7942 28.0598 22.7745 27.4747C24.3563 26.5127 25.6381 25.5782 25.6381 25.5782C26.5732 24.7895 27.1933 23.6862 27.3835 22.4724C27.5091 21.3131 27.5728 20.1479 27.5744 18.9817C27.5472 17.0935 27.3563 15.4994 27.3563 15.4994Z" fill="url(#paint0_linear_8650_3404)"/>
<path d="M14.7832 21.8017H14.1381C14.1165 21.8017 14.1008 21.7807 14.1067 21.7598C14.2146 21.3927 14.327 20.9772 14.4048 20.5165C14.4845 20.0402 14.5264 19.6011 14.544 19.2091C14.5447 19.1915 14.559 19.1777 14.5767 19.1777H16.4938C16.5119 19.1777 16.5265 19.1924 16.5265 19.2104V21.7689C16.5265 21.787 16.5119 21.8017 16.4938 21.8017H15.8656C15.8476 21.8017 15.833 21.787 15.833 21.7689V19.7928H15.2024C15.1792 20.0845 15.1401 20.3978 15.076 20.7285C15.0015 21.1159 14.9133 21.4673 14.8139 21.7794C14.81 21.7925 14.7969 21.8017 14.7832 21.8017Z" fill="#EE2F53"/>
<path d="M8.72266 15.3833C8.72266 15.3652 8.73727 15.3506 8.75531 15.3506H10.6036C10.6267 15.3506 10.6423 15.3744 10.6334 15.396L10.4045 15.9457C10.3984 15.9602 10.3846 15.9668 10.3715 15.9655C10.3704 15.9656 10.3693 15.9657 10.3682 15.9657H9.41483V17.9418C9.41483 17.9599 9.40021 17.9745 9.38218 17.9745H8.75531C8.73727 17.9745 8.72266 17.9599 8.72266 17.9418V15.3833Z" fill="#0066B3"/>
<path d="M19.9844 19.2104C19.9844 19.1924 19.999 19.1777 20.0171 19.1777H21.8692C21.8924 19.1777 21.908 19.2016 21.899 19.2231L21.6697 19.7728C21.6636 19.7873 21.6497 19.794 21.6366 19.7926C21.6355 19.7928 21.6344 19.7928 21.6333 19.7928H20.678V21.7689C20.678 21.787 20.6633 21.8017 20.6453 21.8017H20.0171C19.999 21.8017 19.9844 21.787 19.9844 21.7689V19.2104Z" fill="#EE2F53"/>
<path d="M8.75535 19.1777C8.73265 19.1777 8.71688 19.2001 8.72467 19.2212L9.67909 21.802C9.54441 22.0852 9.39478 22.3833 9.22365 22.7155C9.21245 22.7372 9.22806 22.7635 9.25256 22.7635H9.93153C9.94386 22.7635 9.95523 22.7564 9.9608 22.7455C10.4632 21.7231 10.8329 20.8168 11.3384 19.221C11.3453 19.1999 11.3297 19.1777 11.3074 19.1777H10.6768C10.6622 19.1777 10.6492 19.1877 10.6452 19.2017C10.4506 19.884 10.2712 20.418 10.0632 20.9327L9.42206 19.1989C9.41735 19.1862 9.4051 19.1777 9.39138 19.1777H8.75535Z" fill="#EE2F53"/>
<path d="M16.9819 19.1777C16.9592 19.1777 16.9434 19.2001 16.9512 19.2212L17.9057 21.802C17.771 22.0852 17.6213 22.3833 17.4502 22.7155C17.439 22.7372 17.4546 22.7635 17.4791 22.7635H18.1581C18.1704 22.7635 18.1818 22.7564 18.1873 22.7455C18.6898 21.7231 19.0595 20.8168 19.565 19.221C19.5718 19.1999 19.5562 19.1777 19.534 19.1777H18.9033C18.8887 19.1777 18.8758 19.1877 18.8718 19.2017C18.6772 19.884 18.4978 20.418 18.2898 20.9327L17.6486 19.1989C17.6439 19.1862 17.6317 19.1777 17.6179 19.1777H16.9819Z" fill="#EE2F53"/>
<path d="M13.5896 21.1822C13.5864 21.1738 13.5799 21.1667 13.5714 21.1628C13.563 21.1589 13.5533 21.1589 13.5448 21.1615C13.3942 21.2171 13.1117 21.2624 12.915 21.2624C12.4845 21.2624 12.2793 21.1466 12.2793 20.4891C12.2793 19.9634 12.3423 19.7158 12.915 19.7158C13.0773 19.7158 13.228 19.7391 13.4195 19.7947C13.4351 19.7992 13.452 19.7921 13.4591 19.7779C13.5305 19.6441 13.6169 19.4805 13.7143 19.2801C13.7188 19.271 13.7188 19.2607 13.7149 19.2516C13.711 19.2426 13.7032 19.2354 13.6935 19.2322C13.4416 19.152 13.141 19.1055 12.8702 19.1055C11.9683 19.1055 11.5664 19.529 11.5664 20.4794C11.5664 21.4434 11.9683 21.8734 12.8702 21.8734C13.0961 21.8734 13.5416 21.8261 13.7565 21.7408C13.7734 21.7337 13.7825 21.7143 13.776 21.6975L13.5896 21.1822Z" fill="#EE2F53"/>
<path d="M15.7459 17.355C15.7426 17.3467 15.7361 17.3395 15.7277 17.3357C15.7193 17.3318 15.7095 17.3318 15.7011 17.3344C15.5504 17.39 15.268 17.4352 15.0712 17.4352C14.6408 17.4352 14.4356 17.3195 14.4356 16.6619C14.4356 16.1363 14.4986 15.8887 15.0712 15.8887C15.2336 15.8887 15.3842 15.9119 15.5758 15.9675C15.5913 15.9721 15.6082 15.965 15.6154 15.9507C15.6868 15.8169 15.7731 15.6533 15.8705 15.4529C15.8751 15.4438 15.8751 15.4335 15.8712 15.4244C15.8673 15.4154 15.8595 15.4083 15.8498 15.4051C15.5978 15.3249 15.2972 15.2783 15.0265 15.2783C14.1246 15.2783 13.7227 15.7018 13.7227 16.6523C13.7227 17.6162 14.1246 18.0462 15.0265 18.0462C15.2524 18.0462 15.6978 17.999 15.9127 17.9137C15.9296 17.9066 15.9387 17.8872 15.9322 17.8704L15.7459 17.355Z" fill="#0066B3"/>
<path d="M12.0258 15.2783C11.1441 15.2783 10.8008 15.6635 10.8008 16.6521C10.8008 17.6559 11.1441 18.0462 12.0258 18.0462C12.9146 18.0462 13.2611 17.6559 13.2611 16.6521C13.2611 15.6635 12.9146 15.2783 12.0258 15.2783ZM12.0258 17.4702C11.6241 17.4702 11.499 17.359 11.499 16.6619C11.499 15.9198 11.6356 15.8538 12.0258 15.8538C12.4237 15.8538 12.5629 15.9198 12.5629 16.6619C12.5629 17.359 12.4352 17.4702 12.0258 17.4702Z" fill="#0066B3"/>
<path d="M24.4796 19.1777H23.8518C23.8335 19.1777 23.8191 19.1921 23.8191 19.2104V21.1874C23.6831 21.2253 23.5471 21.2436 23.394 21.2436C23.0134 21.2436 22.9029 21.1365 22.8885 20.6899V19.2104C22.8885 19.1921 22.8741 19.1777 22.8558 19.1777H22.228C22.2097 19.1777 22.1953 19.1921 22.1953 19.2104V19.2143C22.1953 19.2143 22.1953 20.7023 22.196 20.7043C22.211 21.5445 22.5158 21.8736 23.2685 21.8736C23.708 21.8736 24.1984 21.762 24.4895 21.651C24.5032 21.6464 24.5117 21.6333 24.5117 21.619V19.2143V19.2104C24.5123 19.1921 24.4979 19.1777 24.4796 19.1777Z" fill="#EE2F53"/>
</g>
<defs>
<filter id="filter0_dd_8650_3404" x="0" y="0" width="36" height="38" filterUnits="userSpaceOnUse" color-interpolation-filters="sRGB">
<feFlood flood-opacity="0" result="BackgroundImageFix"/>
<feColorMatrix in="SourceAlpha" type="matrix" values="0 0 0 0 0 0 0 0 0 0 0 0 0 0 0 0 0 0 127 0" result="hardAlpha"/>
<feOffset dy="-1"/>
<feGaussianBlur stdDeviation="1"/>
<feComposite in2="hardAlpha" operator="out"/>
<feColorMatrix type="matrix" values="0 0 0 0 0.890196 0 0 0 0 0.921569 0 0 0 0 0.988235 0 0 0 0.5 0"/>
<feBlend mode="normal" in2="BackgroundImageFix" result="effect1_dropShadow_8650_3404"/>
<feColorMatrix in="SourceAlpha" type="matrix" values="0 0 0 0 0 0 0 0 0 0 0 0 0 0 0 0 0 0 127 0" result="hardAlpha"/>
<feOffset dy="1"/>
<feGaussianBlur stdDeviation="1"/>
<feComposite in2="hardAlpha" operator="out"/>
<feColorMatrix type="matrix" values="0 0 0 0 0.890196 0 0 0 0 0.921569 0 0 0 0 0.988235 0 0 0 1 0"/>
<feBlend mode="normal" in2="effect1_dropShadow_8650_3404" result="effect2_dropShadow_8650_3404"/>
<feBlend mode="normal" in="SourceGraphic" in2="effect2_dropShadow_8650_3404" result="shape"/>
</filter>
<linearGradient id="paint0_linear_8650_3404" x1="18.2674" y1="8.5239" x2="18.2674" y2="29.3713" gradientUnits="userSpaceOnUse">
<stop stop-color="#0F67B1"/>
<stop offset="0.4" stop-color="#0F67B1"/>
<stop offset="0.66" stop-color="#EE2F53"/>
<stop offset="1" stop-color="#EE2F53"/>
</linearGradient>
<clipPath id="clip0_8650_3404">
<rect width="20.8" height="20.8" fill="white" transform="translate(7.60156 8.59961)"/>
</clipPath>
</defs>
</svg>
