<svg width="24" height="24" viewBox="0 0 24 24" fill="none" xmlns="http://www.w3.org/2000/svg">
<path fill-rule="evenodd" clip-rule="evenodd" d="M0.75 1.50012C1.16421 1.50012 1.5 1.83591 1.5 2.25012L1.5 23.2501C1.5 23.6643 1.16421 24.0001 0.75 24.0001C0.335786 24.0001 0 23.6643 0 23.2501L0 2.25012C0 1.8359 0.335786 1.50012 0.75 1.50012Z" fill="#3744C4"/>
<path fill-rule="evenodd" clip-rule="evenodd" d="M1.5 2.25012L4.5 2.25012V3.75012L1.5 3.75012V2.25012Z" fill="#3744C4"/>
<path fill-rule="evenodd" clip-rule="evenodd" d="M6.75 2.25012L10.5 2.25012V3.75012L6.75 3.75012V2.25012Z" fill="#3744C4"/>
<path fill-rule="evenodd" clip-rule="evenodd" d="M14.25 2.25012H17.25V3.75012L14.25 3.75012V2.25012Z" fill="#3744C4"/>
<path fill-rule="evenodd" clip-rule="evenodd" d="M19.5 2.25012H22.5V3.75012L19.5 3.75012V2.25012Z" fill="#3744C4"/>
<path fill-rule="evenodd" clip-rule="evenodd" d="M23.25 1.50012C23.6642 1.50012 24 1.83591 24 2.25012V23.2501C24 23.6643 23.6642 24.0001 23.25 24.0001C22.8358 24.0001 22.5 23.6643 22.5 23.2501V2.25012C22.5 1.8359 22.8358 1.50012 23.25 1.50012Z" fill="#3744C4"/>
<path fill-rule="evenodd" clip-rule="evenodd" d="M5.2447 0.049915C6.28393 -0.188723 7.32131 0.450766 7.56914 1.48855L8.48332 5.3194L11.3728 6.75392H12.7277L15.6164 5.31978L16.5215 1.49479C16.7684 0.453302 17.8067 -0.191785 18.8514 0.0558534L18.8512 0.0580633C19.8877 0.30899 20.5276 1.34934 20.2806 2.38599C20.2805 2.38631 20.2804 2.38662 20.2803 2.38694L18.9575 7.98118L15.6217 9.6375L15.1204 22.0811C15.1114 23.1418 14.2481 23.9995 13.1852 23.9995C12.7387 23.9995 12.3274 23.8481 11.9999 23.5939C11.6724 23.8481 11.2611 23.9995 10.8146 23.9995C9.75086 23.9995 8.88702 23.1404 8.87936 22.0784L8.45691 9.63132L5.12402 7.97644L3.79997 2.37704C3.56065 1.34253 4.19981 0.299412 5.23834 0.0514028L5.2447 0.049915ZM12.7499 22.0642C12.7499 22.3043 12.9451 22.4995 13.1852 22.4995C13.4253 22.4995 13.6205 22.3043 13.6205 22.0642V22.0491L14.1587 8.6892L17.6598 6.95081L18.821 2.04015L18.8213 2.03853C18.8764 1.80793 18.7339 1.5718 18.496 1.51541L18.4962 1.51332C18.264 1.46335 18.037 1.60497 17.9811 1.84048L16.914 6.35026L13.0796 8.25392H11.0209L7.18729 6.35064L6.11017 1.83696C6.11016 1.83692 6.11018 1.837 6.11017 1.83696C6.05476 1.6052 5.82333 1.45787 5.58362 1.51114C5.35376 1.56784 5.20756 1.80298 5.26108 2.0376C5.26118 2.03805 5.26128 2.0385 5.26139 2.03895L6.42174 6.94607L9.92568 8.68589L10.3793 22.0515V22.0642C10.3793 22.3043 10.5745 22.4995 10.8146 22.4995C11.0547 22.4995 11.2499 22.3043 11.2499 22.0642V15.2985H12.7499V22.0642Z" fill="#3744C4"/>
<path fill-rule="evenodd" clip-rule="evenodd" d="M12.0453 1.50012C11.1817 1.50012 10.4816 2.20021 10.4816 3.06383C10.4816 3.92744 11.1817 4.62754 12.0453 4.62754C12.9089 4.62754 13.609 3.92744 13.609 3.06383C13.609 2.20021 12.9089 1.50012 12.0453 1.50012ZM8.9816 3.06383C8.9816 1.37179 10.3533 0.000118254 12.0453 0.000118254C13.7374 0.000118254 15.109 1.37179 15.109 3.06383C15.109 4.75587 13.7374 6.12754 12.0453 6.12754C10.3533 6.12754 8.9816 4.75587 8.9816 3.06383Z" fill="#3744C4"/>
</svg>
