<svg width="24" height="24" viewBox="0 0 24 24" fill="none" xmlns="http://www.w3.org/2000/svg">
<path d="M15.7799 20.2597C14.6864 20.2597 14.6864 18.7012 15.7279 18.7012C17.3422 18.7012 18.6961 17.3506 18.6961 15.7402C18.6961 15.3246 19.0606 14.9609 19.4772 14.9609C19.8938 14.9609 20.2584 15.3246 20.2584 15.7402C20.3104 18.2337 18.2795 20.2597 15.7799 20.2597Z" fill="#3744C4"/>
<path d="M15.7787 24C11.4044 24 7.81123 20.6234 7.49878 16.3117L0.520749 13.974C0.208299 13.8701 0 13.5584 0 13.2467L0 8.25969C0 7.84411 0.364524 7.48047 0.781123 7.48047H8.22783C8.64443 7.48047 9.00895 7.84411 9.00895 8.25969V9.97398H13.6957V8.25969C13.6957 7.79216 14.0081 7.48047 14.4768 7.48047H15.7787C26.7665 7.79216 26.7144 23.6883 15.7787 24ZM1.56225 12.6753L8.54028 14.961C8.85273 15.0649 9.06103 15.3766 9.06103 15.6883C9.06103 19.3766 12.0814 22.3896 15.7787 22.3896C24.9959 22.0779 24.5273 8.83112 15.31 9.03891V10.7532C15.31 11.1688 14.9455 11.5324 14.5289 11.5324H8.33198C7.91538 11.5324 7.55086 11.1688 7.55086 10.7532V9.03891H1.61432L1.56225 12.6753Z" fill="#3744C4"/>
<path d="M7.65639 5.29805C7.39602 5.29805 7.18772 5.19416 7.03149 4.98636L5.1568 2.49285C4.79227 2.02532 5.1568 1.24609 5.7817 1.24609C6.04207 1.24609 6.25037 1.34999 6.40659 1.55778L8.28129 4.10324C8.64581 4.57078 8.28129 5.35 7.65639 5.29805Z" fill="#3744C4"/>
<path d="M15.1639 5.29805C15.4243 5.29805 15.6326 5.19416 15.7888 4.98636L17.6635 2.49285C18.028 2.02532 17.6635 1.24609 17.0386 1.24609C16.7782 1.24609 16.5699 1.34999 16.4137 1.55778L14.539 4.10324C14.1745 4.57078 14.539 5.35 15.1639 5.29805Z" fill="#3744C4"/>
<rect x="10.625" width="1.56225" height="5.35066" fill="#3744C4"/>
</svg>
