<svg width="24" height="24" viewBox="0 0 24 24" fill="none" xmlns="http://www.w3.org/2000/svg">
<g clip-path="url(#clip0_9170_3340)">
<path fill-rule="evenodd" clip-rule="evenodd" d="M18.5774 4.50085H22.3268C22.6815 4.50085 22.9348 4.75419 22.9348 5.10886V9.46628C22.9348 13.317 19.9454 16.5091 16.0947 16.9144C15.3347 17.9278 14.6253 18.7891 14.22 19.1945V20.9678H15.8414C16.652 20.9678 16.652 22.1838 15.8414 22.1838H7.53187C6.72119 22.1838 6.72119 20.9678 7.53187 20.9678H9.55858V19.1945C9.15323 18.7384 8.44389 17.9278 7.68387 16.9144C3.78247 16.5597 0.84375 13.317 0.84375 9.41561L0.84375 5.0582C0.84375 4.70352 1.09709 4.45019 1.45176 4.45019H5.20116V0.700784C5.20116 0.346111 5.4545 0.0927734 5.80917 0.0927734L12.7506 0.0927734C13.5613 0.0927734 13.5613 1.3088 12.7506 1.3088H6.41718V11.9997C6.61092 13.2783 7.21952 14.1422 7.90305 15.1124C8.11332 15.4108 8.33067 15.7193 8.54522 16.0531C9.16297 16.8561 9.78073 17.5839 10.1689 18.0412C10.4175 18.3341 10.5719 18.516 10.5719 18.5358C10.7809 18.6751 10.7505 19.5805 10.7275 20.2646C10.717 20.5757 10.7081 20.8411 10.7239 20.9678H13.004C13.0197 20.8579 13.0111 20.6022 13.0007 20.2955C12.9777 19.6121 12.9461 18.6757 13.156 18.5358C13.2573 18.4344 17.3614 13.925 17.3107 11.9997V1.3088C17.1839 1.29727 17.0256 1.3041 16.8567 1.31139C16.2834 1.33614 15.588 1.36615 15.588 0.700784C15.588 0.346111 15.8414 0.0927734 16.196 0.0927734L17.9187 0.0927734C18.3241 0.0927734 18.5774 0.346111 18.5774 0.700784V4.50085ZM2.05977 5.66621V9.41561C2.0091 12.253 3.98514 14.685 6.61985 15.5464C6.01184 14.533 5.1505 13.0637 5.1505 11.9997V5.66621H2.05977ZM17.108 15.5464C19.7428 14.6344 21.7188 12.253 21.6681 9.41561V5.66621H18.5774V11.9997C18.5299 13.1883 17.8131 14.3769 17.2225 15.3563C17.1837 15.4206 17.1455 15.484 17.108 15.5464ZM11.8882 10.8853C16.1443 10.7839 16.1443 4.55181 11.8882 4.45048C7.63214 4.55181 7.63214 10.7839 11.8882 10.8853ZM11.8882 9.66924C9.2535 9.61857 9.2535 5.71717 11.8882 5.6665C14.4723 5.71717 14.4723 9.61857 11.8882 9.66924ZM18.8812 22.6907H4.99825C4.18756 22.6907 4.18756 23.9067 4.99825 23.9067H18.8812C19.6918 23.9067 19.6918 22.6907 18.8812 22.6907Z" fill="#3744C4"/>
<path fill-rule="evenodd" clip-rule="evenodd" d="M5.10741 0.701033C5.10741 0.294985 5.4024 0 5.80845 0L12.7499 0C12.9778 0 13.1556 0.0863921 13.2754 0.221225C13.3938 0.354346 13.4509 0.52921 13.4509 0.701033C13.4509 0.872857 13.3938 1.04772 13.2754 1.18084C13.1556 1.31567 12.9778 1.40207 12.7499 1.40207H6.50948V11.9929C6.70066 13.2434 7.29524 14.0894 7.97837 15.059L7.97882 15.0597C8.18812 15.3568 8.40568 15.6656 8.62061 15.9997C9.23605 16.7996 9.85139 17.5245 10.2391 17.9813L10.2399 17.9822C10.3636 18.128 10.4646 18.247 10.5347 18.332C10.5697 18.3745 10.5979 18.4095 10.6175 18.4357C10.6272 18.4486 10.636 18.4608 10.6427 18.4714C10.6436 18.4728 10.6446 18.4744 10.6456 18.476C10.6789 18.505 10.7037 18.5428 10.7225 18.5817C10.7458 18.6297 10.7636 18.6866 10.7776 18.7481C10.8056 18.8711 10.821 19.0251 10.8289 19.1917C10.8447 19.5248 10.8312 19.9252 10.8198 20.2657L10.8197 20.268C10.8111 20.5239 10.8041 20.7398 10.8095 20.875H12.9172C12.9189 20.8303 12.9192 20.774 12.9184 20.7069C12.9169 20.5921 12.9122 20.4525 12.907 20.2989L12.9069 20.2966C12.8955 19.9564 12.8817 19.5485 12.8974 19.2078C12.9052 19.0373 12.9205 18.8796 12.9484 18.7538C12.9624 18.6908 12.9801 18.6327 13.0034 18.5838C13.0246 18.5391 13.0535 18.4956 13.0944 18.4651C13.1858 18.369 14.2091 17.2417 15.2151 15.8963C15.73 15.2076 16.2386 14.4642 16.6148 13.7746C16.9934 13.0806 17.229 12.4569 17.217 12.0024L17.2169 11.9999L17.217 1.39681C17.1137 1.39373 16.9928 1.39884 16.86 1.40457L16.8503 1.40499C16.5706 1.41708 16.2408 1.43133 15.9803 1.35434C15.8461 1.31467 15.7226 1.24883 15.633 1.13963C15.5425 1.02939 15.4943 0.884296 15.4943 0.701033C15.4943 0.294986 15.7893 0 16.1953 0L17.918 0C18.1402 0 18.3291 0.069738 18.4632 0.196397C18.5977 0.323369 18.6697 0.500738 18.6697 0.701033V4.40808H22.3261C22.7321 4.40808 23.0271 4.70307 23.0271 5.10911V9.46653C23.0271 13.3535 20.0205 16.5747 16.1441 17.0028C15.4094 17.9807 14.7219 18.8169 14.3123 19.233V20.875H15.8406C16.0685 20.875 16.2463 20.9614 16.3662 21.0963C16.4845 21.2294 16.5417 21.4043 16.5417 21.5761C16.5417 21.7479 16.4845 21.9228 16.3662 22.0559C16.2463 22.1907 16.0685 22.2771 15.8406 22.2771H7.53114C7.30323 22.2771 7.12546 22.1907 7.00561 22.0559C6.88728 21.9228 6.83011 21.7479 6.83011 21.5761C6.83011 21.4043 6.88728 21.2294 7.00561 21.0963C7.12546 20.9614 7.30323 20.875 7.53114 20.875H9.46482V19.2301C9.05977 18.7739 8.37192 17.9852 7.63349 17.0034C3.70446 16.6254 0.75 13.3514 0.75 9.41586L0.75 5.05845C0.75 4.6524 1.04499 4.35741 1.45103 4.35741H5.10741V0.701033ZM5.80845 0.186045C5.50515 0.186045 5.29346 0.397735 5.29346 0.701033V4.54346H1.45103C1.14774 4.54346 0.936045 4.75515 0.936045 5.05845L0.936045 9.41586C0.936045 13.2694 3.83834 16.4717 7.69157 16.822L7.73275 16.8258L7.75756 16.8588C8.5153 17.8692 9.22269 18.6776 9.62737 19.1329L9.65087 19.1593V21.0611H7.53114C7.35371 21.0611 7.22748 21.1267 7.14466 21.2199C7.06032 21.3148 7.01615 21.4439 7.01615 21.5761C7.01615 21.7083 7.06032 21.8374 7.14466 21.9323C7.22748 22.0255 7.35371 22.0911 7.53114 22.0911H15.8406C16.0181 22.0911 16.1443 22.0255 16.2271 21.9323C16.3114 21.8374 16.3556 21.7083 16.3556 21.5761C16.3556 21.4439 16.3114 21.3148 16.2271 21.2199C16.1443 21.1267 16.0181 21.0611 15.8406 21.0611H14.1262V19.1562L14.1535 19.1289C14.5538 18.7286 15.2599 17.8717 16.0195 16.8588L16.0439 16.8264L16.0842 16.8222C19.8898 16.4216 22.8411 13.2675 22.8411 9.46653V5.10911C22.8411 4.80581 22.6294 4.59412 22.3261 4.59412H18.4837V0.701033C18.4837 0.546656 18.429 0.420019 18.3355 0.331654C18.2416 0.242976 18.1011 0.186045 17.918 0.186045L16.1953 0.186045C15.892 0.186045 15.6803 0.397735 15.6803 0.701033C15.6803 0.850456 15.719 0.951123 15.7768 1.02162C15.8355 1.09315 15.9217 1.14301 16.033 1.17592C16.2606 1.24318 16.5605 1.23129 16.852 1.2187L16.857 1.21849C17.022 1.21136 17.1854 1.20431 17.3184 1.2164L17.403 1.2241V11.9987C17.4159 12.5067 17.1576 13.1681 16.7781 13.8637C16.3959 14.5643 15.8815 15.3157 15.3641 16.0077C14.3297 17.3911 13.2755 18.5473 13.221 18.6018L13.2145 18.6083L13.2068 18.6134C13.2002 18.6178 13.1869 18.631 13.1714 18.6637C13.1563 18.6954 13.1423 18.7388 13.13 18.794C13.1056 18.9044 13.0909 19.0498 13.0832 19.2163C13.068 19.5489 13.0814 19.9499 13.093 20.2926L13.093 20.2937C13.0981 20.4463 13.1029 20.5876 13.1044 20.7045C13.1059 20.8197 13.1043 20.9181 13.0953 20.9812L13.0839 21.0611H10.6411L10.6309 20.9796C10.6141 20.8455 10.6232 20.5761 10.6333 20.2754L10.6338 20.2617C10.6453 19.9186 10.6585 19.5253 10.643 19.2005C10.6353 19.0379 10.6206 18.8966 10.5962 18.7893C10.584 18.7357 10.5701 18.6937 10.5551 18.6628C10.5398 18.6312 10.5266 18.6181 10.5196 18.6134L10.4782 18.5858V18.5602C10.4756 18.5567 10.4726 18.5524 10.4688 18.5475C10.4518 18.5248 10.4258 18.4924 10.3911 18.4503C10.322 18.3664 10.2218 18.2483 10.0973 18.1017C9.70909 17.6444 9.08988 16.9149 8.47076 16.11L8.46597 16.1038C8.25264 15.772 8.03668 15.4648 7.82628 15.1662L7.82209 15.1602C7.14106 14.1936 6.52151 13.3142 6.32448 12.0138L6.32343 12.0069V1.21602H12.7499C12.9273 1.21602 13.0536 1.15041 13.1364 1.05724C13.2207 0.962357 13.2649 0.833216 13.2649 0.701033C13.2649 0.568851 13.2207 0.43971 13.1364 0.344826C13.0536 0.251655 12.9273 0.186045 12.7499 0.186045L5.80845 0.186045ZM11.8897 4.35773C16.2669 4.46195 16.2669 10.8743 11.8897 10.9785L11.8853 10.9786C7.50812 10.8744 7.50812 4.46195 11.8853 4.35773H11.8897ZM11.8875 4.54378C16.0195 4.64432 16.0195 10.6919 11.8875 10.7925C7.75544 10.6919 7.75544 4.64432 11.8875 4.54378ZM1.96602 5.57343H5.24279V11.9999C5.24279 12.5107 5.45071 13.1287 5.7408 13.7531C6.02983 14.3751 6.3948 14.992 6.69889 15.4988L6.82713 15.7125L6.59022 15.6351C3.92195 14.7627 1.91494 12.2979 1.96602 9.41503V5.57343ZM2.15207 5.75948V9.41752C2.10376 12.1224 3.92841 14.4587 6.40797 15.3747C6.13322 14.9126 5.82454 14.3748 5.57208 13.8315C5.2795 13.2018 5.05674 12.5531 5.05674 11.9999V5.75948H2.15207ZM18.4837 5.57343H21.7604V9.41499C21.8115 12.299 19.8035 14.7118 17.1377 15.6345L16.8959 15.7183L17.0275 15.4988C17.0651 15.4362 17.1034 15.3728 17.1421 15.3085C17.7357 14.3242 18.4366 13.1576 18.4837 11.998V5.57343ZM18.6697 5.75948V12.0036C18.6216 13.2057 17.9067 14.4008 17.3232 15.3684C19.8019 14.4077 21.6226 12.1192 21.5744 9.41752L21.5744 9.41586V5.75948H18.6697ZM11.8893 5.57375C12.5607 5.58691 13.0705 5.85125 13.4114 6.2456C13.7508 6.63825 13.9185 7.15468 13.9185 7.66812C13.9185 8.18155 13.7508 8.69799 13.4114 9.09064C13.0705 9.48499 12.5607 9.74933 11.8893 9.76249L11.8857 9.76257C9.12934 9.70956 9.12934 5.62675 11.8857 5.57374L11.8893 5.57375ZM11.8875 9.57645C12.5071 9.56385 12.9658 9.32163 13.2706 8.96898C13.5772 8.61429 13.7325 8.1427 13.7325 7.66812C13.7325 7.19354 13.5772 6.72195 13.2706 6.36726C12.9658 6.0146 12.5071 5.77239 11.8875 5.75979C9.37681 5.80985 9.37681 9.52639 11.8875 9.57645ZM4.61103 23.6552C4.69385 23.7483 4.82009 23.814 4.99752 23.814H18.8804C19.0579 23.814 19.1841 23.7483 19.2669 23.6552C19.3513 23.5603 19.3954 23.4312 19.3954 23.299C19.3954 23.1668 19.3513 23.0376 19.2669 22.9428C19.1841 22.8496 19.0579 22.784 18.8804 22.784H4.99752C4.82009 22.784 4.69385 22.8496 4.61103 22.9428C4.52669 23.0376 4.48253 23.1668 4.48253 23.299C4.48253 23.4312 4.52669 23.5603 4.61103 23.6552ZM4.47198 22.8192C4.59183 22.6843 4.7696 22.5979 4.99752 22.5979H18.8804C19.1083 22.5979 19.2861 22.6843 19.406 22.8192C19.5243 22.9523 19.5815 23.1271 19.5815 23.299C19.5815 23.4708 19.5243 23.6457 19.406 23.7788C19.2861 23.9136 19.1083 24 18.8804 24H4.99752C4.7696 24 4.59183 23.9136 4.47198 23.7788C4.35365 23.6457 4.29648 23.4708 4.29648 23.299C4.29648 23.1271 4.35365 22.9523 4.47198 22.8192Z" fill="#3744C4"/>
</g>
<defs>
<clipPath id="clip0_9170_3340">
<rect width="24" height="24" fill="white"/>
</clipPath>
</defs>
</svg>
