<svg width="36" height="36" viewBox="0 0 36 36" fill="none" xmlns="http://www.w3.org/2000/svg">
<circle cx="18" cy="18" r="18" fill="#C5CAFF"/>
<g clip-path="url(#clip0_3533_15935)">
<path d="M18 8C14.13 8 11 11.13 11 15C11 20.25 18 28 18 28C18 28 25 20.25 25 15C25 11.13 21.87 8 18 8ZM18 17.5C16.62 17.5 15.5 16.38 15.5 15C15.5 13.62 16.62 12.5 18 12.5C19.38 12.5 20.5 13.62 20.5 15C20.5 16.38 19.38 17.5 18 17.5Z" fill="#3744C4"/>
</g>
<defs>
<clipPath id="clip0_3533_15935">
<rect width="24" height="24" fill="white" transform="translate(6 6)"/>
</clipPath>
</defs>
</svg>
