<svg width="24" height="24" viewBox="0 0 24 24" fill="none" xmlns="http://www.w3.org/2000/svg">
<g clip-path="url(#clip0_9504_3873)">
<path d="M20.25 6L15 0.75M20.25 6V9M20.25 6L16 6C15.4477 6 15 5.55228 15 5V0.75M3.75 11.625L3.75 1.75C3.75 1.19772 4.19772 0.75 4.75 0.75L15 0.75" stroke="#3744C4" stroke-width="2" stroke-linecap="round"/>
<path d="M22.5 18V10C22.5 9.44772 22.0523 9 21.5 9H16.5849C16.293 9 16.0157 9.12756 15.8257 9.34921L14.1743 11.2758C13.9843 11.4974 13.707 11.625 13.4151 11.625H2.5C1.94772 11.625 1.5 12.0727 1.5 12.625L1.5 22.25C1.5 22.8023 1.94772 23.25 2.5 23.25H21.5C22.0523 23.25 22.5 22.8023 22.5 22.25V21" stroke="#3744C4" stroke-width="2" stroke-linecap="round"/>
<path fill-rule="evenodd" clip-rule="evenodd" d="M6.75 5.25C6.75 4.83579 7.08579 4.5 7.5 4.5L11.625 4.5C12.0392 4.5 12.375 4.83579 12.375 5.25C12.375 5.66421 12.0392 6 11.625 6L7.5 6C7.08579 6 6.75 5.66421 6.75 5.25Z" fill="#3744C4"/>
<path fill-rule="evenodd" clip-rule="evenodd" d="M6.75 8.25C6.75 7.83579 7.08579 7.5 7.5 7.5L11.625 7.5C12.0392 7.5 12.375 7.83579 12.375 8.25C12.375 8.66421 12.0392 9 11.625 9H7.5C7.08579 9 6.75 8.66421 6.75 8.25Z" fill="#3744C4"/>
</g>
<defs>
<clipPath id="clip0_9504_3873">
<rect width="24" height="24" fill="white"/>
</clipPath>
</defs>
</svg>
