<svg width="24" height="24" viewBox="0 0 24 24" fill="none" xmlns="http://www.w3.org/2000/svg">
<g clip-path="url(#clip0_9488_3930)">
<path d="M7.24738 22.4979C6.53807 22.4979 6.67994 21.6799 6.67994 21.1506H2.23493C1.90392 21.1506 1.66748 20.91 1.66748 20.5731V15.6651H0.579878C0.154292 15.6651 -0.129432 15.184 0.0597176 14.799L3.74813 7.29266C4.03185 6.61901 5.16674 7.10019 4.78845 7.82196L1.52562 14.4622H6.72722C6.8218 13.9329 6.58536 12.5375 6.91637 12.2488L10.9831 8.11066H7.01095C6.49079 8.15878 6.20706 7.53325 6.53807 7.14831C6.63265 7.00396 6.8218 6.95584 6.96366 6.95584H11.456V2.09595C11.5505 1.03736 13.2056 1.66289 13.8203 1.90348C14.1986 2.09595 14.4351 2.19219 15.3808 2.19219C15.7118 2.19219 15.9482 2.43278 15.9482 2.7696V5.51231C15.7118 6.90772 13.3474 5.56043 12.5908 5.46419V7.00396L19.7312 7.00396C19.9677 7.00396 20.1568 7.14831 20.2514 7.34078L23.9398 14.8471C24.1289 15.184 23.8452 15.7133 23.4669 15.7133H22.332V20.5731C22.332 20.91 22.0956 21.1506 21.7646 21.1506H17.3196C17.3196 21.7761 17.4142 22.546 16.7521 22.4979C16.6576 22.4979 7.24738 22.4979 7.24738 22.4979ZM7.81483 12.9224L7.81483 21.2949H16.0428V12.9224L11.9288 8.73619L7.81483 12.9224ZM17.225 19.9476H21.1026V15.6651H17.225V19.9476ZM2.80238 19.9476H6.67994L6.67994 15.6651H2.80238V19.9476ZM17.0359 12.2969C17.3669 12.5856 17.1304 13.981 17.225 14.5103H22.4266L19.3056 8.15878H13.0164L17.0359 12.2969ZM12.5436 4.30937C13.5366 4.4056 13.8203 4.79054 14.7661 4.88678V3.29889C13.773 3.25078 13.3947 2.91395 12.5436 2.72148V4.30937ZM11.9288 15.3283C9.37531 15.2321 9.4226 11.527 11.9288 11.4308C14.4823 11.527 14.4823 15.2321 11.9288 15.3283ZM11.9761 14.1735C12.9691 14.1735 12.9691 12.6337 11.9761 12.6337C10.9358 12.5856 10.9358 14.1735 11.9761 14.1735Z" fill="#3744C4" stroke="#3744C4" stroke-width="0.2"/>
</g>
<defs>
<clipPath id="clip0_9488_3930">
<rect width="24" height="24" fill="white"/>
</clipPath>
</defs>
</svg>
