<svg width="24" height="23" viewBox="0 0 24 23" fill="none" xmlns="http://www.w3.org/2000/svg">
<mask id="path-1-outside-1_9170_3130" maskUnits="userSpaceOnUse" x="-0.625" y="-0.25" width="25" height="23" fill="black">
<rect fill="white" x="-0.625" y="-0.25" width="25" height="23"/>
<path fill-rule="evenodd" clip-rule="evenodd" d="M22.1576 8.70165C21.6018 8.28068 20.8143 7.95326 19.7952 7.67261V6.36293L22.0187 5.61454C22.2503 5.52099 22.3892 5.33389 22.3892 5.10002C22.3892 4.86615 22.2503 4.67905 22.0187 4.5855L19.471 3.74356C19.1467 3.60324 18.7762 3.93066 18.7762 4.25808V5.56776V5.98873V7.39197C17.4328 7.11132 15.8579 6.92422 14.2367 6.83067V5.24034H15.441C15.7189 5.24034 15.9506 5.00647 15.9506 4.72582V1.26452C15.9506 0.983872 15.7189 0.75 15.441 0.75L8.58543 0.75C8.30751 0.75 8.0759 0.983872 8.0759 1.26452V4.7726C8.0759 5.05325 8.30751 5.24034 8.58543 5.24034H9.78979V6.87745C7.61268 7.01777 5.52822 7.29842 3.95328 7.76616V6.45648L6.17672 5.70809C6.40832 5.61454 6.54729 5.42744 6.54729 5.19357C6.54729 4.9597 6.40832 4.72583 6.17672 4.63228L3.62903 3.79034C3.30478 3.65001 2.93421 3.97743 2.93421 4.30486V6.03551C2.93421 6.03551 2.93421 6.03551 2.93421 6.08228V8.14036C2.51732 8.32745 2.14674 8.51455 1.86882 8.70165C0.757099 9.30972 0.293884 10.1517 0.386527 10.9936C0.386527 11.0404 0.386527 11.0871 0.386527 11.0871L1.22031 18.5711C1.22031 19.3194 1.72985 20.0211 2.60996 20.5824C3.99961 21.5178 6.45464 22.1727 9.32658 22.4066C9.3729 22.4066 9.41922 22.4066 9.41922 22.4533C9.78979 22.4533 10.1604 22.5001 10.5309 22.5001C10.9478 22.5001 11.3184 22.5469 11.7353 22.5469C11.8279 22.5469 11.9206 22.5469 11.9669 22.5469C12.8007 22.5469 13.6345 22.5001 14.5146 22.4533H14.6536C14.7462 22.4533 14.8388 22.4066 14.8852 22.3598C19.7489 21.892 22.4356 20.6291 22.7598 18.7114L23.0377 16.1388C23.1304 15.4839 22.065 15.2501 21.9724 15.9985L21.6944 18.5711C21.6018 19.3194 21.0459 19.6001 20.3974 19.9743L20.3511 20.0211L20.3048 20.0678C19.1467 20.7227 17.2476 21.1904 15.1168 21.4243V20.3485C15.1168 18.7581 13.5418 17.2614 11.9669 17.2614C10.392 17.2614 8.90969 18.7581 8.90969 20.3485V21.4243C6.82522 21.2372 5.01868 20.8162 3.86064 20.2082C3.81432 20.1614 3.72168 20.1614 3.67535 20.1146C2.98053 19.7872 2.28571 19.413 2.19307 18.6178L1.59089 12.771C3.58271 14.0807 7.75165 14.7823 11.9206 14.7823C11.9669 14.7823 12.0132 14.7823 12.0132 14.7823C12.1522 14.7823 12.2448 14.7823 12.3375 14.7823C16.4138 14.7355 20.4437 14.0807 22.2966 12.7242C22.5282 13.1452 23.2694 13.192 23.362 12.5839L23.501 11.2742C23.8715 10.3855 23.4083 9.40327 22.1576 8.70165ZM12.0132 18.2904C13.8198 18.2904 14.1903 20.1146 14.0977 21.4243C12.7544 21.5178 11.3647 21.5178 10.0214 21.4243C9.92876 20.1614 10.2067 18.2904 12.0132 18.2904ZM9.14129 4.21131V1.82581L14.9315 1.82581V4.21131H13.7271H10.2993H9.14129ZM13.2176 5.24034V6.87745C12.4301 6.87745 11.5963 6.87745 10.8089 6.87745V5.24034H13.2176ZM14.283 13.5662C12.8007 13.6597 11.2721 13.6597 9.78979 13.5662C8.40015 13.3791 7.19579 13.0049 6.50097 12.4904C8.02958 11.5081 9.60451 11.4146 12.0595 11.321C14.5146 11.4146 16.0432 11.5081 17.6181 12.4904C16.877 13.0517 15.6263 13.3791 14.283 13.5662ZM22.5745 10.9C22.2503 11.4146 21.7407 11.8355 21.0922 12.163C20.9996 12.2097 20.907 12.2565 20.8143 12.3033C20.1658 12.6307 19.2857 12.8646 18.313 13.0984C18.4056 12.9113 18.4982 12.7242 18.4982 12.4904C18.313 9.59036 8.30751 9.91778 6.40832 11.2275C5.80614 11.5549 5.48189 12.0226 5.48189 12.4904C5.52821 12.7242 5.57454 12.9113 5.7135 13.0517C4.74075 12.8646 3.90696 12.5839 3.25846 12.3033C3.02685 12.2097 2.79525 12.1162 2.60996 12.0226C2.10042 11.742 1.72985 11.3678 1.49824 10.9468C1.35928 10.3855 1.96146 9.77746 3.30478 9.21617C5.34293 8.37423 8.53911 7.85971 12.0595 7.85971C15.58 7.85971 18.7762 8.37423 20.8606 9.21617C22.065 9.73069 22.6672 10.2452 22.6672 10.7597C22.6209 10.8065 22.5745 10.8533 22.5745 10.9Z"/>
</mask>
<path fill-rule="evenodd" clip-rule="evenodd" d="M22.1576 8.70165C21.6018 8.28068 20.8143 7.95326 19.7952 7.67261V6.36293L22.0187 5.61454C22.2503 5.52099 22.3892 5.33389 22.3892 5.10002C22.3892 4.86615 22.2503 4.67905 22.0187 4.5855L19.471 3.74356C19.1467 3.60324 18.7762 3.93066 18.7762 4.25808V5.56776V5.98873V7.39197C17.4328 7.11132 15.8579 6.92422 14.2367 6.83067V5.24034H15.441C15.7189 5.24034 15.9506 5.00647 15.9506 4.72582V1.26452C15.9506 0.983872 15.7189 0.75 15.441 0.75L8.58543 0.75C8.30751 0.75 8.0759 0.983872 8.0759 1.26452V4.7726C8.0759 5.05325 8.30751 5.24034 8.58543 5.24034H9.78979V6.87745C7.61268 7.01777 5.52822 7.29842 3.95328 7.76616V6.45648L6.17672 5.70809C6.40832 5.61454 6.54729 5.42744 6.54729 5.19357C6.54729 4.9597 6.40832 4.72583 6.17672 4.63228L3.62903 3.79034C3.30478 3.65001 2.93421 3.97743 2.93421 4.30486V6.03551C2.93421 6.03551 2.93421 6.03551 2.93421 6.08228V8.14036C2.51732 8.32745 2.14674 8.51455 1.86882 8.70165C0.757099 9.30972 0.293884 10.1517 0.386527 10.9936C0.386527 11.0404 0.386527 11.0871 0.386527 11.0871L1.22031 18.5711C1.22031 19.3194 1.72985 20.0211 2.60996 20.5824C3.99961 21.5178 6.45464 22.1727 9.32658 22.4066C9.3729 22.4066 9.41922 22.4066 9.41922 22.4533C9.78979 22.4533 10.1604 22.5001 10.5309 22.5001C10.9478 22.5001 11.3184 22.5469 11.7353 22.5469C11.8279 22.5469 11.9206 22.5469 11.9669 22.5469C12.8007 22.5469 13.6345 22.5001 14.5146 22.4533H14.6536C14.7462 22.4533 14.8388 22.4066 14.8852 22.3598C19.7489 21.892 22.4356 20.6291 22.7598 18.7114L23.0377 16.1388C23.1304 15.4839 22.065 15.2501 21.9724 15.9985L21.6944 18.5711C21.6018 19.3194 21.0459 19.6001 20.3974 19.9743L20.3511 20.0211L20.3048 20.0678C19.1467 20.7227 17.2476 21.1904 15.1168 21.4243V20.3485C15.1168 18.7581 13.5418 17.2614 11.9669 17.2614C10.392 17.2614 8.90969 18.7581 8.90969 20.3485V21.4243C6.82522 21.2372 5.01868 20.8162 3.86064 20.2082C3.81432 20.1614 3.72168 20.1614 3.67535 20.1146C2.98053 19.7872 2.28571 19.413 2.19307 18.6178L1.59089 12.771C3.58271 14.0807 7.75165 14.7823 11.9206 14.7823C11.9669 14.7823 12.0132 14.7823 12.0132 14.7823C12.1522 14.7823 12.2448 14.7823 12.3375 14.7823C16.4138 14.7355 20.4437 14.0807 22.2966 12.7242C22.5282 13.1452 23.2694 13.192 23.362 12.5839L23.501 11.2742C23.8715 10.3855 23.4083 9.40327 22.1576 8.70165ZM12.0132 18.2904C13.8198 18.2904 14.1903 20.1146 14.0977 21.4243C12.7544 21.5178 11.3647 21.5178 10.0214 21.4243C9.92876 20.1614 10.2067 18.2904 12.0132 18.2904ZM9.14129 4.21131V1.82581L14.9315 1.82581V4.21131H13.7271H10.2993H9.14129ZM13.2176 5.24034V6.87745C12.4301 6.87745 11.5963 6.87745 10.8089 6.87745V5.24034H13.2176ZM14.283 13.5662C12.8007 13.6597 11.2721 13.6597 9.78979 13.5662C8.40015 13.3791 7.19579 13.0049 6.50097 12.4904C8.02958 11.5081 9.60451 11.4146 12.0595 11.321C14.5146 11.4146 16.0432 11.5081 17.6181 12.4904C16.877 13.0517 15.6263 13.3791 14.283 13.5662ZM22.5745 10.9C22.2503 11.4146 21.7407 11.8355 21.0922 12.163C20.9996 12.2097 20.907 12.2565 20.8143 12.3033C20.1658 12.6307 19.2857 12.8646 18.313 13.0984C18.4056 12.9113 18.4982 12.7242 18.4982 12.4904C18.313 9.59036 8.30751 9.91778 6.40832 11.2275C5.80614 11.5549 5.48189 12.0226 5.48189 12.4904C5.52821 12.7242 5.57454 12.9113 5.7135 13.0517C4.74075 12.8646 3.90696 12.5839 3.25846 12.3033C3.02685 12.2097 2.79525 12.1162 2.60996 12.0226C2.10042 11.742 1.72985 11.3678 1.49824 10.9468C1.35928 10.3855 1.96146 9.77746 3.30478 9.21617C5.34293 8.37423 8.53911 7.85971 12.0595 7.85971C15.58 7.85971 18.7762 8.37423 20.8606 9.21617C22.065 9.73069 22.6672 10.2452 22.6672 10.7597C22.6209 10.8065 22.5745 10.8533 22.5745 10.9Z" fill="#3744C4"/>
<path fill-rule="evenodd" clip-rule="evenodd" d="M22.1576 8.70165C21.6018 8.28068 20.8143 7.95326 19.7952 7.67261V6.36293L22.0187 5.61454C22.2503 5.52099 22.3892 5.33389 22.3892 5.10002C22.3892 4.86615 22.2503 4.67905 22.0187 4.5855L19.471 3.74356C19.1467 3.60324 18.7762 3.93066 18.7762 4.25808V5.56776V5.98873V7.39197C17.4328 7.11132 15.8579 6.92422 14.2367 6.83067V5.24034H15.441C15.7189 5.24034 15.9506 5.00647 15.9506 4.72582V1.26452C15.9506 0.983872 15.7189 0.75 15.441 0.75L8.58543 0.75C8.30751 0.75 8.0759 0.983872 8.0759 1.26452V4.7726C8.0759 5.05325 8.30751 5.24034 8.58543 5.24034H9.78979V6.87745C7.61268 7.01777 5.52822 7.29842 3.95328 7.76616V6.45648L6.17672 5.70809C6.40832 5.61454 6.54729 5.42744 6.54729 5.19357C6.54729 4.9597 6.40832 4.72583 6.17672 4.63228L3.62903 3.79034C3.30478 3.65001 2.93421 3.97743 2.93421 4.30486V6.03551C2.93421 6.03551 2.93421 6.03551 2.93421 6.08228V8.14036C2.51732 8.32745 2.14674 8.51455 1.86882 8.70165C0.757099 9.30972 0.293884 10.1517 0.386527 10.9936C0.386527 11.0404 0.386527 11.0871 0.386527 11.0871L1.22031 18.5711C1.22031 19.3194 1.72985 20.0211 2.60996 20.5824C3.99961 21.5178 6.45464 22.1727 9.32658 22.4066C9.3729 22.4066 9.41922 22.4066 9.41922 22.4533C9.78979 22.4533 10.1604 22.5001 10.5309 22.5001C10.9478 22.5001 11.3184 22.5469 11.7353 22.5469C11.8279 22.5469 11.9206 22.5469 11.9669 22.5469C12.8007 22.5469 13.6345 22.5001 14.5146 22.4533H14.6536C14.7462 22.4533 14.8388 22.4066 14.8852 22.3598C19.7489 21.892 22.4356 20.6291 22.7598 18.7114L23.0377 16.1388C23.1304 15.4839 22.065 15.2501 21.9724 15.9985L21.6944 18.5711C21.6018 19.3194 21.0459 19.6001 20.3974 19.9743L20.3511 20.0211L20.3048 20.0678C19.1467 20.7227 17.2476 21.1904 15.1168 21.4243V20.3485C15.1168 18.7581 13.5418 17.2614 11.9669 17.2614C10.392 17.2614 8.90969 18.7581 8.90969 20.3485V21.4243C6.82522 21.2372 5.01868 20.8162 3.86064 20.2082C3.81432 20.1614 3.72168 20.1614 3.67535 20.1146C2.98053 19.7872 2.28571 19.413 2.19307 18.6178L1.59089 12.771C3.58271 14.0807 7.75165 14.7823 11.9206 14.7823C11.9669 14.7823 12.0132 14.7823 12.0132 14.7823C12.1522 14.7823 12.2448 14.7823 12.3375 14.7823C16.4138 14.7355 20.4437 14.0807 22.2966 12.7242C22.5282 13.1452 23.2694 13.192 23.362 12.5839L23.501 11.2742C23.8715 10.3855 23.4083 9.40327 22.1576 8.70165ZM12.0132 18.2904C13.8198 18.2904 14.1903 20.1146 14.0977 21.4243C12.7544 21.5178 11.3647 21.5178 10.0214 21.4243C9.92876 20.1614 10.2067 18.2904 12.0132 18.2904ZM9.14129 4.21131V1.82581L14.9315 1.82581V4.21131H13.7271H10.2993H9.14129ZM13.2176 5.24034V6.87745C12.4301 6.87745 11.5963 6.87745 10.8089 6.87745V5.24034H13.2176ZM14.283 13.5662C12.8007 13.6597 11.2721 13.6597 9.78979 13.5662C8.40015 13.3791 7.19579 13.0049 6.50097 12.4904C8.02958 11.5081 9.60451 11.4146 12.0595 11.321C14.5146 11.4146 16.0432 11.5081 17.6181 12.4904C16.877 13.0517 15.6263 13.3791 14.283 13.5662ZM22.5745 10.9C22.2503 11.4146 21.7407 11.8355 21.0922 12.163C20.9996 12.2097 20.907 12.2565 20.8143 12.3033C20.1658 12.6307 19.2857 12.8646 18.313 13.0984C18.4056 12.9113 18.4982 12.7242 18.4982 12.4904C18.313 9.59036 8.30751 9.91778 6.40832 11.2275C5.80614 11.5549 5.48189 12.0226 5.48189 12.4904C5.52821 12.7242 5.57454 12.9113 5.7135 13.0517C4.74075 12.8646 3.90696 12.5839 3.25846 12.3033C3.02685 12.2097 2.79525 12.1162 2.60996 12.0226C2.10042 11.742 1.72985 11.3678 1.49824 10.9468C1.35928 10.3855 1.96146 9.77746 3.30478 9.21617C5.34293 8.37423 8.53911 7.85971 12.0595 7.85971C15.58 7.85971 18.7762 8.37423 20.8606 9.21617C22.065 9.73069 22.6672 10.2452 22.6672 10.7597C22.6209 10.8065 22.5745 10.8533 22.5745 10.9Z" stroke="#3744C4" stroke-width="0.4" mask="url(#path-1-outside-1_9170_3130)"/>
</svg>
