<svg width="40" height="40" viewBox="0 0 40 40" fill="none" xmlns="http://www.w3.org/2000/svg">
<path fill-rule="evenodd" clip-rule="evenodd" d="M19.9989 1.25L20.9159 2.36018L19.9989 3.52829L19.0917 2.36018L19.9989 1.25ZM26.1278 5.71003L25.4812 4.92325L24.8345 5.71003L25.4812 6.47751L26.1278 5.71003ZM27.5273 12.3229C28.1933 12.4242 28.4105 12.8731 28.4491 13.0131C28.6759 12.82 28.8834 12.1636 28.8062 11.7243C28.5746 10.4838 26.7311 10.4886 24.7766 10.4935C23.4977 10.4983 22.1706 10.5031 21.2151 10.1556C21.1716 10.7541 21.9583 11.7147 22.7111 12.067C21.6928 12.9455 20.7614 14.5191 20.2981 16.4884C21.2054 16.5126 22.0934 16.7394 22.9041 17.1449C22.7256 14.8232 24.9648 11.9415 27.5273 12.3229ZM26.9289 13.8481C26.345 13.3365 25.5005 13.351 25.0179 13.4958C25.3316 13.1096 26.0699 12.7911 26.2871 12.7524C26.456 12.8152 26.9289 13.2979 26.9289 13.8481ZM29.6218 7.01329C29.5639 6.82021 31.5425 6.81539 31.5425 8.04624C31.5425 8.45653 31.2481 8.76062 30.9585 9.06471C30.6593 9.37846 30.3601 9.69221 30.3601 10.1218C30.3601 10.5224 30.7896 10.8169 30.9248 10.8169C30.6207 9.44121 31.8803 10.1604 32.2229 10.4211C31.8079 9.28192 32.2229 8.8475 32.5656 8.48549C32.7827 8.25862 32.9758 8.05589 32.913 7.73249C32.8503 7.37048 32.3291 7.29325 31.8272 7.22085C31.5087 7.1774 31.195 7.12913 31.0116 7.01329C30.7848 6.86848 30.5483 6.61749 30.3071 6.36649C29.6459 5.66659 28.9751 4.96187 28.4925 6.47751C29.7279 7.62148 29.0089 9.30123 27.4405 9.30123C27.4405 9.30123 27.4308 9.5474 27.4501 9.56671C29.3129 9.47982 29.9644 8.10899 29.6218 7.01329ZM15.0138 13.4958C14.5312 13.3462 13.6867 13.3365 13.1027 13.8481C13.1027 13.3027 13.5805 12.8152 13.7446 12.7524C13.9569 12.7911 14.6953 13.1096 15.0138 13.4958ZM17.142 17.2414C17.9479 16.807 18.8456 16.5512 19.7576 16.5029C19.2944 14.5287 18.3581 12.9503 17.3447 12.0719C18.0975 11.7147 18.889 10.7589 18.8456 10.1604C17.89 10.5031 16.5677 10.5031 15.284 10.4983C13.3296 10.4886 11.4861 10.4886 11.2544 11.7291C11.1724 12.1636 11.3799 12.8248 11.6115 13.0179C11.655 12.8779 11.8625 12.429 12.5333 12.3277C15.1151 11.9367 17.3785 14.8956 17.142 17.2414ZM30.5725 30.3657L31.7934 29.41C32.4932 29.8203 32.9323 30.5781 32.8262 31.4228C32.7103 32.3882 31.861 33.1653 30.8186 33.2667C29.9017 33.3584 29.0861 32.9384 28.6469 32.282C27.9568 31.6014 26.2195 31.0946 24.8055 31.0946C24.5835 31.0946 24.4822 30.9112 24.5594 30.7277C25.124 29.3714 23.9079 28.3915 22.6532 29.188C22.1079 29.5355 21.5481 30.2209 21.1282 31.3697C23.1889 31.8669 25.7852 33.2377 26.3064 34.734C26.5091 35.3133 25.8431 36.1 25.0324 36.2593C25.0227 36.2593 25.0179 36.2593 25.0082 36.2593C25.0034 36.2593 24.9986 36.2545 24.9986 36.2545C24.9937 36.2545 24.9937 36.2497 24.9889 36.2497C24.9793 36.24 24.9648 36.2304 24.9648 36.2159C24.5401 33.981 22.132 32.3206 20.8724 32.031C20.829 32.1517 20.8242 32.1565 20.8049 32.2096L20.7663 32.3109C22.1368 32.9577 23.4591 34.3141 23.8355 35.9263C24.0093 36.6648 23.1792 37.3309 22.4988 37.5143C22.4891 37.5191 22.4843 37.5191 22.4746 37.5143C22.465 37.5143 22.4601 37.5095 22.4505 37.5047C22.4408 37.4998 22.4408 37.495 22.436 37.4854C22.4312 37.4757 22.4264 37.4709 22.4264 37.4612C22.2961 35.4195 21.3936 33.6818 20.5829 32.895C20.5587 33.0495 20.5443 33.2039 20.5346 33.3584C20.5346 33.3584 21.3647 35.6608 21.3647 37.3454C21.3647 38.1273 20.1968 38.6728 19.9796 38.75C19.8059 38.6728 18.6429 38.1273 18.6429 37.3454C18.6429 35.6656 19.4729 33.3584 19.4729 33.3584C19.4633 33.2039 19.4488 33.0446 19.4247 32.895C18.6139 33.6818 17.7066 35.4195 17.5812 37.4612C17.5812 37.4709 17.5763 37.4757 17.5715 37.4854C17.5667 37.495 17.5619 37.495 17.557 37.5047C17.5474 37.5095 17.5426 37.5143 17.5329 37.5143C17.5233 37.5143 17.5184 37.5143 17.5088 37.5143C16.8283 37.3357 15.9983 36.6648 16.172 35.9214C16.5484 34.3093 17.8804 32.9481 19.2413 32.3061L19.1834 32.1565L19.1351 32.0262C17.8804 32.3061 15.4674 33.9714 15.0428 36.2111C15.0428 36.2207 15.0379 36.2255 15.0331 36.2304C15.0283 36.24 15.0234 36.24 15.0186 36.2448C15.009 36.2497 15.009 36.2545 14.9993 36.2545C14.9897 36.2545 14.9848 36.2545 14.9752 36.2545C14.1644 36.0952 13.4985 35.3084 13.7012 34.7292C14.2272 33.2329 16.8187 31.862 18.8842 31.3649C18.4643 30.2209 17.9045 29.5355 17.3592 29.1831C16.1044 28.3819 14.8835 29.3666 15.453 30.7229C15.5302 30.9015 15.4288 31.0897 15.2068 31.0897C13.9569 31.0897 12.4561 31.4855 11.6501 32.0503C11.6501 32.0503 12.6298 32.9529 12.6443 32.9722C12.7167 33.035 12.7698 33.1219 12.7746 33.2232C12.7939 33.4453 12.6153 33.6383 12.3789 33.6528C12.3209 33.6576 12.2534 33.648 12.2003 33.6287C12.1424 33.6094 12.0893 33.5756 12.0459 33.537L11.071 32.6343C10.7574 32.8129 10.3858 32.8757 10.0335 32.8033C9.48815 32.6923 9.05864 32.2723 8.97178 31.7559C8.91869 31.4469 8.98626 31.1284 9.16481 30.8725C9.16481 30.8725 5.47783 27.402 5.44405 27.3634L5.27032 27.4455C4.8746 27.682 4.40648 27.3875 4.42579 27.18C4.15071 27.4358 2.85255 27.5275 2.46647 26.2291C2.72707 26.2532 3.26275 26.2387 3.26275 26.2387C3.26275 26.2387 2.63056 25.2492 3.08902 24.7086C3.61021 24.2259 4.64778 24.7858 4.64778 24.7858C4.64778 24.7858 4.62848 24.2694 4.58987 24.0135C5.93629 24.308 5.92664 25.5726 5.68052 25.8622C5.88803 25.8333 6.21619 26.2725 6.00385 26.6732L5.9749 26.7456C6.04729 26.7842 9.83079 30.3512 9.83079 30.3512C9.99487 30.2933 10.1686 30.2595 10.3423 30.2595C10.7525 30.2595 11.1193 30.4236 11.3751 30.6891C12.3403 30.805 14.3913 30.3464 14.203 30.052C12.4512 27.5999 13.1703 25.9395 14.5602 25.4278C15.5784 27.4744 17.6922 28.879 20.1389 28.879C22.5567 28.879 24.6559 27.5082 25.679 25.5002C26.9482 26.0843 27.537 27.7061 25.8624 30.052C25.6694 30.3464 27.6673 30.7857 28.4008 30.6843C28.5408 30.1485 28.8979 29.69 29.3853 29.4003L30.5725 30.3657ZM31.3929 28.4832L30.5725 27.6144L29.7472 28.4832L30.5725 29.2459L31.3929 28.4832ZM15.1731 5.71003L14.5264 4.92325L13.8797 5.71003L14.5264 6.47751L15.1731 5.71003ZM31.6293 18.091C35.1426 18.564 37.8837 17.2849 38.3518 17.0484C38.3615 17.0435 38.3663 17.0387 38.3759 17.0387C38.3856 17.0387 38.3952 17.0435 38.4001 17.0484C38.4097 17.0532 38.4146 17.058 38.4194 17.0628C38.4242 17.0725 38.429 17.0773 38.429 17.087C38.6076 18.5447 37.6858 19.708 36.1126 19.9686C34.5249 20.2293 31.1805 19.4425 31.1805 19.4425C31.113 19.5921 31.0406 19.7418 30.9682 19.8866C33.1785 21.1512 36.2912 21.0161 36.7593 20.9871C36.7689 20.9871 36.7737 20.9871 36.7834 20.9919C36.7931 20.9967 36.7979 21.0016 36.8027 21.0016C36.8075 21.0016 36.8124 21.0112 36.8124 21.0209C36.8172 21.0305 36.8172 21.0354 36.8172 21.045C36.7786 22.5703 35.2825 22.9902 33.9651 22.8165C32.8358 22.6668 31.2626 21.9139 30.1478 21.074C30.0368 21.1995 29.9162 21.3153 29.7955 21.4263C30.862 23.1688 33.3618 23.8784 34.1774 23.9411C34.1871 23.9411 34.1967 23.946 34.2015 23.9508C34.2112 23.9556 34.216 23.9605 34.2208 23.9701C34.2257 23.9798 34.2305 23.9846 34.2305 23.9942C34.2305 24.0039 34.2257 24.0135 34.2208 24.0184C33.6852 24.9403 32.4787 25.2444 31.1612 24.6169C30.3794 24.2404 29.4046 23.2606 28.7338 22.1552C28.5794 22.2324 28.4201 22.2952 28.256 22.3483C28.6711 24.4287 30.7462 25.6933 31.1081 25.9009C31.1178 25.9057 31.1178 25.9105 31.1275 25.9153C31.1323 25.925 31.1371 25.9298 31.1371 25.9346C31.1371 25.9443 31.1371 25.9491 31.1371 25.9588C31.1323 25.9684 31.1275 25.9733 31.1275 25.9781C30.5097 26.6683 29.0861 26.6828 28.2174 25.6836C27.6818 25.0706 27.2667 23.9267 27.0399 22.5462C26.7986 22.551 26.5622 22.5751 26.3305 22.6331C26.3257 21.9959 26.2195 21.3636 26.0217 20.7554C26.2292 20.7506 26.4319 20.7313 26.6345 20.6975C27.7783 20.4948 28.6421 19.568 28.6421 18.4482C28.6421 17.8062 28.3574 17.227 27.8941 16.8118C27.87 16.7925 27.8507 16.7684 27.841 16.7394C27.8314 16.7153 27.8265 16.6815 27.8314 16.6477C27.8362 16.6139 27.841 16.5898 27.8603 16.5657C27.8748 16.5415 27.8989 16.5222 27.9231 16.5078C27.9713 16.4788 28.0196 16.4498 28.0678 16.416C32.054 13.8916 35.6927 8.03659 36.0788 7.39944C36.0836 7.38979 36.0885 7.38979 36.0981 7.38013C36.1078 7.37531 36.1126 7.37048 36.1223 7.37048C36.1319 7.37048 36.1367 7.37048 36.1464 7.37048C36.156 7.37531 36.1609 7.38013 36.1705 7.38013C37.4011 8.45653 37.5169 10.5659 36.2284 12.2167C35.3742 13.3124 33.579 14.5046 31.7452 15.5424C31.7693 15.7355 31.7886 15.9334 31.7983 16.1264C35.5769 15.3155 37.9802 12.7187 38.3663 12.2794C38.3759 12.2698 38.3808 12.2698 38.3904 12.2649C38.4001 12.2601 38.4097 12.2601 38.4146 12.2601C38.4194 12.2601 38.4339 12.2649 38.4387 12.2698C38.4483 12.2746 38.4532 12.2794 38.458 12.2891C39.1577 13.6454 38.5497 15.4748 37.1695 16.2374C35.9582 16.9084 34.0568 17.3042 31.721 17.5793C31.6969 17.7531 31.668 17.922 31.6293 18.091ZM8.81735 19.4425C8.88491 19.5921 8.9573 19.7418 9.02969 19.8866C6.81943 21.1512 3.71156 21.0209 3.23862 20.9871C3.22897 20.9871 3.22414 20.9871 3.21449 20.9919C3.20484 20.9967 3.20001 21.0016 3.19518 21.0016C3.19036 21.0064 3.18553 21.0112 3.18071 21.0209C3.17588 21.0305 3.17588 21.0354 3.17588 21.045C3.21449 22.5703 4.71052 22.9902 6.02798 22.8117C7.15724 22.6572 8.73048 21.909 9.84527 21.0692C9.95626 21.1947 10.0721 21.3105 10.1976 21.4215C9.13103 23.164 6.63122 23.8736 5.81564 23.9363C5.80599 23.9363 5.79634 23.9411 5.79152 23.946C5.78186 23.9508 5.77704 23.9556 5.77221 23.9653C5.76739 23.9749 5.76256 23.9798 5.76256 23.9894C5.76256 23.9991 5.76739 24.0087 5.77221 24.0135C6.30789 24.9355 7.51436 25.2396 8.83183 24.6121C9.61362 24.2356 10.5885 23.2557 11.2593 22.1504C11.4137 22.2276 11.5729 22.2904 11.737 22.3434C11.322 24.4238 9.25168 25.6885 8.88491 25.896C8.87526 25.9009 8.87526 25.9057 8.87044 25.9105C8.86561 25.9202 8.86078 25.925 8.86078 25.9298C8.86078 25.9395 8.86078 25.9443 8.86078 25.9539C8.86561 25.9636 8.87044 25.9684 8.87044 25.9733C9.48815 26.6635 10.9118 26.678 11.7804 25.6788C12.3161 25.0658 12.7263 23.9218 12.958 22.5413C13.1848 22.5413 13.5226 22.5751 13.8749 22.6813C13.8749 22.0249 13.9811 21.3781 14.1837 20.7506C13.8797 20.7602 13.5998 20.7409 13.3633 20.6927C12.2196 20.4899 11.3558 19.5632 11.3558 18.4433C11.3558 17.8014 11.6405 17.2221 12.1038 16.807C12.1279 16.7877 12.1472 16.7636 12.1569 16.7346C12.1665 16.7105 12.1713 16.6767 12.1665 16.6477C12.1617 16.6188 12.1569 16.5898 12.1376 16.5657C12.1231 16.5415 12.099 16.5222 12.0748 16.5078C12.0266 16.4788 11.9735 16.4498 11.9252 16.416C7.94386 13.8868 4.30514 8.03659 3.91424 7.39461C3.90942 7.38496 3.90459 7.38496 3.89494 7.37531C3.88529 7.37048 3.88046 7.36565 3.87081 7.36565C3.86116 7.36565 3.85151 7.36565 3.84668 7.36565C3.83703 7.37048 3.8322 7.37531 3.82255 7.37531C2.59677 8.4517 2.47613 10.561 3.76464 12.2118C4.61882 13.3027 6.41406 14.4998 8.24789 15.5376C8.22377 15.7306 8.20446 15.9237 8.19481 16.1168C4.41614 15.3107 2.01767 12.7138 1.6316 12.2698C1.62194 12.2601 1.61712 12.2601 1.60747 12.2553C1.59781 12.2504 1.58816 12.2504 1.58334 12.2504C1.57368 12.2504 1.56403 12.2553 1.55921 12.2601C1.54956 12.2649 1.54473 12.2698 1.5399 12.2794C0.844975 13.6358 1.44821 15.4651 2.82842 16.2278C4.03972 16.8987 5.94112 17.2945 8.27685 17.5697C8.30098 17.7386 8.33476 17.9075 8.36854 18.0717C4.86494 18.5543 2.12384 17.2801 1.65572 17.0387C1.64607 17.0339 1.64125 17.0291 1.6316 17.0291C1.62194 17.0291 1.61229 17.0339 1.60747 17.0387C1.59781 17.0435 1.59299 17.0484 1.58816 17.058C1.58334 17.0677 1.57851 17.0725 1.57851 17.0822C1.39995 18.5399 2.3217 19.708 3.89494 19.9686C5.47301 20.2293 8.81735 19.4425 8.81735 19.4425ZM9.08277 10.8217C9.38681 9.44604 8.12725 10.1652 7.78461 10.4259C8.19964 9.28675 7.78461 8.85233 7.44197 8.49031C7.22481 8.26345 7.03177 8.06072 7.09451 7.73732C7.15724 7.37531 7.67844 7.29808 8.18033 7.22567C8.49884 7.18223 8.81252 7.13396 8.99591 7.01812C9.22273 6.87331 9.45919 6.62231 9.70049 6.37132C10.3616 5.67142 11.0324 4.96669 11.515 6.48233C10.2796 7.6263 10.9987 9.30606 12.5671 9.30606C12.5671 9.30606 12.5767 9.55223 12.5622 9.57153C10.6898 9.47982 10.0383 8.10899 10.3809 7.01329C10.4389 6.82021 8.46023 6.81539 8.46023 8.04624C8.46023 8.45653 8.75461 8.76062 9.04417 9.06471C9.34337 9.37846 9.64258 9.69221 9.64258 10.1218C9.64258 10.5273 9.21307 10.8217 9.08277 10.8217ZM15.7377 9.57153H13.3151L13.3103 9.56671C13.2765 9.52327 12.8808 8.98748 12.7794 8.71235C12.3982 7.69388 12.8856 7.21602 13.595 7.21602L14.5167 8.05107L15.4385 7.21602C16.1527 7.21602 16.6401 7.69388 16.2589 8.71235C16.2106 8.84268 16.0948 9.03575 15.9838 9.20469C16.8428 9.08885 17.9431 8.50479 18.1796 7.24498C18.1796 7.24498 17.5426 6.24099 17.3833 5.83553C16.809 4.37299 17.5426 3.77446 18.6091 3.77446L19.9893 5.39146L21.3791 3.77446C22.4457 3.77446 23.1792 4.37299 22.6098 5.83553C22.4505 6.24099 21.8135 7.24498 21.8135 7.24498C22.0548 8.49997 23.1503 9.08885 24.0093 9.20469C23.8983 9.03575 23.7824 8.84268 23.7342 8.71235C23.3529 7.69388 23.8404 7.21602 24.5498 7.21602L25.4715 8.05107L26.3933 7.21602C27.1075 7.21602 27.5949 7.69388 27.2137 8.71235C27.1075 8.99714 26.6828 9.56671 26.6828 9.56671H24.2602C22.2237 9.56671 21.3068 8.32137 21.0317 7.24015H18.9662C18.6863 8.3262 17.7742 9.57153 15.7377 9.57153ZM21.0992 23.3957C20.9303 23.5598 20.7373 23.6757 20.4864 23.6467C20.4622 23.6419 20.4188 23.6708 20.414 23.6901C20.3223 23.9846 20.2354 24.2742 20.1534 24.5735L20.1341 24.6314C20.1341 24.6362 20.1437 24.641 20.1437 24.641C20.2788 24.6603 20.3754 24.5976 20.4622 24.5107C20.5008 24.4721 20.5443 24.4335 20.5877 24.3997C20.6118 24.3804 20.6311 24.3611 20.6553 24.3418C21.0124 24.0232 21.3743 23.7143 21.8087 23.4971C22.2623 23.2702 22.6725 22.9661 23.0103 22.5944C23.0875 22.5027 23.1261 22.4207 23.0779 22.3048C23.0296 22.189 22.9331 22.1649 22.8221 22.1697C22.798 22.1697 22.7642 22.1697 22.7401 22.1697C22.7256 22.1697 22.7111 22.1697 22.6966 22.1697C22.547 22.1745 22.4022 22.1793 22.2526 22.1697C21.9003 22.16 21.5625 22.0876 21.2488 21.9235C21.2344 21.9139 21.2247 21.909 21.2054 21.8994C21.1958 21.8945 21.1958 21.8897 21.1909 21.8849C21.1861 21.8752 21.1813 21.8752 21.1813 21.8656C21.1813 21.8559 21.1813 21.8511 21.1861 21.8463C21.1909 21.8366 21.1958 21.8366 21.1958 21.827L21.2682 21.7497C21.3454 21.6725 21.4129 21.5953 21.4805 21.5229C21.7749 21.1898 21.9341 20.8085 21.8376 20.3548C21.8183 20.2727 21.7942 20.1907 21.7604 20.1086C21.7459 20.0652 21.7314 20.0169 21.717 19.9735C21.6735 19.8238 21.7604 19.6838 21.9148 19.6549C21.939 19.65 21.9631 19.6452 21.9872 19.6452C22.0258 19.6356 22.0644 19.6356 22.103 19.6259C22.2333 19.597 22.3105 19.5149 22.2961 19.3797C22.2719 19.1674 22.2526 18.9502 22.1996 18.7378C22.1368 18.4771 21.9534 18.3613 21.688 18.3854C21.6108 18.3951 21.5288 18.4047 21.4564 18.4385C21.162 18.5785 20.8435 18.6316 20.5298 18.6847C20.4815 18.6943 20.4333 18.704 20.3802 18.7088C20.1872 18.7426 19.9893 18.7764 19.7963 18.8102L19.6032 18.844C19.5936 18.8488 19.5791 18.8536 19.5743 18.8633C19.5646 18.8729 19.5646 18.8826 19.5646 18.8971C19.5743 19.0853 19.6611 19.2253 19.8107 19.3266C19.8686 19.3701 19.9362 19.4039 19.9989 19.4377C20.0424 19.4618 20.081 19.4811 20.1196 19.5052C20.2016 19.5535 20.2837 19.6018 20.3657 19.6549L20.4091 19.679L20.3947 19.7707C20.3657 19.7804 20.3368 19.7852 20.3078 19.7949C20.2016 19.8238 20.1003 19.8528 19.9989 19.8528C19.555 19.8624 19.1158 19.8673 18.6766 19.8673H18.4354C18.1989 19.8673 17.9576 19.8673 17.7211 19.8673C17.3447 19.8673 16.9586 19.8673 16.5822 19.8721C16.4905 19.8721 16.4037 19.8914 16.312 19.9059L16.2685 19.9155C16.2589 19.9155 16.2492 19.9252 16.2444 19.93C16.2347 19.9397 16.2347 19.9445 16.2347 19.9541C16.2347 19.9638 16.2347 19.9735 16.2444 19.9831C16.2492 19.9928 16.2541 19.9976 16.2685 20.0024L16.3747 20.0459C16.5195 20.1086 16.6643 20.1714 16.8139 20.2293C16.9104 20.2679 17.0069 20.2534 17.0745 20.1472C17.1227 20.07 17.2048 20.0459 17.2964 20.0555C17.3302 20.0603 17.364 20.0652 17.3978 20.0748C17.4316 20.0845 17.4654 20.0893 17.4991 20.0941C18.3726 20.21 19.2413 20.321 20.1148 20.4368C20.2547 20.4561 20.3078 20.5092 20.3078 20.6444C20.3078 21.045 20.2161 21.4263 19.9121 21.7063C19.2799 22.2904 18.8359 22.9951 18.5415 23.7915C18.5174 23.8591 18.4788 23.9315 18.4209 23.9701C18.3002 24.0618 18.1748 24.1487 18.0541 24.2308C17.9865 24.2742 17.919 24.3225 17.8562 24.3707C17.8321 24.39 17.7983 24.4094 17.7742 24.4287C17.697 24.4818 17.6198 24.53 17.557 24.5976C17.4123 24.7569 17.2723 24.9258 17.1275 25.0899C16.9876 25.2492 16.8525 25.4133 16.7125 25.5678C16.6498 25.6402 16.5629 25.6933 16.4664 25.7126C16.3506 25.7367 16.2927 25.785 16.2878 25.8912C16.2782 25.9733 16.2782 26.0553 16.2734 26.1374C16.2637 26.2629 16.2589 26.3835 16.2492 26.5042C16.2347 26.6635 16.2927 26.789 16.4085 26.9097C16.4133 26.9145 16.4181 26.9193 16.4278 26.9193C16.4374 26.9242 16.4423 26.9242 16.4519 26.9242C16.4616 26.9242 16.4664 26.9193 16.476 26.9145C16.4857 26.9097 16.4857 26.9048 16.4905 26.9L16.5243 26.8421C16.5677 26.76 16.616 26.6828 16.6449 26.5959C16.6787 26.509 16.7029 26.4173 16.7222 26.3353C16.7318 26.2918 16.7463 26.2484 16.7559 26.2049C16.8187 25.9684 16.9538 25.7609 17.142 25.5968C17.4267 25.3458 17.7501 25.1527 18.0734 24.9596L18.0782 24.9548C18.6091 24.6314 19.1351 24.3032 19.5694 23.8543C19.7046 23.7095 19.83 23.5598 19.9507 23.4054C19.9941 23.3523 20.0327 23.2992 20.0762 23.2509C20.2209 23.0723 20.3947 22.9709 20.6311 22.9806C20.7807 22.9854 20.9303 22.9854 21.0848 22.9854C21.1813 22.9854 21.2778 22.9854 21.3791 22.9902C21.3936 22.9902 21.4033 22.9902 21.4226 22.9951C21.4322 22.9951 21.4371 22.9999 21.4467 23.0047C21.4564 23.0096 21.4564 23.0144 21.4612 23.0289C21.466 23.0385 21.466 23.0482 21.4612 23.053C21.4612 23.0627 21.4515 23.0675 21.4515 23.0771C21.4226 23.1061 21.3936 23.1351 21.3647 23.1688C21.244 23.2461 21.1765 23.3233 21.0992 23.3957ZM22.0934 21.7256L22.0548 21.7208C22.0451 21.7208 22.0403 21.716 22.0306 21.7111C22.021 21.7063 22.021 21.7015 22.0162 21.6918C22.0113 21.6822 22.0113 21.6773 22.0113 21.6677C22.0113 21.658 22.0162 21.6532 22.021 21.6436C22.2912 21.1753 22.5132 20.7071 22.3492 20.1472C22.3492 20.1376 22.3443 20.1376 22.3492 20.1279C22.3492 20.1183 22.354 20.1183 22.3588 20.1086C22.3636 20.1038 22.3685 20.0989 22.3733 20.0941C22.3781 20.0893 22.3829 20.0845 22.3926 20.0845C22.4312 20.0748 22.4698 20.07 22.5084 20.07C22.6001 20.07 22.6918 20.0459 22.7304 19.959C22.88 19.6163 22.991 19.2639 22.8559 18.8874L22.798 18.7329C22.7642 18.6412 22.7304 18.5495 22.7014 18.4578C22.6966 18.4482 22.6966 18.4433 22.6966 18.4337C22.6966 18.424 22.6966 18.424 22.7014 18.4144C22.7063 18.4047 22.7063 18.4047 22.7111 18.3999C22.7159 18.3951 22.7207 18.3902 22.7256 18.3902C22.7352 18.3854 22.7352 18.3854 22.7449 18.3854C22.7931 18.3854 22.8414 18.3854 22.8945 18.3854C23.0875 18.3854 23.2709 18.3806 23.4591 18.3951C23.5122 18.3999 23.5894 18.4723 23.6039 18.5302C23.6521 18.7812 23.6908 19.037 23.7294 19.288L23.7535 19.4521C23.768 19.5583 23.7101 19.6114 23.6135 19.6307C23.5991 19.6356 23.5846 19.6356 23.5701 19.6356C23.2275 19.6452 23.073 19.7997 23.1647 20.1231C23.2999 20.5865 23.1551 20.9774 22.9186 21.3588C22.8945 21.3877 22.8752 21.4215 22.8607 21.4553C22.7545 21.687 22.5663 21.7594 22.325 21.7401C22.2478 21.7449 22.1706 21.7353 22.0934 21.7256ZM21.6253 24.9934C21.7507 24.81 21.8859 24.6217 22.0113 24.4383C22.132 24.2597 22.2768 24.1101 22.4601 24.0039C22.7497 23.835 23.0393 23.6612 23.3336 23.4971C23.4591 23.4247 23.5846 23.3523 23.7101 23.2847C23.9079 23.1737 24.1106 23.0627 24.3085 22.942C24.4677 22.8454 24.5546 22.6958 24.5449 22.4979C24.5449 22.271 24.5256 22.2469 24.3085 22.189C24.2699 22.1793 24.2313 22.1649 24.1926 22.1504C24.1685 22.1407 24.1492 22.1359 24.1251 22.1262L24.0044 22.0876C23.8452 22.0394 23.6956 21.9911 23.5363 21.9428C23.5218 21.938 23.5025 21.938 23.4881 21.9476C23.4784 21.9525 23.4639 21.9573 23.4639 21.967C23.4543 21.9766 23.4543 21.9911 23.4543 22.0007C23.4591 22.0152 23.4639 22.0297 23.4736 22.0442C23.4977 22.078 23.5267 22.1069 23.5556 22.1359C23.5846 22.1649 23.6135 22.1986 23.6425 22.2324C23.7969 22.4255 23.768 22.6379 23.5653 22.773C23.4832 22.831 23.3964 22.8841 23.3095 22.9372C23.2323 22.9902 23.1503 23.0385 23.073 23.0916C22.5953 23.415 22.1175 23.7384 21.6446 24.0666C21.6011 24.0956 21.5674 24.1535 21.5529 24.2018C21.5094 24.3466 21.4805 24.4914 21.4564 24.6362V24.6459C21.4322 24.7569 21.4129 24.8631 21.4805 24.9693C21.5288 25.0755 21.5625 25.0851 21.6253 24.9934ZM19.608 24.3611C19.6225 24.3514 19.6418 24.3466 19.6611 24.3514C19.6708 24.3514 19.6853 24.3563 19.6949 24.3611C19.7046 24.3707 19.7094 24.3804 19.7094 24.39C19.7142 24.4045 19.7094 24.419 19.7046 24.4335C19.6611 24.5638 19.6129 24.6941 19.5694 24.8196C19.4971 25.0224 19.3571 25.1623 19.1641 25.2637C18.8552 25.423 18.5512 25.6064 18.252 25.7898C18.0589 25.9105 17.9865 26.1181 17.9335 26.3256C17.8997 26.4656 17.8562 26.6056 17.8225 26.7407C17.8128 26.7745 17.7983 26.8035 17.779 26.8324C17.7356 26.8904 17.6439 26.9435 17.5812 26.9386C17.5233 26.9338 17.4605 26.8517 17.4267 26.7938C17.4026 26.7552 17.4026 26.7069 17.393 26.6587C17.3881 26.6394 17.3881 26.6201 17.3833 26.6056C17.3833 26.6008 17.3833 26.5959 17.3833 26.5911C17.4412 26.1856 17.5956 25.8526 17.9479 25.6064C18.252 25.3989 18.5463 25.1768 18.8359 24.9451C18.9469 24.8582 19.0579 24.7762 19.1641 24.6893C19.2365 24.6362 19.304 24.5783 19.3716 24.53C19.4584 24.4769 19.5308 24.419 19.608 24.3611Z" fill="white"/>
</svg>
