<svg width="19" height="24" viewBox="0 0 19 24" fill="none" xmlns="http://www.w3.org/2000/svg">
<path d="M0 22.6313C0 23.3917 0.608314 24 1.36871 24H17.1849C17.9453 24 18.5536 23.3917 18.5536 22.6313V4.30584C18.6296 3.77357 18.3255 3.31733 17.7171 3.01318C17.413 2.93714 16.9567 3.01318 16.8047 3.39337C16.6526 3.77357 16.8807 4.15376 17.1849 4.30584C17.1849 4.38188 17.1849 22.3271 17.1849 22.4032V22.5553H17.0328H1.52078H1.36871V22.4032L1.36871 4.53396V4.38188C1.52078 4.38188 4.10612 4.38188 4.2582 4.38188C4.48631 4.99019 4.94255 5.37039 5.55086 5.37039H12.8506C13.4589 5.37039 13.9912 4.99019 14.1433 4.38188C14.2954 4.38188 14.5235 4.38188 14.6756 4.38188V4.53396V20.046V20.198H14.5235H3.878H3.72592V20.046L3.72592 5.75059C3.72592 5.37039 3.42177 5.14227 3.04157 5.14227C2.66137 5.14227 2.28118 5.44643 2.28118 5.75059L2.28118 20.198C2.28118 20.9584 2.88949 21.5667 3.64988 21.5667H14.7516C15.512 21.5667 16.1203 20.9584 16.1203 20.198V3.62149C16.1203 3.24129 15.8162 2.93714 15.436 2.93714C15.3599 2.93714 14.2954 2.93714 14.2193 2.93714C13.9912 1.41635 12.6225 1.72051 11.4819 1.72051C10.9496 -0.560668 7.60392 -0.560669 6.91957 1.64447C6.99561 1.64447 5.6269 1.64447 5.55086 1.64447C4.86651 1.64447 4.2582 2.17674 4.18216 2.8611H4.03008H1.36871C0.608314 2.93714 0 3.54545 0 4.2298L0 22.6313ZM5.6269 3.77357C5.6269 3.62149 5.6269 3.16525 5.6269 3.01318C5.6269 3.01318 7.45184 3.01318 7.52788 3.01318C7.90808 3.01318 8.1362 2.70902 8.1362 2.32882C8.1362 0.960116 10.1893 0.960116 10.1893 2.32882C10.1893 2.70902 10.4934 2.93714 10.7976 2.93714C10.9496 3.08921 12.9267 3.08921 12.9267 3.08921C12.9267 3.31733 12.9267 3.77357 12.9267 4.00168H12.7746H5.85502H5.6269V3.77357Z" fill="#3744C4"/>
<path d="M12.0144 8.25977H6.6156C5.77917 8.25977 5.77917 9.55243 6.6156 9.55243H12.0144C12.8508 9.47639 12.9269 8.25977 12.0144 8.25977Z" fill="#3744C4"/>
<path d="M12.0144 11.6816H6.6156C5.77917 11.6816 5.77917 12.9743 6.6156 12.9743H12.0144C12.8508 12.9743 12.8508 11.6816 12.0144 11.6816Z" fill="#3744C4"/>
<path d="M12.0144 15.1797H6.6156C5.77917 15.1797 5.77917 16.4724 6.6156 16.4724H12.0144C12.8508 16.4724 12.8508 15.1797 12.0144 15.1797Z" fill="#3744C4"/>
</svg>
