<svg width="24" height="24" viewBox="0 0 24 24" fill="none" xmlns="http://www.w3.org/2000/svg">
<path d="M22.0283 20.4283C23.0123 20.4283 24.0719 19.3687 23.9962 18.3091V2.94488C23.9962 2.3394 23.8448 1.88528 23.5421 1.50686C22.8609 0.75 21.9527 0.75 20.9687 0.75C17.4872 0.75 14.4598 1.88528 12.0378 4.00448C9.84296 2.03666 6.43711 0.825686 3.10694 0.825686C2.19871 0.825686 1.13911 0.75 0.53363 1.50686C0.230887 1.96097 0.00383037 2.41508 0.00383037 2.94488L0.00383037 18.3091C-0.0718552 19.293 0.987743 20.4283 1.97166 20.4283C3.63674 20.5039 5.30182 20.8067 7.34533 21.3365C8.93473 21.8663 10.07 22.3961 11.0539 23.0016C11.4324 23.3043 12.6433 23.38 13.0218 23.0016C15.5194 21.4879 18.8495 20.5039 22.0283 20.4283ZM13.0218 21.2608V9.75659C12.9461 9.52953 12.719 8.77267 12.0378 8.77267C11.5837 8.77267 11.2053 9.22679 11.2053 9.60522V21.1851C8.48062 19.6714 5.15045 18.8389 2.12303 18.7632C1.89597 18.7632 1.7446 18.5361 1.7446 18.3847L1.7446 2.94488C1.7446 2.71783 1.97166 2.56645 2.12303 2.56645C4.24222 2.3394 6.51279 2.71783 8.32925 3.55037C9.46453 3.9288 10.4484 4.68565 11.508 5.74525C11.8108 6.04799 12.4163 6.04799 12.719 5.74525C14.9139 3.47468 18.6982 2.18803 22.104 2.56645C22.3311 2.56645 22.4825 2.79351 22.4825 2.94488V18.3091C22.4825 18.5361 22.2554 18.6875 22.104 18.6875C19.1523 18.7632 15.6708 19.7471 13.0218 21.2608Z" fill="#3744C4"/>
</svg>
