<svg width="24" height="24" viewBox="0 0 24 24" fill="none" xmlns="http://www.w3.org/2000/svg">
<path fill-rule="evenodd" clip-rule="evenodd" d="M10.1005 17.7863C7.60618 17.9843 5.52041 18.5028 4.20385 19.1642C3.54258 19.4964 3.20841 19.7984 3.06818 19.9906C3.02731 20.0466 3.01015 20.0824 3.00335 20.0996C3.02511 20.1538 3.13464 20.3581 3.55274 20.6527C3.98931 20.9603 4.6489 21.2839 5.54771 21.5753C7.34441 22.1578 9.74981 22.4998 12.2964 22.5001C14.843 22.5004 17.2492 22.159 19.0472 21.5769C19.9467 21.2857 20.6073 20.9622 21.0448 20.6544C21.4647 20.3591 21.5748 20.154 21.5967 20.0996C21.5899 20.0825 21.5729 20.047 21.5326 19.9916C21.3932 19.8 21.0602 19.4983 20.3998 19.166C19.085 18.5045 17.0006 17.9855 14.5066 17.7869L14.6257 16.2916C17.2254 16.4986 19.5217 17.0451 21.074 17.8261C21.8501 18.2165 22.4129 18.6519 22.7455 19.1091C23.0801 19.569 23.1798 20.0481 23.0363 20.5232C22.892 21.0006 22.5062 21.4604 21.9078 21.8813C21.3099 22.3019 20.5003 22.6832 19.5092 23.004C17.527 23.6457 14.9583 24.0004 12.2962 24.0001C9.63407 23.9998 7.06607 23.6444 5.08513 23.0022C4.09467 22.6811 3.28584 22.2996 2.68877 21.8789C2.09115 21.4578 1.70627 20.9979 1.56293 20.5205C1.4203 20.0453 1.52095 19.5663 1.85644 19.1065C2.18997 18.6493 2.75358 18.2141 3.53048 17.8238C5.08429 17.0432 7.38172 16.4974 9.98179 16.291L10.1005 17.7863Z" fill="#3744C4"/>
<path d="M16.7812 5.82041C16.648 5.42098 16.2486 5.02155 15.7826 4.95498L14.1849 4.75527L13.5192 3.29071C13.2529 2.89128 12.8535 2.625 12.3875 2.625C11.8549 2.69157 11.5221 2.89128 11.2558 3.35728L10.5901 4.82184L8.99237 5.02155C8.52637 5.08812 8.12695 5.42098 7.92723 5.88698C7.79409 6.2864 7.92723 6.81897 8.19352 7.21839L9.32522 8.28353L9.05894 9.81466C8.99237 10.3472 9.19208 10.8132 9.52493 11.0129C9.85779 11.3458 10.4569 11.2792 10.9229 11.1461L12.3209 10.4138L13.7855 11.1461C14.784 11.6121 15.716 10.7467 15.5829 9.81466L15.3166 8.21696L16.5149 7.08525C16.8477 6.81897 16.9809 6.2864 16.7812 5.82041ZM14.1849 7.61782C13.9852 7.75096 13.9852 7.95068 13.9852 8.21696L14.318 10.0144L12.7203 9.21552C12.5206 9.14895 12.3209 9.14895 12.1878 9.21552L10.6566 10.0144L10.7232 8.21696C10.7898 8.01725 10.7232 7.81753 10.5235 7.61782L9.25865 6.2864L11.0561 6.08669C11.1892 6.08669 11.4555 5.95355 11.5886 5.75383L12.3875 4.15613L13.1198 5.75383C13.2529 5.95355 13.386 6.08669 13.6523 6.08669L15.4497 6.2864L14.1849 7.61782Z" fill="#3744C4"/>
<path fill-rule="evenodd" clip-rule="evenodd" d="M14.8019 15.518C16.5894 12.8367 18.15 9.715 18.15 7.2C18.15 4.05198 15.598 1.5 12.45 1.5C9.30198 1.5 6.75 4.05198 6.75 7.2C6.75 9.715 8.31055 12.8367 10.0981 15.518C10.9483 16.7933 11.8012 17.8985 12.45 18.6937C13.0988 17.8985 13.9517 16.7933 14.8019 15.518ZM13.4371 19.8551C15.4095 17.4693 19.65 11.8046 19.65 7.2C19.65 3.22355 16.4264 0 12.45 0C8.47355 0 5.25 3.22355 5.25 7.2C5.25 11.8046 9.49048 17.4693 11.4629 19.8551C12.0606 20.5781 12.45 21 12.45 21C12.45 21 12.8394 20.5781 13.4371 19.8551Z" fill="#3744C4"/>
</svg>
